<svg width="644" height="128" viewBox="0 0 644 128" fill="none" xmlns="http://www.w3.org/2000/svg">
<g filter="url(#filter0_d_119_32)">
<rect x="2" y="2" width="640" height="124" rx="8" fill="white"/>
<path d="M23.738 40H26.686V33.444H39.182V40H42.13V24.402H39.182V30.958H26.686V24.402H23.738V40ZM54.2132 40.44C58.9652 40.44 61.8472 38.68 62.6392 35.732H59.6252C59.0532 37.228 57.1392 38.108 54.3012 38.108C50.8472 38.108 48.7352 36.876 48.2952 34.566H62.8372C62.8372 29.242 59.5152 26.558 54.0592 26.558C48.6472 26.558 45.1492 29.154 45.1492 33.51C45.1492 37.866 48.5812 40.44 54.2132 40.44ZM48.3392 32.3C48.8672 29.968 50.9132 28.868 54.0812 28.868C57.2272 28.868 59.1632 29.924 59.6912 32.3H48.3392ZM65.7185 40H68.6225V22.4H65.7185V40ZM72.1208 45.368H75.0248V37.228C76.3668 39.252 78.8748 40.44 81.9988 40.44C86.8388 40.44 89.9628 37.69 89.9628 33.488C89.9628 29.286 86.8388 26.558 81.9988 26.558C78.8748 26.558 76.3668 27.746 75.0248 29.748V26.998H72.1208V45.368ZM75.0248 33.488C75.0248 30.848 77.3128 29.132 81.0748 29.132C84.5948 29.132 86.7728 30.848 86.7728 33.488C86.7728 36.15 84.5948 37.866 81.0748 37.866C77.3128 37.866 75.0248 36.15 75.0248 33.488ZM110.985 40.44C117.739 40.44 120.071 37.162 120.071 32.388V24.402H117.123V32.3C117.123 35.116 115.979 37.932 110.985 37.932C105.969 37.932 104.825 35.138 104.825 32.3V24.402H101.877V32.388C101.877 37.162 104.209 40.44 110.985 40.44ZM123.275 40H126.179V36.612L130.579 33.554L136.453 40H140.017L132.669 32.102L140.017 26.998H135.595L126.179 33.51V22.4H123.275V40ZM142.654 40H145.558V31.86C147.758 29.528 149.76 29.11 151.322 29.11C152.51 29.11 153.522 29.242 154.864 29.66V27.13C153.874 26.778 152.818 26.558 151.432 26.558C149.254 26.558 147.362 27.262 145.558 29.55V26.998H142.654V40ZM171.049 32.168V32.498C168.629 31.86 166.253 31.508 164.141 31.508C159.477 31.508 156.859 33.092 156.859 36.084C156.859 38.9 159.037 40.462 163.041 40.462C165.769 40.462 168.629 39.714 171.049 38.416V40H174.107V32.586C174.107 28.34 171.819 26.558 166.451 26.558C163.855 26.558 160.929 26.976 157.915 27.768L158.355 30.474C161.457 29.66 163.789 29.132 166.033 29.132C169.311 29.132 171.049 29.748 171.049 32.168ZM160.049 35.886C160.049 34.28 161.369 33.686 164.229 33.686C166.605 33.686 168.101 33.928 171.049 34.654V36.37C168.409 37.624 165.901 38.328 163.767 38.328C161.325 38.328 160.049 37.492 160.049 35.886ZM177.459 40H180.363V26.998H177.459V40ZM177.459 25.018H180.363V22.4H177.459V25.018ZM183.818 40H186.898V34.522C186.898 31.134 189.428 29.132 193.102 29.132C196.644 29.132 198.14 30.584 198.14 34.412V40H201.22V33.378C201.22 28.252 198.668 26.558 194.488 26.558C191.144 26.558 188.57 27.724 186.898 29.814V26.998H183.818V40ZM213.004 40.44C217.756 40.44 220.638 38.68 221.43 35.732H218.416C217.844 37.228 215.93 38.108 213.092 38.108C209.638 38.108 207.526 36.876 207.086 34.566H221.628C221.628 29.242 218.306 26.558 212.85 26.558C207.438 26.558 203.94 29.154 203.94 33.51C203.94 37.866 207.372 40.44 213.004 40.44ZM207.13 32.3C207.658 29.968 209.704 28.868 212.872 28.868C216.018 28.868 217.954 29.924 218.482 32.3H207.13ZM239.036 40H243.018L248.21 29.484L253.402 40H257.384L263.346 26.998H260.178L255.36 37.822L250.08 26.998H246.34L241.06 37.844L236.242 26.998H233.074L239.036 40ZM265.738 40H268.642V26.998H265.738V40ZM265.738 25.018H268.642V22.4H265.738V25.018ZM272.097 40H275.177V34.522C275.177 31.134 277.707 29.132 281.381 29.132C284.923 29.132 286.419 30.584 286.419 34.412V40H289.499V33.378C289.499 28.252 286.947 26.558 282.767 26.558C279.423 26.558 276.849 27.724 275.177 29.814V26.998H272.097V40Z" fill="#111827"/>
<path d="M23.4091 74V62.3636H27.3409C28.25 62.3636 28.9962 62.5189 29.5795 62.8295C30.1629 63.1364 30.5947 63.5587 30.875 64.0966C31.1553 64.6345 31.2955 65.2462 31.2955 65.9318C31.2955 66.6174 31.1553 67.2254 30.875 67.7557C30.5947 68.286 30.1648 68.7027 29.5852 69.0057C29.0057 69.3049 28.2652 69.4545 27.3636 69.4545H24.1818V68.1818H27.3182C27.9394 68.1818 28.4394 68.0909 28.8182 67.9091C29.2008 67.7273 29.4773 67.4697 29.6477 67.1364C29.822 66.7992 29.9091 66.3977 29.9091 65.9318C29.9091 65.4659 29.822 65.0587 29.6477 64.7102C29.4735 64.3617 29.1951 64.0928 28.8125 63.9034C28.4299 63.7102 27.9242 63.6136 27.2955 63.6136H24.8182V74H23.4091ZM28.8864 68.7727L31.75 74H30.1136L27.2955 68.7727H28.8864ZM38.9616 70.4318V65.2727H40.3026V74H38.9616V72.5227H38.8707C38.6662 72.9659 38.348 73.3428 37.9162 73.6534C37.4844 73.9602 36.9389 74.1136 36.2798 74.1136C35.7344 74.1136 35.2495 73.9943 34.8253 73.7557C34.401 73.5133 34.0677 73.1496 33.8253 72.6648C33.5829 72.1761 33.4616 71.5606 33.4616 70.8182V65.2727H34.8026V70.7273C34.8026 71.3636 34.9806 71.8712 35.3366 72.25C35.6965 72.6288 36.1548 72.8182 36.7116 72.8182C37.045 72.8182 37.384 72.733 37.7287 72.5625C38.0772 72.392 38.3688 72.1307 38.6037 71.7784C38.8423 71.4261 38.9616 70.9773 38.9616 70.4318ZM48.9403 67.2273L47.7358 67.5682C47.66 67.3674 47.5483 67.1723 47.4006 66.983C47.2566 66.7898 47.0597 66.6307 46.8097 66.5057C46.5597 66.3807 46.2396 66.3182 45.8494 66.3182C45.3153 66.3182 44.8703 66.4413 44.5142 66.6875C44.1619 66.9299 43.9858 67.2386 43.9858 67.6136C43.9858 67.947 44.107 68.2102 44.3494 68.4034C44.5919 68.5966 44.9706 68.7576 45.4858 68.8864L46.7812 69.2045C47.5616 69.3939 48.143 69.6837 48.5256 70.0739C48.9081 70.4602 49.0994 70.9583 49.0994 71.5682C49.0994 72.0682 48.9555 72.5152 48.6676 72.9091C48.3835 73.303 47.9858 73.6136 47.4744 73.8409C46.9631 74.0682 46.3684 74.1818 45.6903 74.1818C44.8002 74.1818 44.0634 73.9886 43.4801 73.6023C42.8968 73.2159 42.5275 72.6515 42.3722 71.9091L43.6449 71.5909C43.7661 72.0606 43.9953 72.4129 44.3324 72.6477C44.6733 72.8826 45.1184 73 45.6676 73C46.2926 73 46.7888 72.8674 47.1562 72.6023C47.5275 72.3333 47.7131 72.0114 47.7131 71.6364C47.7131 71.3333 47.607 71.0795 47.3949 70.875C47.1828 70.6667 46.857 70.5114 46.4176 70.4091L44.9631 70.0682C44.1638 69.8788 43.5767 69.5852 43.2017 69.1875C42.8305 68.786 42.6449 68.2841 42.6449 67.6818C42.6449 67.1894 42.7831 66.7538 43.0597 66.375C43.34 65.9962 43.7206 65.6989 44.2017 65.483C44.6866 65.267 45.2358 65.1591 45.8494 65.1591C46.7131 65.1591 47.3911 65.3485 47.8835 65.7273C48.3797 66.1061 48.732 66.6061 48.9403 67.2273ZM57.2997 67.2273L56.0952 67.5682C56.0194 67.3674 55.9077 67.1723 55.7599 66.983C55.616 66.7898 55.419 66.6307 55.169 66.5057C54.919 66.3807 54.599 66.3182 54.2088 66.3182C53.6747 66.3182 53.2296 66.4413 52.8736 66.6875C52.5213 66.9299 52.3452 67.2386 52.3452 67.6136C52.3452 67.947 52.4664 68.2102 52.7088 68.4034C52.9512 68.5966 53.33 68.7576 53.8452 68.8864L55.1406 69.2045C55.9209 69.3939 56.5024 69.6837 56.8849 70.0739C57.2675 70.4602 57.4588 70.9583 57.4588 71.5682C57.4588 72.0682 57.3149 72.5152 57.027 72.9091C56.7429 73.303 56.3452 73.6136 55.8338 73.8409C55.3224 74.0682 54.7277 74.1818 54.0497 74.1818C53.1596 74.1818 52.4228 73.9886 51.8395 73.6023C51.2562 73.2159 50.8868 72.6515 50.7315 71.9091L52.0043 71.5909C52.1255 72.0606 52.3546 72.4129 52.6918 72.6477C53.0327 72.8826 53.4777 73 54.027 73C54.652 73 55.1482 72.8674 55.5156 72.6023C55.8868 72.3333 56.0724 72.0114 56.0724 71.6364C56.0724 71.3333 55.9664 71.0795 55.7543 70.875C55.5421 70.6667 55.2164 70.5114 54.777 70.4091L53.3224 70.0682C52.5232 69.8788 51.9361 69.5852 51.5611 69.1875C51.1899 68.786 51.0043 68.2841 51.0043 67.6818C51.0043 67.1894 51.1425 66.7538 51.419 66.375C51.6993 65.9962 52.08 65.6989 52.5611 65.483C53.0459 65.267 53.5952 65.1591 54.2088 65.1591C55.0724 65.1591 55.7505 65.3485 56.2429 65.7273C56.7391 66.1061 57.0914 66.6061 57.2997 67.2273ZM59.4773 74V65.2727H60.8182V74H59.4773ZM60.1591 63.8182C59.8977 63.8182 59.6723 63.7292 59.483 63.5511C59.2973 63.3731 59.2045 63.1591 59.2045 62.9091C59.2045 62.6591 59.2973 62.4451 59.483 62.267C59.6723 62.089 59.8977 62 60.1591 62C60.4205 62 60.6439 62.089 60.8295 62.267C61.0189 62.4451 61.1136 62.6591 61.1136 62.9091C61.1136 63.1591 61.0189 63.3731 60.8295 63.5511C60.6439 63.7292 60.4205 63.8182 60.1591 63.8182ZM65.8423 74.2045C65.2893 74.2045 64.7874 74.1004 64.3366 73.892C63.8859 73.6799 63.5279 73.375 63.2628 72.9773C62.9976 72.5758 62.8651 72.0909 62.8651 71.5227C62.8651 71.0227 62.9635 70.6174 63.1605 70.3068C63.3575 69.9924 63.6207 69.7462 63.9503 69.5682C64.2798 69.3902 64.6435 69.2576 65.0412 69.1705C65.4427 69.0795 65.8461 69.0076 66.2514 68.9545C66.7817 68.8864 67.2116 68.8352 67.5412 68.8011C67.8745 68.7633 68.117 68.7008 68.2685 68.6136C68.4238 68.5265 68.5014 68.375 68.5014 68.1591V68.1136C68.5014 67.553 68.348 67.1174 68.0412 66.8068C67.7382 66.4962 67.2779 66.3409 66.6605 66.3409C66.0204 66.3409 65.5185 66.4811 65.1548 66.7614C64.7912 67.0417 64.5355 67.3409 64.3878 67.6591L63.1151 67.2045C63.3423 66.6742 63.6454 66.2614 64.0241 65.9659C64.4067 65.6667 64.8234 65.4583 65.2741 65.3409C65.7287 65.2197 66.1757 65.1591 66.6151 65.1591C66.8954 65.1591 67.2173 65.1932 67.581 65.2614C67.9484 65.3258 68.3026 65.4602 68.6435 65.6648C68.9882 65.8693 69.2741 66.178 69.5014 66.5909C69.7287 67.0038 69.8423 67.5568 69.8423 68.25V74H68.5014V72.8182H68.4332C68.3423 73.0076 68.1908 73.2102 67.9787 73.4261C67.7666 73.642 67.4844 73.8258 67.1321 73.9773C66.7798 74.1288 66.3499 74.2045 65.8423 74.2045ZM66.0469 73C66.5772 73 67.0241 72.8958 67.3878 72.6875C67.7552 72.4792 68.0317 72.2102 68.2173 71.8807C68.4067 71.5511 68.5014 71.2045 68.5014 70.8409V69.6136C68.4446 69.6818 68.3196 69.7443 68.1264 69.8011C67.937 69.8542 67.7173 69.9015 67.4673 69.9432C67.2211 69.9811 66.9806 70.0152 66.7457 70.0455C66.5147 70.072 66.3272 70.0947 66.1832 70.1136C65.8348 70.1591 65.509 70.233 65.206 70.3352C64.9067 70.4337 64.6643 70.5833 64.4787 70.7841C64.2969 70.9811 64.206 71.25 64.206 71.5909C64.206 72.0568 64.3783 72.4091 64.723 72.6477C65.0715 72.8826 65.5128 73 66.0469 73ZM73.6307 68.75V74H72.2898V65.2727H73.5852V66.6364H73.6989C73.9034 66.1932 74.214 65.8371 74.6307 65.5682C75.0473 65.2955 75.5852 65.1591 76.2443 65.1591C76.8352 65.1591 77.3523 65.2803 77.7955 65.5227C78.2386 65.7614 78.5833 66.125 78.8295 66.6136C79.0758 67.0985 79.1989 67.7121 79.1989 68.4545V74H77.858V68.5455C77.858 67.8598 77.6799 67.3258 77.3239 66.9432C76.9678 66.5568 76.4792 66.3636 75.858 66.3636C75.4299 66.3636 75.0473 66.4564 74.7102 66.642C74.3769 66.8277 74.1136 67.0985 73.9205 67.4545C73.7273 67.8106 73.6307 68.2424 73.6307 68.75ZM86.331 74V62.3636H87.6719V66.6591H87.7855C87.884 66.5076 88.0204 66.3144 88.1946 66.0795C88.3726 65.8409 88.6264 65.6288 88.956 65.4432C89.2893 65.2538 89.7401 65.1591 90.3082 65.1591C91.0431 65.1591 91.6908 65.3428 92.2514 65.7102C92.812 66.0777 93.2495 66.5985 93.5639 67.2727C93.8783 67.947 94.0355 68.7424 94.0355 69.6591C94.0355 70.5833 93.8783 71.3845 93.5639 72.0625C93.2495 72.7367 92.8139 73.2595 92.2571 73.6307C91.7003 73.9981 91.0582 74.1818 90.331 74.1818C89.7704 74.1818 89.3215 74.089 88.9844 73.9034C88.6473 73.714 88.3878 73.5 88.206 73.2614C88.0241 73.0189 87.884 72.8182 87.7855 72.6591H87.6264V74H86.331ZM87.6491 69.6364C87.6491 70.2955 87.7457 70.8769 87.9389 71.3807C88.1321 71.8807 88.4143 72.2727 88.7855 72.5568C89.1567 72.8371 89.6113 72.9773 90.1491 72.9773C90.7098 72.9773 91.1776 72.8295 91.5526 72.5341C91.9313 72.2348 92.2154 71.8333 92.4048 71.3295C92.598 70.822 92.6946 70.2576 92.6946 69.6364C92.6946 69.0227 92.5999 68.4697 92.4105 67.9773C92.2249 67.4811 91.9427 67.089 91.5639 66.8011C91.1889 66.5095 90.7173 66.3636 90.1491 66.3636C89.6037 66.3636 89.1454 66.5019 88.7741 66.7784C88.4029 67.0511 88.1226 67.4337 87.9332 67.9261C87.7438 68.4148 87.6491 68.9848 87.6491 69.6364ZM98.6548 74.2045C98.1018 74.2045 97.5999 74.1004 97.1491 73.892C96.6984 73.6799 96.3404 73.375 96.0753 72.9773C95.8101 72.5758 95.6776 72.0909 95.6776 71.5227C95.6776 71.0227 95.776 70.6174 95.973 70.3068C96.17 69.9924 96.4332 69.7462 96.7628 69.5682C97.0923 69.3902 97.456 69.2576 97.8537 69.1705C98.2552 69.0795 98.6586 69.0076 99.0639 68.9545C99.5942 68.8864 100.024 68.8352 100.354 68.8011C100.687 68.7633 100.929 68.7008 101.081 68.6136C101.236 68.5265 101.314 68.375 101.314 68.1591V68.1136C101.314 67.553 101.161 67.1174 100.854 66.8068C100.551 66.4962 100.09 66.3409 99.473 66.3409C98.8329 66.3409 98.331 66.4811 97.9673 66.7614C97.6037 67.0417 97.348 67.3409 97.2003 67.6591L95.9276 67.2045C96.1548 66.6742 96.4579 66.2614 96.8366 65.9659C97.2192 65.6667 97.6359 65.4583 98.0866 65.3409C98.5412 65.2197 98.9882 65.1591 99.4276 65.1591C99.7079 65.1591 100.03 65.1932 100.393 65.2614C100.761 65.3258 101.115 65.4602 101.456 65.6648C101.801 65.8693 102.087 66.178 102.314 66.5909C102.541 67.0038 102.655 67.5568 102.655 68.25V74H101.314V72.8182H101.246C101.155 73.0076 101.003 73.2102 100.791 73.4261C100.579 73.642 100.297 73.8258 99.9446 73.9773C99.5923 74.1288 99.1624 74.2045 98.6548 74.2045ZM98.8594 73C99.3897 73 99.8366 72.8958 100.2 72.6875C100.568 72.4792 100.844 72.2102 101.03 71.8807C101.219 71.5511 101.314 71.2045 101.314 70.8409V69.6136C101.257 69.6818 101.132 69.7443 100.939 69.8011C100.75 69.8542 100.53 69.9015 100.28 69.9432C100.034 69.9811 99.7931 70.0152 99.5582 70.0455C99.3272 70.072 99.1397 70.0947 98.9957 70.1136C98.6473 70.1591 98.3215 70.233 98.0185 70.3352C97.7192 70.4337 97.4768 70.5833 97.2912 70.7841C97.1094 70.9811 97.0185 71.25 97.0185 71.5909C97.0185 72.0568 97.1908 72.4091 97.5355 72.6477C97.884 72.8826 98.3253 73 98.8594 73ZM105.102 74V65.2727H106.398V66.5909H106.489C106.648 66.1591 106.936 65.8087 107.352 65.5398C107.769 65.2708 108.239 65.1364 108.761 65.1364C108.86 65.1364 108.983 65.1383 109.131 65.142C109.278 65.1458 109.39 65.1515 109.466 65.1591V66.5227C109.42 66.5114 109.316 66.4943 109.153 66.4716C108.994 66.4451 108.826 66.4318 108.648 66.4318C108.223 66.4318 107.845 66.5208 107.511 66.6989C107.182 66.8731 106.92 67.1155 106.727 67.4261C106.538 67.733 106.443 68.0833 106.443 68.4773V74H105.102ZM111.237 74V62.3636H112.578V66.6591H112.692C112.79 66.5076 112.927 66.3144 113.101 66.0795C113.279 65.8409 113.533 65.6288 113.862 65.4432C114.196 65.2538 114.646 65.1591 115.214 65.1591C115.949 65.1591 116.597 65.3428 117.158 65.7102C117.718 66.0777 118.156 66.5985 118.47 67.2727C118.785 67.947 118.942 68.7424 118.942 69.6591C118.942 70.5833 118.785 71.3845 118.47 72.0625C118.156 72.7367 117.72 73.2595 117.163 73.6307C116.607 73.9981 115.964 74.1818 115.237 74.1818C114.677 74.1818 114.228 74.089 113.891 73.9034C113.554 73.714 113.294 73.5 113.112 73.2614C112.93 73.0189 112.79 72.8182 112.692 72.6591H112.533V74H111.237ZM112.555 69.6364C112.555 70.2955 112.652 70.8769 112.845 71.3807C113.038 71.8807 113.321 72.2727 113.692 72.5568C114.063 72.8371 114.518 72.9773 115.055 72.9773C115.616 72.9773 116.084 72.8295 116.459 72.5341C116.838 72.2348 117.122 71.8333 117.311 71.3295C117.504 70.822 117.601 70.2576 117.601 69.6364C117.601 69.0227 117.506 68.4697 117.317 67.9773C117.131 67.4811 116.849 67.089 116.47 66.8011C116.095 66.5095 115.624 66.3636 115.055 66.3636C114.51 66.3636 114.052 66.5019 113.68 66.7784C113.309 67.0511 113.029 67.4337 112.839 67.9261C112.65 68.4148 112.555 68.9848 112.555 69.6364ZM123.561 74.2045C123.008 74.2045 122.506 74.1004 122.055 73.892C121.605 73.6799 121.247 73.375 120.982 72.9773C120.716 72.5758 120.584 72.0909 120.584 71.5227C120.584 71.0227 120.682 70.6174 120.879 70.3068C121.076 69.9924 121.339 69.7462 121.669 69.5682C121.999 69.3902 122.362 69.2576 122.76 69.1705C123.161 69.0795 123.565 69.0076 123.97 68.9545C124.5 68.8864 124.93 68.8352 125.26 68.8011C125.593 68.7633 125.836 68.7008 125.987 68.6136C126.143 68.5265 126.22 68.375 126.22 68.1591V68.1136C126.22 67.553 126.067 67.1174 125.76 66.8068C125.457 66.4962 124.997 66.3409 124.379 66.3409C123.739 66.3409 123.237 66.4811 122.874 66.7614C122.51 67.0417 122.254 67.3409 122.107 67.6591L120.834 67.2045C121.061 66.6742 121.364 66.2614 121.743 65.9659C122.125 65.6667 122.542 65.4583 122.993 65.3409C123.447 65.2197 123.894 65.1591 124.334 65.1591C124.614 65.1591 124.936 65.1932 125.3 65.2614C125.667 65.3258 126.021 65.4602 126.362 65.6648C126.707 65.8693 126.993 66.178 127.22 66.5909C127.447 67.0038 127.561 67.5568 127.561 68.25V74H126.22V72.8182H126.152C126.061 73.0076 125.91 73.2102 125.697 73.4261C125.485 73.642 125.203 73.8258 124.851 73.9773C124.499 74.1288 124.069 74.2045 123.561 74.2045ZM123.766 73C124.296 73 124.743 72.8958 125.107 72.6875C125.474 72.4792 125.75 72.2102 125.936 71.8807C126.125 71.5511 126.22 71.2045 126.22 70.8409V69.6136C126.163 69.6818 126.038 69.7443 125.845 69.8011C125.656 69.8542 125.436 69.9015 125.186 69.9432C124.94 69.9811 124.699 70.0152 124.464 70.0455C124.233 70.072 124.046 70.0947 123.902 70.1136C123.554 70.1591 123.228 70.233 122.925 70.3352C122.625 70.4337 122.383 70.5833 122.197 70.7841C122.016 70.9811 121.925 71.25 121.925 71.5909C121.925 72.0568 122.097 72.4091 122.442 72.6477C122.79 72.8826 123.232 73 123.766 73ZM130.009 74V65.2727H131.304V66.5909H131.395C131.554 66.1591 131.842 65.8087 132.259 65.5398C132.675 65.2708 133.145 65.1364 133.668 65.1364C133.766 65.1364 133.889 65.1383 134.037 65.142C134.185 65.1458 134.296 65.1515 134.372 65.1591V66.5227C134.327 66.5114 134.223 66.4943 134.06 66.4716C133.901 66.4451 133.732 66.4318 133.554 66.4318C133.13 66.4318 132.751 66.5208 132.418 66.6989C132.088 66.8731 131.827 67.1155 131.634 67.4261C131.444 67.733 131.349 68.0833 131.349 68.4773V74H130.009ZM135.962 74V65.2727H137.303V74H135.962ZM136.643 63.8182C136.382 63.8182 136.157 63.7292 135.967 63.5511C135.782 63.3731 135.689 63.1591 135.689 62.9091C135.689 62.6591 135.782 62.4451 135.967 62.267C136.157 62.089 136.382 62 136.643 62C136.905 62 137.128 62.089 137.314 62.267C137.503 62.4451 137.598 62.6591 137.598 62.9091C137.598 63.1591 137.503 63.3731 137.314 63.5511C137.128 63.7292 136.905 63.8182 136.643 63.8182ZM143.304 74.1818C142.486 74.1818 141.781 73.9886 141.19 73.6023C140.599 73.2159 140.145 72.6837 139.827 72.0057C139.509 71.3277 139.349 70.553 139.349 69.6818C139.349 68.7955 139.512 68.0133 139.838 67.3352C140.168 66.6534 140.626 66.1212 141.213 65.7386C141.804 65.3523 142.493 65.1591 143.281 65.1591C143.895 65.1591 144.448 65.2727 144.94 65.5C145.433 65.7273 145.836 66.0455 146.151 66.4545C146.465 66.8636 146.66 67.3409 146.736 67.8864H145.395C145.293 67.4886 145.065 67.1364 144.713 66.8295C144.365 66.5189 143.895 66.3636 143.304 66.3636C142.781 66.3636 142.323 66.5 141.929 66.7727C141.539 67.0417 141.234 67.4223 141.014 67.9148C140.798 68.4034 140.69 68.9773 140.69 69.6364C140.69 70.3106 140.796 70.8977 141.009 71.3977C141.224 71.8977 141.527 72.286 141.918 72.5625C142.312 72.839 142.774 72.9773 143.304 72.9773C143.652 72.9773 143.969 72.9167 144.253 72.7955C144.537 72.6742 144.777 72.5 144.974 72.2727C145.171 72.0455 145.312 71.7727 145.395 71.4545H146.736C146.66 71.9697 146.473 72.4337 146.173 72.8466C145.878 73.2557 145.486 73.5814 144.997 73.8239C144.512 74.0625 143.948 74.1818 143.304 74.1818ZM153.196 74V65.2727H154.537V74H153.196ZM153.878 63.8182C153.616 63.8182 153.391 63.7292 153.202 63.5511C153.016 63.3731 152.923 63.1591 152.923 62.9091C152.923 62.6591 153.016 62.4451 153.202 62.267C153.391 62.089 153.616 62 153.878 62C154.139 62 154.363 62.089 154.548 62.267C154.738 62.4451 154.832 62.6591 154.832 62.9091C154.832 63.1591 154.738 63.3731 154.548 63.5511C154.363 63.7292 154.139 63.8182 153.878 63.8182ZM158.334 68.75V74H156.993V65.2727H158.288V66.6364H158.402C158.607 66.1932 158.917 65.8371 159.334 65.5682C159.75 65.2955 160.288 65.1591 160.947 65.1591C161.538 65.1591 162.055 65.2803 162.499 65.5227C162.942 65.7614 163.286 66.125 163.533 66.6136C163.779 67.0985 163.902 67.7121 163.902 68.4545V74H162.561V68.5455C162.561 67.8598 162.383 67.3258 162.027 66.9432C161.671 66.5568 161.182 66.3636 160.561 66.3636C160.133 66.3636 159.75 66.4564 159.413 66.642C159.08 66.8277 158.817 67.0985 158.624 67.4545C158.43 67.8106 158.334 68.2424 158.334 68.75ZM173.176 65.2727L169.949 74H168.585L165.358 65.2727H166.812L169.222 72.2273H169.312L171.722 65.2727H173.176ZM177.249 74.2045C176.696 74.2045 176.194 74.1004 175.743 73.892C175.292 73.6799 174.934 73.375 174.669 72.9773C174.404 72.5758 174.271 72.0909 174.271 71.5227C174.271 71.0227 174.37 70.6174 174.567 70.3068C174.764 69.9924 175.027 69.7462 175.357 69.5682C175.686 69.3902 176.05 69.2576 176.447 69.1705C176.849 69.0795 177.252 69.0076 177.658 68.9545C178.188 68.8864 178.618 68.8352 178.947 68.8011C179.281 68.7633 179.523 68.7008 179.675 68.6136C179.83 68.5265 179.908 68.375 179.908 68.1591V68.1136C179.908 67.553 179.754 67.1174 179.447 66.8068C179.144 66.4962 178.684 66.3409 178.067 66.3409C177.427 66.3409 176.925 66.4811 176.561 66.7614C176.197 67.0417 175.942 67.3409 175.794 67.6591L174.521 67.2045C174.749 66.6742 175.052 66.2614 175.43 65.9659C175.813 65.6667 176.23 65.4583 176.68 65.3409C177.135 65.2197 177.582 65.1591 178.021 65.1591C178.302 65.1591 178.624 65.1932 178.987 65.2614C179.355 65.3258 179.709 65.4602 180.05 65.6648C180.394 65.8693 180.68 66.178 180.908 66.5909C181.135 67.0038 181.249 67.5568 181.249 68.25V74H179.908V72.8182H179.839C179.749 73.0076 179.597 73.2102 179.385 73.4261C179.173 73.642 178.891 73.8258 178.538 73.9773C178.186 74.1288 177.756 74.2045 177.249 74.2045ZM177.453 73C177.983 73 178.43 72.8958 178.794 72.6875C179.161 72.4792 179.438 72.2102 179.624 71.8807C179.813 71.5511 179.908 71.2045 179.908 70.8409V69.6136C179.851 69.6818 179.726 69.7443 179.533 69.8011C179.343 69.8542 179.124 69.9015 178.874 69.9432C178.627 69.9811 178.387 70.0152 178.152 70.0455C177.921 70.072 177.733 70.0947 177.589 70.1136C177.241 70.1591 176.915 70.233 176.612 70.3352C176.313 70.4337 176.071 70.5833 175.885 70.7841C175.703 70.9811 175.612 71.25 175.612 71.5909C175.612 72.0568 175.785 72.4091 176.129 72.6477C176.478 72.8826 176.919 73 177.453 73ZM189.878 67.2273L188.673 67.5682C188.598 67.3674 188.486 67.1723 188.338 66.983C188.194 66.7898 187.997 66.6307 187.747 66.5057C187.497 66.3807 187.177 66.3182 186.787 66.3182C186.253 66.3182 185.808 66.4413 185.452 66.6875C185.099 66.9299 184.923 67.2386 184.923 67.6136C184.923 67.947 185.045 68.2102 185.287 68.4034C185.529 68.5966 185.908 68.7576 186.423 68.8864L187.719 69.2045C188.499 69.3939 189.08 69.6837 189.463 70.0739C189.846 70.4602 190.037 70.9583 190.037 71.5682C190.037 72.0682 189.893 72.5152 189.605 72.9091C189.321 73.303 188.923 73.6136 188.412 73.8409C187.901 74.0682 187.306 74.1818 186.628 74.1818C185.738 74.1818 185.001 73.9886 184.418 73.6023C183.834 73.2159 183.465 72.6515 183.31 71.9091L184.582 71.5909C184.704 72.0606 184.933 72.4129 185.27 72.6477C185.611 72.8826 186.056 73 186.605 73C187.23 73 187.726 72.8674 188.094 72.6023C188.465 72.3333 188.651 72.0114 188.651 71.6364C188.651 71.3333 188.545 71.0795 188.332 70.875C188.12 70.6667 187.795 70.5114 187.355 70.4091L185.901 70.0682C185.101 69.8788 184.514 69.5852 184.139 69.1875C183.768 68.786 183.582 68.2841 183.582 67.6818C183.582 67.1894 183.721 66.7538 183.997 66.375C184.277 65.9962 184.658 65.6989 185.139 65.483C185.624 65.267 186.173 65.1591 186.787 65.1591C187.651 65.1591 188.329 65.3485 188.821 65.7273C189.317 66.1061 189.67 66.6061 189.878 67.2273ZM192.055 74V65.2727H193.396V74H192.055ZM192.737 63.8182C192.476 63.8182 192.25 63.7292 192.061 63.5511C191.875 63.3731 191.783 63.1591 191.783 62.9091C191.783 62.6591 191.875 62.4451 192.061 62.267C192.25 62.089 192.476 62 192.737 62C192.999 62 193.222 62.089 193.408 62.267C193.597 62.4451 193.692 62.6591 193.692 62.9091C193.692 63.1591 193.597 63.3731 193.408 63.5511C193.222 63.7292 192.999 63.8182 192.737 63.8182ZM199.398 74.1818C198.61 74.1818 197.919 73.9943 197.324 73.6193C196.733 73.2443 196.271 72.7197 195.938 72.0455C195.608 71.3712 195.443 70.5833 195.443 69.6818C195.443 68.7727 195.608 67.9792 195.938 67.3011C196.271 66.6231 196.733 66.0966 197.324 65.7216C197.919 65.3466 198.61 65.1591 199.398 65.1591C200.186 65.1591 200.875 65.3466 201.466 65.7216C202.061 66.0966 202.523 66.6231 202.852 67.3011C203.186 67.9792 203.352 68.7727 203.352 69.6818C203.352 70.5833 203.186 71.3712 202.852 72.0455C202.523 72.7197 202.061 73.2443 201.466 73.6193C200.875 73.9943 200.186 74.1818 199.398 74.1818ZM199.398 72.9773C199.996 72.9773 200.489 72.8239 200.875 72.517C201.261 72.2102 201.547 71.8068 201.733 71.3068C201.919 70.8068 202.011 70.2652 202.011 69.6818C202.011 69.0985 201.919 68.5549 201.733 68.0511C201.547 67.5473 201.261 67.1402 200.875 66.8295C200.489 66.5189 199.996 66.3636 199.398 66.3636C198.799 66.3636 198.307 66.5189 197.92 66.8295C197.534 67.1402 197.248 67.5473 197.062 68.0511C196.877 68.5549 196.784 69.0985 196.784 69.6818C196.784 70.2652 196.877 70.8068 197.062 71.3068C197.248 71.8068 197.534 72.2102 197.92 72.517C198.307 72.8239 198.799 72.9773 199.398 72.9773ZM206.74 68.75V74H205.399V65.2727H206.695V66.6364H206.808C207.013 66.1932 207.323 65.8371 207.74 65.5682C208.157 65.2955 208.695 65.1591 209.354 65.1591C209.945 65.1591 210.462 65.2803 210.905 65.5227C211.348 65.7614 211.693 66.125 211.939 66.6136C212.185 67.0985 212.308 67.7121 212.308 68.4545V74H210.967V68.5455C210.967 67.8598 210.789 67.3258 210.433 66.9432C210.077 66.5568 209.589 66.3636 208.967 66.3636C208.539 66.3636 208.157 66.4564 207.82 66.642C207.486 66.8277 207.223 67.0985 207.03 67.4545C206.837 67.8106 206.74 68.2424 206.74 68.75ZM222.804 74.1818C222.016 74.1818 221.325 73.9943 220.73 73.6193C220.139 73.2443 219.677 72.7197 219.344 72.0455C219.014 71.3712 218.849 70.5833 218.849 69.6818C218.849 68.7727 219.014 67.9792 219.344 67.3011C219.677 66.6231 220.139 66.0966 220.73 65.7216C221.325 65.3466 222.016 65.1591 222.804 65.1591C223.592 65.1591 224.281 65.3466 224.872 65.7216C225.467 66.0966 225.929 66.6231 226.259 67.3011C226.592 67.9792 226.759 68.7727 226.759 69.6818C226.759 70.5833 226.592 71.3712 226.259 72.0455C225.929 72.7197 225.467 73.2443 224.872 73.6193C224.281 73.9943 223.592 74.1818 222.804 74.1818ZM222.804 72.9773C223.402 72.9773 223.895 72.8239 224.281 72.517C224.668 72.2102 224.954 71.8068 225.139 71.3068C225.325 70.8068 225.418 70.2652 225.418 69.6818C225.418 69.0985 225.325 68.5549 225.139 68.0511C224.954 67.5473 224.668 67.1402 224.281 66.8295C223.895 66.5189 223.402 66.3636 222.804 66.3636C222.205 66.3636 221.713 66.5189 221.327 66.8295C220.94 67.1402 220.654 67.5473 220.469 68.0511C220.283 68.5549 220.19 69.0985 220.19 69.6818C220.19 70.2652 220.283 70.8068 220.469 71.3068C220.654 71.8068 220.94 72.2102 221.327 72.517C221.713 72.8239 222.205 72.9773 222.804 72.9773ZM232.692 65.2727V66.4091H227.987V65.2727H232.692ZM229.396 74V64.0682C229.396 63.5682 229.514 63.1515 229.749 62.8182C229.983 62.4848 230.288 62.2348 230.663 62.0682C231.038 61.9015 231.434 61.8182 231.851 61.8182C232.18 61.8182 232.449 61.8447 232.658 61.8977C232.866 61.9508 233.021 62 233.124 62.0455L232.737 63.2045C232.669 63.1818 232.574 63.1534 232.453 63.1193C232.336 63.0852 232.18 63.0682 231.987 63.0682C231.544 63.0682 231.224 63.1799 231.027 63.4034C230.834 63.6269 230.737 63.9545 230.737 64.3864V74H229.396ZM246.889 62.3636H248.298V70.0682C248.298 70.8636 248.111 71.5739 247.736 72.1989C247.365 72.8201 246.84 73.3106 246.162 73.6705C245.484 74.0265 244.688 74.2045 243.776 74.2045C242.863 74.2045 242.067 74.0265 241.389 73.6705C240.711 73.3106 240.185 72.8201 239.81 72.1989C239.438 71.5739 239.253 70.8636 239.253 70.0682V62.3636H240.662V69.9545C240.662 70.5227 240.787 71.0284 241.037 71.4716C241.287 71.911 241.643 72.2576 242.105 72.5114C242.571 72.7614 243.128 72.8864 243.776 72.8864C244.423 72.8864 244.98 72.7614 245.446 72.5114C245.912 72.2576 246.268 71.911 246.514 71.4716C246.764 71.0284 246.889 70.5227 246.889 69.9545V62.3636ZM252.18 70.8182L252.158 69.1591H252.43L256.249 65.2727H257.908L253.839 69.3864H253.726L252.18 70.8182ZM250.93 74V62.3636H252.271V74H250.93ZM256.476 74L253.067 69.6818L254.021 68.75L258.18 74H256.476ZM259.634 74V65.2727H260.929V66.5909H261.02C261.179 66.1591 261.467 65.8087 261.884 65.5398C262.3 65.2708 262.77 65.1364 263.293 65.1364C263.391 65.1364 263.514 65.1383 263.662 65.142C263.81 65.1458 263.921 65.1515 263.997 65.1591V66.5227C263.952 66.5114 263.848 66.4943 263.685 66.4716C263.526 66.4451 263.357 66.4318 263.179 66.4318C262.755 66.4318 262.376 66.5208 262.043 66.6989C261.713 66.8731 261.452 67.1155 261.259 67.4261C261.069 67.733 260.974 68.0833 260.974 68.4773V74H259.634ZM268.155 74.2045C267.602 74.2045 267.1 74.1004 266.649 73.892C266.198 73.6799 265.84 73.375 265.575 72.9773C265.31 72.5758 265.178 72.0909 265.178 71.5227C265.178 71.0227 265.276 70.6174 265.473 70.3068C265.67 69.9924 265.933 69.7462 266.263 69.5682C266.592 69.3902 266.956 69.2576 267.354 69.1705C267.755 69.0795 268.159 69.0076 268.564 68.9545C269.094 68.8864 269.524 68.8352 269.854 68.8011C270.187 68.7633 270.429 68.7008 270.581 68.6136C270.736 68.5265 270.814 68.375 270.814 68.1591V68.1136C270.814 67.553 270.661 67.1174 270.354 66.8068C270.051 66.4962 269.59 66.3409 268.973 66.3409C268.333 66.3409 267.831 66.4811 267.467 66.7614C267.104 67.0417 266.848 67.3409 266.7 67.6591L265.428 67.2045C265.655 66.6742 265.958 66.2614 266.337 65.9659C266.719 65.6667 267.136 65.4583 267.587 65.3409C268.041 65.2197 268.488 65.1591 268.928 65.1591C269.208 65.1591 269.53 65.1932 269.893 65.2614C270.261 65.3258 270.615 65.4602 270.956 65.6648C271.301 65.8693 271.587 66.178 271.814 66.5909C272.041 67.0038 272.155 67.5568 272.155 68.25V74H270.814V72.8182H270.746C270.655 73.0076 270.503 73.2102 270.291 73.4261C270.079 73.642 269.797 73.8258 269.445 73.9773C269.092 74.1288 268.662 74.2045 268.155 74.2045ZM268.359 73C268.89 73 269.337 72.8958 269.7 72.6875C270.068 72.4792 270.344 72.2102 270.53 71.8807C270.719 71.5511 270.814 71.2045 270.814 70.8409V69.6136C270.757 69.6818 270.632 69.7443 270.439 69.8011C270.25 69.8542 270.03 69.9015 269.78 69.9432C269.534 69.9811 269.293 70.0152 269.058 70.0455C268.827 70.072 268.64 70.0947 268.496 70.1136C268.147 70.1591 267.821 70.233 267.518 70.3352C267.219 70.4337 266.977 70.5833 266.791 70.7841C266.609 70.9811 266.518 71.25 266.518 71.5909C266.518 72.0568 266.691 72.4091 267.036 72.6477C267.384 72.8826 267.825 73 268.359 73ZM274.602 74V65.2727H275.943V74H274.602ZM275.284 63.8182C275.023 63.8182 274.797 63.7292 274.608 63.5511C274.422 63.3731 274.33 63.1591 274.33 62.9091C274.33 62.6591 274.422 62.4451 274.608 62.267C274.797 62.089 275.023 62 275.284 62C275.545 62 275.769 62.089 275.955 62.267C276.144 62.4451 276.239 62.6591 276.239 62.9091C276.239 63.1591 276.144 63.3731 275.955 63.5511C275.769 63.7292 275.545 63.8182 275.284 63.8182ZM279.74 68.75V74H278.399V65.2727H279.695V66.6364H279.808C280.013 66.1932 280.323 65.8371 280.74 65.5682C281.157 65.2955 281.695 65.1591 282.354 65.1591C282.945 65.1591 283.462 65.2803 283.905 65.5227C284.348 65.7614 284.693 66.125 284.939 66.6136C285.185 67.0985 285.308 67.7121 285.308 68.4545V74H283.967V68.5455C283.967 67.8598 283.789 67.3258 283.433 66.9432C283.077 66.5568 282.589 66.3636 281.967 66.3636C281.539 66.3636 281.157 66.4564 280.82 66.642C280.486 66.8277 280.223 67.0985 280.03 67.4545C279.837 67.8106 279.74 68.2424 279.74 68.75ZM291.418 74.1818C290.577 74.1818 289.851 73.9962 289.241 73.625C288.635 73.25 288.168 72.7273 287.838 72.0568C287.512 71.3826 287.349 70.5985 287.349 69.7045C287.349 68.8106 287.512 68.0227 287.838 67.3409C288.168 66.6553 288.626 66.1212 289.213 65.7386C289.804 65.3523 290.493 65.1591 291.281 65.1591C291.736 65.1591 292.185 65.2348 292.628 65.3864C293.071 65.5379 293.474 65.7841 293.838 66.125C294.202 66.4621 294.491 66.9091 294.707 67.4659C294.923 68.0227 295.031 68.7083 295.031 69.5227V70.0909H288.304V68.9318H293.668C293.668 68.4394 293.569 68 293.372 67.6136C293.179 67.2273 292.902 66.9223 292.543 66.6989C292.187 66.4754 291.766 66.3636 291.281 66.3636C290.747 66.3636 290.285 66.4962 289.895 66.7614C289.509 67.0227 289.211 67.3636 289.003 67.7841C288.795 68.2045 288.69 68.6553 288.69 69.1364V69.9091C288.69 70.5682 288.804 71.1269 289.031 71.5852C289.262 72.0398 289.582 72.3864 289.991 72.625C290.401 72.8598 290.876 72.9773 291.418 72.9773C291.77 72.9773 292.088 72.928 292.372 72.8295C292.66 72.7273 292.908 72.5758 293.116 72.375C293.325 72.1705 293.486 71.9167 293.599 71.6136L294.895 71.9773C294.759 72.4167 294.529 72.803 294.207 73.1364C293.885 73.4659 293.488 73.7235 293.014 73.9091C292.541 74.0909 292.009 74.1818 291.418 74.1818ZM305.366 65.2727V66.4091H300.844V65.2727H305.366ZM302.162 63.1818H303.503V71.5C303.503 71.8788 303.558 72.1629 303.668 72.3523C303.781 72.5379 303.925 72.6629 304.099 72.7273C304.277 72.7879 304.465 72.8182 304.662 72.8182C304.81 72.8182 304.931 72.8106 305.026 72.7955C305.12 72.7765 305.196 72.7614 305.253 72.75L305.526 73.9545C305.435 73.9886 305.308 74.0227 305.145 74.0568C304.982 74.0947 304.776 74.1136 304.526 74.1136C304.147 74.1136 303.776 74.0322 303.412 73.8693C303.052 73.7064 302.753 73.4583 302.514 73.125C302.279 72.7917 302.162 72.3712 302.162 71.8636V63.1818ZM309.952 74.2045C309.399 74.2045 308.897 74.1004 308.446 73.892C307.995 73.6799 307.637 73.375 307.372 72.9773C307.107 72.5758 306.974 72.0909 306.974 71.5227C306.974 71.0227 307.073 70.6174 307.27 70.3068C307.467 69.9924 307.73 69.7462 308.06 69.5682C308.389 69.3902 308.753 69.2576 309.151 69.1705C309.552 69.0795 309.955 69.0076 310.361 68.9545C310.891 68.8864 311.321 68.8352 311.651 68.8011C311.984 68.7633 312.226 68.7008 312.378 68.6136C312.533 68.5265 312.611 68.375 312.611 68.1591V68.1136C312.611 67.553 312.457 67.1174 312.151 66.8068C311.848 66.4962 311.387 66.3409 310.77 66.3409C310.13 66.3409 309.628 66.4811 309.264 66.7614C308.901 67.0417 308.645 67.3409 308.497 67.6591L307.224 67.2045C307.452 66.6742 307.755 66.2614 308.134 65.9659C308.516 65.6667 308.933 65.4583 309.384 65.3409C309.838 65.2197 310.285 65.1591 310.724 65.1591C311.005 65.1591 311.327 65.1932 311.69 65.2614C312.058 65.3258 312.412 65.4602 312.753 65.6648C313.098 65.8693 313.384 66.178 313.611 66.5909C313.838 67.0038 313.952 67.5568 313.952 68.25V74H312.611V72.8182H312.543C312.452 73.0076 312.3 73.2102 312.088 73.4261C311.876 73.642 311.594 73.8258 311.241 73.9773C310.889 74.1288 310.459 74.2045 309.952 74.2045ZM310.156 73C310.687 73 311.134 72.8958 311.497 72.6875C311.865 72.4792 312.141 72.2102 312.327 71.8807C312.516 71.5511 312.611 71.2045 312.611 70.8409V69.6136C312.554 69.6818 312.429 69.7443 312.236 69.8011C312.046 69.8542 311.827 69.9015 311.577 69.9432C311.33 69.9811 311.09 70.0152 310.855 70.0455C310.624 70.072 310.437 70.0947 310.293 70.1136C309.944 70.1591 309.618 70.233 309.315 70.3352C309.016 70.4337 308.774 70.5833 308.588 70.7841C308.406 70.9811 308.315 71.25 308.315 71.5909C308.315 72.0568 308.488 72.4091 308.832 72.6477C309.181 72.8826 309.622 73 310.156 73ZM317.649 70.8182L317.626 69.1591H317.899L321.717 65.2727H323.376L319.308 69.3864H319.195L317.649 70.8182ZM316.399 74V62.3636H317.74V74H316.399ZM321.945 74L318.536 69.6818L319.49 68.75L323.649 74H321.945ZM328.402 74.1818C327.561 74.1818 326.836 73.9962 326.226 73.625C325.62 73.25 325.152 72.7273 324.822 72.0568C324.497 71.3826 324.334 70.5985 324.334 69.7045C324.334 68.8106 324.497 68.0227 324.822 67.3409C325.152 66.6553 325.61 66.1212 326.197 65.7386C326.788 65.3523 327.478 65.1591 328.266 65.1591C328.72 65.1591 329.169 65.2348 329.612 65.3864C330.055 65.5379 330.459 65.7841 330.822 66.125C331.186 66.4621 331.476 66.9091 331.692 67.4659C331.908 68.0227 332.016 68.7083 332.016 69.5227V70.0909H325.288V68.9318H330.652C330.652 68.4394 330.554 68 330.357 67.6136C330.163 67.2273 329.887 66.9223 329.527 66.6989C329.171 66.4754 328.75 66.3636 328.266 66.3636C327.732 66.3636 327.269 66.4962 326.879 66.7614C326.493 67.0227 326.196 67.3636 325.987 67.7841C325.779 68.2045 325.675 68.6553 325.675 69.1364V69.9091C325.675 70.5682 325.788 71.1269 326.016 71.5852C326.247 72.0398 326.567 72.3864 326.976 72.625C327.385 72.8598 327.86 72.9773 328.402 72.9773C328.754 72.9773 329.072 72.928 329.357 72.8295C329.644 72.7273 329.893 72.5758 330.101 72.375C330.309 72.1705 330.47 71.9167 330.584 71.6136L331.879 71.9773C331.743 72.4167 331.514 72.803 331.192 73.1364C330.87 73.4659 330.472 73.7235 329.999 73.9091C329.525 74.0909 328.993 74.1818 328.402 74.1818ZM340.237 67.2273L339.033 67.5682C338.957 67.3674 338.845 67.1723 338.697 66.983C338.554 66.7898 338.357 66.6307 338.107 66.5057C337.857 66.3807 337.536 66.3182 337.146 66.3182C336.612 66.3182 336.167 66.4413 335.811 66.6875C335.459 66.9299 335.283 67.2386 335.283 67.6136C335.283 67.947 335.404 68.2102 335.646 68.4034C335.889 68.5966 336.268 68.7576 336.783 68.8864L338.078 69.2045C338.858 69.3939 339.44 69.6837 339.822 70.0739C340.205 70.4602 340.396 70.9583 340.396 71.5682C340.396 72.0682 340.252 72.5152 339.964 72.9091C339.68 73.303 339.283 73.6136 338.771 73.8409C338.26 74.0682 337.665 74.1818 336.987 74.1818C336.097 74.1818 335.36 73.9886 334.777 73.6023C334.194 73.2159 333.824 72.6515 333.669 71.9091L334.942 71.5909C335.063 72.0606 335.292 72.4129 335.629 72.6477C335.97 72.8826 336.415 73 336.964 73C337.589 73 338.086 72.8674 338.453 72.6023C338.824 72.3333 339.01 72.0114 339.01 71.6364C339.01 71.3333 338.904 71.0795 338.692 70.875C338.48 70.6667 338.154 70.5114 337.714 70.4091L336.26 70.0682C335.461 69.8788 334.874 69.5852 334.499 69.1875C334.127 68.786 333.942 68.2841 333.942 67.6818C333.942 67.1894 334.08 66.7538 334.357 66.375C334.637 65.9962 335.018 65.6989 335.499 65.483C335.983 65.267 336.533 65.1591 337.146 65.1591C338.01 65.1591 338.688 65.3485 339.18 65.7273C339.677 66.1061 340.029 66.6061 340.237 67.2273ZM348.256 62.3636V74H346.915V62.3636H348.256ZM350.712 74V65.2727H352.053V74H350.712ZM351.393 63.8182C351.132 63.8182 350.907 63.7292 350.717 63.5511C350.532 63.3731 350.439 63.1591 350.439 62.9091C350.439 62.6591 350.532 62.4451 350.717 62.267C350.907 62.089 351.132 62 351.393 62C351.655 62 351.878 62.089 352.064 62.267C352.253 62.4451 352.348 62.6591 352.348 62.9091C352.348 63.1591 352.253 63.3731 352.064 63.5511C351.878 63.7292 351.655 63.8182 351.393 63.8182ZM361.645 65.2727L358.418 74H357.054L353.827 65.2727H355.281L357.69 72.2273H357.781L360.19 65.2727H361.645ZM366.761 74.1818C365.92 74.1818 365.195 73.9962 364.585 73.625C363.979 73.25 363.511 72.7273 363.182 72.0568C362.856 71.3826 362.693 70.5985 362.693 69.7045C362.693 68.8106 362.856 68.0227 363.182 67.3409C363.511 66.6553 363.97 66.1212 364.557 65.7386C365.148 65.3523 365.837 65.1591 366.625 65.1591C367.08 65.1591 367.528 65.2348 367.972 65.3864C368.415 65.5379 368.818 65.7841 369.182 66.125C369.545 66.4621 369.835 66.9091 370.051 67.4659C370.267 68.0227 370.375 68.7083 370.375 69.5227V70.0909H363.648V68.9318H369.011C369.011 68.4394 368.913 68 368.716 67.6136C368.523 67.2273 368.246 66.9223 367.886 66.6989C367.53 66.4754 367.11 66.3636 366.625 66.3636C366.091 66.3636 365.629 66.4962 365.239 66.7614C364.852 67.0227 364.555 67.3636 364.347 67.7841C364.138 68.2045 364.034 68.6553 364.034 69.1364V69.9091C364.034 70.5682 364.148 71.1269 364.375 71.5852C364.606 72.0398 364.926 72.3864 365.335 72.625C365.744 72.8598 366.22 72.9773 366.761 72.9773C367.114 72.9773 367.432 72.928 367.716 72.8295C368.004 72.7273 368.252 72.5758 368.46 72.375C368.669 72.1705 368.83 71.9167 368.943 71.6136L370.239 71.9773C370.102 72.4167 369.873 72.803 369.551 73.1364C369.229 73.4659 368.831 73.7235 368.358 73.9091C367.884 74.0909 367.352 74.1818 366.761 74.1818ZM378.597 67.2273L377.392 67.5682C377.316 67.3674 377.205 67.1723 377.057 66.983C376.913 66.7898 376.716 66.6307 376.466 66.5057C376.216 66.3807 375.896 66.3182 375.506 66.3182C374.972 66.3182 374.527 66.4413 374.17 66.6875C373.818 66.9299 373.642 67.2386 373.642 67.6136C373.642 67.947 373.763 68.2102 374.006 68.4034C374.248 68.5966 374.627 68.7576 375.142 68.8864L376.438 69.2045C377.218 69.3939 377.799 69.6837 378.182 70.0739C378.564 70.4602 378.756 70.9583 378.756 71.5682C378.756 72.0682 378.612 72.5152 378.324 72.9091C378.04 73.303 377.642 73.6136 377.131 73.8409C376.619 74.0682 376.025 74.1818 375.347 74.1818C374.456 74.1818 373.72 73.9886 373.136 73.6023C372.553 73.2159 372.184 72.6515 372.028 71.9091L373.301 71.5909C373.422 72.0606 373.652 72.4129 373.989 72.6477C374.33 72.8826 374.775 73 375.324 73C375.949 73 376.445 72.8674 376.812 72.6023C377.184 72.3333 377.369 72.0114 377.369 71.6364C377.369 71.3333 377.263 71.0795 377.051 70.875C376.839 70.6667 376.513 70.5114 376.074 70.4091L374.619 70.0682C373.82 69.8788 373.233 69.5852 372.858 69.1875C372.487 68.786 372.301 68.2841 372.301 67.6818C372.301 67.1894 372.439 66.7538 372.716 66.375C372.996 65.9962 373.377 65.6989 373.858 65.483C374.343 65.267 374.892 65.1591 375.506 65.1591C376.369 65.1591 377.047 65.3485 377.54 65.7273C378.036 66.1061 378.388 66.6061 378.597 67.2273ZM388.933 74.1818C388.092 74.1818 387.367 73.9962 386.757 73.625C386.151 73.25 385.683 72.7273 385.354 72.0568C385.028 71.3826 384.865 70.5985 384.865 69.7045C384.865 68.8106 385.028 68.0227 385.354 67.3409C385.683 66.6553 386.142 66.1212 386.729 65.7386C387.32 65.3523 388.009 65.1591 388.797 65.1591C389.251 65.1591 389.7 65.2348 390.143 65.3864C390.587 65.5379 390.99 65.7841 391.354 66.125C391.717 66.4621 392.007 66.9091 392.223 67.4659C392.439 68.0227 392.547 68.7083 392.547 69.5227V70.0909H385.82V68.9318H391.183C391.183 68.4394 391.085 68 390.888 67.6136C390.695 67.2273 390.418 66.9223 390.058 66.6989C389.702 66.4754 389.282 66.3636 388.797 66.3636C388.263 66.3636 387.801 66.4962 387.411 66.7614C387.024 67.0227 386.727 67.3636 386.518 67.7841C386.31 68.2045 386.206 68.6553 386.206 69.1364V69.9091C386.206 70.5682 386.32 71.1269 386.547 71.5852C386.778 72.0398 387.098 72.3864 387.507 72.625C387.916 72.8598 388.392 72.9773 388.933 72.9773C389.286 72.9773 389.604 72.928 389.888 72.8295C390.176 72.7273 390.424 72.5758 390.632 72.375C390.84 72.1705 391.001 71.9167 391.115 71.6136L392.411 71.9773C392.274 72.4167 392.045 72.803 391.723 73.1364C391.401 73.4659 391.003 73.7235 390.53 73.9091C390.056 74.0909 389.524 74.1818 388.933 74.1818ZM401.457 65.2727L398.23 74H396.866L393.639 65.2727H395.094L397.503 72.2273H397.594L400.003 65.2727H401.457ZM406.574 74.1818C405.733 74.1818 405.008 73.9962 404.398 73.625C403.792 73.25 403.324 72.7273 402.994 72.0568C402.669 71.3826 402.506 70.5985 402.506 69.7045C402.506 68.8106 402.669 68.0227 402.994 67.3409C403.324 66.6553 403.782 66.1212 404.369 65.7386C404.96 65.3523 405.65 65.1591 406.438 65.1591C406.892 65.1591 407.341 65.2348 407.784 65.3864C408.227 65.5379 408.631 65.7841 408.994 66.125C409.358 66.4621 409.648 66.9091 409.864 67.4659C410.08 68.0227 410.188 68.7083 410.188 69.5227V70.0909H403.46V68.9318H408.824C408.824 68.4394 408.725 68 408.528 67.6136C408.335 67.2273 408.059 66.9223 407.699 66.6989C407.343 66.4754 406.922 66.3636 406.438 66.3636C405.903 66.3636 405.441 66.4962 405.051 66.7614C404.665 67.0227 404.367 67.3636 404.159 67.7841C403.951 68.2045 403.847 68.6553 403.847 69.1364V69.9091C403.847 70.5682 403.96 71.1269 404.188 71.5852C404.419 72.0398 404.739 72.3864 405.148 72.625C405.557 72.8598 406.032 72.9773 406.574 72.9773C406.926 72.9773 407.244 72.928 407.528 72.8295C407.816 72.7273 408.064 72.5758 408.273 72.375C408.481 72.1705 408.642 71.9167 408.756 71.6136L410.051 71.9773C409.915 72.4167 409.686 72.803 409.364 73.1364C409.042 73.4659 408.644 73.7235 408.17 73.9091C407.697 74.0909 407.165 74.1818 406.574 74.1818ZM412.227 74V65.2727H413.523V66.5909H413.614C413.773 66.1591 414.061 65.8087 414.477 65.5398C414.894 65.2708 415.364 65.1364 415.886 65.1364C415.985 65.1364 416.108 65.1383 416.256 65.142C416.403 65.1458 416.515 65.1515 416.591 65.1591V66.5227C416.545 66.5114 416.441 66.4943 416.278 66.4716C416.119 66.4451 415.951 66.4318 415.773 66.4318C415.348 66.4318 414.97 66.5208 414.636 66.6989C414.307 66.8731 414.045 67.1155 413.852 67.4261C413.663 67.733 413.568 68.0833 413.568 68.4773V74H412.227ZM419.31 77.2727C419.082 77.2727 418.88 77.2538 418.702 77.2159C418.524 77.1818 418.401 77.1477 418.332 77.1136L418.673 75.9318C418.999 76.0152 419.287 76.0455 419.537 76.0227C419.787 76 420.009 75.8883 420.202 75.6875C420.399 75.4905 420.579 75.1705 420.741 74.7273L420.991 74.0455L417.764 65.2727H419.219L421.628 72.2273H421.719L424.128 65.2727H425.582L421.878 75.2727C421.711 75.7235 421.505 76.0966 421.259 76.392C421.012 76.6913 420.726 76.9129 420.401 77.0568C420.079 77.2008 419.715 77.2727 419.31 77.2727ZM435.148 74.1818C434.42 74.1818 433.778 73.9981 433.222 73.6307C432.665 73.2595 432.229 72.7367 431.915 72.0625C431.6 71.3845 431.443 70.5833 431.443 69.6591C431.443 68.7424 431.6 67.947 431.915 67.2727C432.229 66.5985 432.667 66.0777 433.227 65.7102C433.788 65.3428 434.436 65.1591 435.17 65.1591C435.739 65.1591 436.188 65.2538 436.517 65.4432C436.85 65.6288 437.104 65.8409 437.278 66.0795C437.456 66.3144 437.595 66.5076 437.693 66.6591H437.807V62.3636H439.148V74H437.852V72.6591H437.693C437.595 72.8182 437.455 73.0189 437.273 73.2614C437.091 73.5 436.831 73.714 436.494 73.9034C436.157 74.089 435.708 74.1818 435.148 74.1818ZM435.33 72.9773C435.867 72.9773 436.322 72.8371 436.693 72.5568C437.064 72.2727 437.347 71.8807 437.54 71.3807C437.733 70.8769 437.83 70.2955 437.83 69.6364C437.83 68.9848 437.735 68.4148 437.545 67.9261C437.356 67.4337 437.076 67.0511 436.705 66.7784C436.333 66.5019 435.875 66.3636 435.33 66.3636C434.761 66.3636 434.288 66.5095 433.909 66.8011C433.534 67.089 433.252 67.4811 433.062 67.9773C432.877 68.4697 432.784 69.0227 432.784 69.6364C432.784 70.2576 432.879 70.822 433.068 71.3295C433.261 71.8333 433.545 72.2348 433.92 72.5341C434.299 72.8295 434.769 72.9773 435.33 72.9773ZM444.358 74.2045C443.805 74.2045 443.303 74.1004 442.852 73.892C442.402 73.6799 442.044 73.375 441.778 72.9773C441.513 72.5758 441.381 72.0909 441.381 71.5227C441.381 71.0227 441.479 70.6174 441.676 70.3068C441.873 69.9924 442.136 69.7462 442.466 69.5682C442.795 69.3902 443.159 69.2576 443.557 69.1705C443.958 69.0795 444.362 69.0076 444.767 68.9545C445.297 68.8864 445.727 68.8352 446.057 68.8011C446.39 68.7633 446.633 68.7008 446.784 68.6136C446.939 68.5265 447.017 68.375 447.017 68.1591V68.1136C447.017 67.553 446.864 67.1174 446.557 66.8068C446.254 66.4962 445.794 66.3409 445.176 66.3409C444.536 66.3409 444.034 66.4811 443.67 66.7614C443.307 67.0417 443.051 67.3409 442.903 67.6591L441.631 67.2045C441.858 66.6742 442.161 66.2614 442.54 65.9659C442.922 65.6667 443.339 65.4583 443.79 65.3409C444.244 65.2197 444.691 65.1591 445.131 65.1591C445.411 65.1591 445.733 65.1932 446.097 65.2614C446.464 65.3258 446.818 65.4602 447.159 65.6648C447.504 65.8693 447.79 66.178 448.017 66.5909C448.244 67.0038 448.358 67.5568 448.358 68.25V74H447.017V72.8182H446.949C446.858 73.0076 446.706 73.2102 446.494 73.4261C446.282 73.642 446 73.8258 445.648 73.9773C445.295 74.1288 444.866 74.2045 444.358 74.2045ZM444.562 73C445.093 73 445.54 72.8958 445.903 72.6875C446.271 72.4792 446.547 72.2102 446.733 71.8807C446.922 71.5511 447.017 71.2045 447.017 70.8409V69.6136C446.96 69.6818 446.835 69.7443 446.642 69.8011C446.453 69.8542 446.233 69.9015 445.983 69.9432C445.737 69.9811 445.496 70.0152 445.261 70.0455C445.03 70.072 444.843 70.0947 444.699 70.1136C444.35 70.1591 444.025 70.233 443.722 70.3352C443.422 70.4337 443.18 70.5833 442.994 70.7841C442.813 70.9811 442.722 71.25 442.722 71.5909C442.722 72.0568 442.894 72.4091 443.239 72.6477C443.587 72.8826 444.028 73 444.562 73ZM451.357 77.2727C451.129 77.2727 450.927 77.2538 450.749 77.2159C450.571 77.1818 450.447 77.1477 450.379 77.1136L450.72 75.9318C451.046 76.0152 451.334 76.0455 451.584 76.0227C451.834 76 452.055 75.8883 452.249 75.6875C452.446 75.4905 452.625 75.1705 452.788 74.7273L453.038 74.0455L449.811 65.2727H451.266L453.675 72.2273H453.766L456.175 65.2727H457.629L453.925 75.2727C453.758 75.7235 453.552 76.0966 453.305 76.392C453.059 76.6913 452.773 76.9129 452.447 77.0568C452.125 77.2008 451.762 77.2727 451.357 77.2727ZM459.83 74.0909C459.549 74.0909 459.309 73.9905 459.108 73.7898C458.907 73.589 458.807 73.3485 458.807 73.0682C458.807 72.7879 458.907 72.5473 459.108 72.3466C459.309 72.1458 459.549 72.0455 459.83 72.0455C460.11 72.0455 460.35 72.1458 460.551 72.3466C460.752 72.5473 460.852 72.7879 460.852 73.0682C460.852 73.2538 460.805 73.4242 460.71 73.5795C460.619 73.7348 460.496 73.8598 460.341 73.9545C460.189 74.0455 460.019 74.0909 459.83 74.0909ZM23.4091 98V86.3636H24.8182V91.5455H31.0227V86.3636H32.4318V98H31.0227V92.7955H24.8182V98H23.4091ZM38.7301 98.1818C37.8892 98.1818 37.1638 97.9962 36.554 97.625C35.9479 97.25 35.4801 96.7273 35.1506 96.0568C34.8248 95.3826 34.6619 94.5985 34.6619 93.7045C34.6619 92.8106 34.8248 92.0227 35.1506 91.3409C35.4801 90.6553 35.9384 90.1212 36.5256 89.7386C37.1165 89.3523 37.8059 89.1591 38.5938 89.1591C39.0483 89.1591 39.4972 89.2348 39.9403 89.3864C40.3835 89.5379 40.7869 89.7841 41.1506 90.125C41.5142 90.4621 41.804 90.9091 42.0199 91.4659C42.2358 92.0227 42.3438 92.7083 42.3438 93.5227V94.0909H35.6165V92.9318H40.9801C40.9801 92.4394 40.8816 92 40.6847 91.6136C40.4915 91.2273 40.215 90.9223 39.8551 90.6989C39.4991 90.4754 39.0786 90.3636 38.5938 90.3636C38.0597 90.3636 37.5975 90.4962 37.2074 90.7614C36.821 91.0227 36.5237 91.3636 36.3153 91.7841C36.107 92.2045 36.0028 92.6553 36.0028 93.1364V93.9091C36.0028 94.5682 36.1165 95.1269 36.3438 95.5852C36.5748 96.0398 36.8949 96.3864 37.304 96.625C37.7131 96.8598 38.1884 96.9773 38.7301 96.9773C39.0824 96.9773 39.4006 96.928 39.6847 96.8295C39.9725 96.7273 40.2206 96.5758 40.429 96.375C40.6373 96.1705 40.7983 95.9167 40.9119 95.6136L42.2074 95.9773C42.071 96.4167 41.8419 96.803 41.5199 97.1364C41.1979 97.4659 40.8002 97.7235 40.3267 97.9091C39.8532 98.0909 39.321 98.1818 38.7301 98.1818ZM45.7244 86.3636V98H44.3835V86.3636H45.7244ZM48.1804 101.273V89.2727H49.4759V90.6591H49.6349C49.7334 90.5076 49.8698 90.3144 50.044 90.0795C50.2221 89.8409 50.4759 89.6288 50.8054 89.4432C51.1387 89.2538 51.5895 89.1591 52.1577 89.1591C52.8925 89.1591 53.5402 89.3428 54.1009 89.7102C54.6615 90.0777 55.099 90.5985 55.4134 91.2727C55.7277 91.947 55.8849 92.7424 55.8849 93.6591C55.8849 94.5833 55.7277 95.3845 55.4134 96.0625C55.099 96.7367 54.6634 97.2595 54.1065 97.6307C53.5497 97.9981 52.9077 98.1818 52.1804 98.1818C51.6198 98.1818 51.1709 98.089 50.8338 97.9034C50.4967 97.714 50.2372 97.5 50.0554 97.2614C49.8736 97.0189 49.7334 96.8182 49.6349 96.6591H49.5213V101.273H48.1804ZM49.4986 93.6364C49.4986 94.2955 49.5952 94.8769 49.7884 95.3807C49.9815 95.8807 50.2637 96.2727 50.6349 96.5568C51.0062 96.8371 51.4607 96.9773 51.9986 96.9773C52.5592 96.9773 53.027 96.8295 53.402 96.5341C53.7808 96.2348 54.0649 95.8333 54.2543 95.3295C54.4474 94.822 54.544 94.2576 54.544 93.6364C54.544 93.0227 54.4493 92.4697 54.2599 91.9773C54.0743 91.4811 53.7921 91.089 53.4134 90.8011C53.0384 90.5095 52.5668 90.3636 51.9986 90.3636C51.4531 90.3636 50.9948 90.5019 50.6236 90.7784C50.2524 91.0511 49.9721 91.4337 49.7827 91.9261C49.5933 92.4148 49.4986 92.9848 49.4986 93.6364ZM67.9304 94.4318V89.2727H69.2713V98H67.9304V96.5227H67.8395C67.6349 96.9659 67.3168 97.3428 66.8849 97.6534C66.4531 97.9602 65.9077 98.1136 65.2486 98.1136C64.7031 98.1136 64.2183 97.9943 63.794 97.7557C63.3698 97.5133 63.0365 97.1496 62.794 96.6648C62.5516 96.1761 62.4304 95.5606 62.4304 94.8182V89.2727H63.7713V94.7273C63.7713 95.3636 63.9493 95.8712 64.3054 96.25C64.6652 96.6288 65.1236 96.8182 65.6804 96.8182C66.0137 96.8182 66.3527 96.733 66.6974 96.5625C67.0459 96.392 67.3376 96.1307 67.5724 95.7784C67.8111 95.4261 67.9304 94.9773 67.9304 94.4318ZM77.9091 91.2273L76.7045 91.5682C76.6288 91.3674 76.517 91.1723 76.3693 90.983C76.2254 90.7898 76.0284 90.6307 75.7784 90.5057C75.5284 90.3807 75.2083 90.3182 74.8182 90.3182C74.2841 90.3182 73.839 90.4413 73.483 90.6875C73.1307 90.9299 72.9545 91.2386 72.9545 91.6136C72.9545 91.947 73.0758 92.2102 73.3182 92.4034C73.5606 92.5966 73.9394 92.7576 74.4545 92.8864L75.75 93.2045C76.5303 93.3939 77.1117 93.6837 77.4943 94.0739C77.8769 94.4602 78.0682 94.9583 78.0682 95.5682C78.0682 96.0682 77.9242 96.5152 77.6364 96.9091C77.3523 97.303 76.9545 97.6136 76.4432 97.8409C75.9318 98.0682 75.3371 98.1818 74.6591 98.1818C73.7689 98.1818 73.0322 97.9886 72.4489 97.6023C71.8655 97.2159 71.4962 96.6515 71.3409 95.9091L72.6136 95.5909C72.7348 96.0606 72.964 96.4129 73.3011 96.6477C73.642 96.8826 74.0871 97 74.6364 97C75.2614 97 75.7576 96.8674 76.125 96.6023C76.4962 96.3333 76.6818 96.0114 76.6818 95.6364C76.6818 95.3333 76.5758 95.0795 76.3636 94.875C76.1515 94.6667 75.8258 94.5114 75.3864 94.4091L73.9318 94.0682C73.1326 93.8788 72.5455 93.5852 72.1705 93.1875C71.7992 92.786 71.6136 92.2841 71.6136 91.6818C71.6136 91.1894 71.7519 90.7538 72.0284 90.375C72.3087 89.9962 72.6894 89.6989 73.1705 89.483C73.6553 89.267 74.2045 89.1591 74.8182 89.1591C75.6818 89.1591 76.3598 89.3485 76.8523 89.7273C77.3485 90.1061 77.7008 90.6061 77.9091 91.2273ZM90.7685 91.2273L89.5639 91.5682C89.4882 91.3674 89.3764 91.1723 89.2287 90.983C89.0848 90.7898 88.8878 90.6307 88.6378 90.5057C88.3878 90.3807 88.0677 90.3182 87.6776 90.3182C87.1435 90.3182 86.6984 90.4413 86.3423 90.6875C85.9901 90.9299 85.8139 91.2386 85.8139 91.6136C85.8139 91.947 85.9351 92.2102 86.1776 92.4034C86.42 92.5966 86.7988 92.7576 87.3139 92.8864L88.6094 93.2045C89.3897 93.3939 89.9711 93.6837 90.3537 94.0739C90.7363 94.4602 90.9276 94.9583 90.9276 95.5682C90.9276 96.0682 90.7836 96.5152 90.4957 96.9091C90.2116 97.303 89.8139 97.6136 89.3026 97.8409C88.7912 98.0682 88.1965 98.1818 87.5185 98.1818C86.6283 98.1818 85.8916 97.9886 85.3082 97.6023C84.7249 97.2159 84.3556 96.6515 84.2003 95.9091L85.473 95.5909C85.5942 96.0606 85.8234 96.4129 86.1605 96.6477C86.5014 96.8826 86.9465 97 87.4957 97C88.1207 97 88.617 96.8674 88.9844 96.6023C89.3556 96.3333 89.5412 96.0114 89.5412 95.6364C89.5412 95.3333 89.4351 95.0795 89.223 94.875C89.0109 94.6667 88.6851 94.5114 88.2457 94.4091L86.7912 94.0682C85.992 93.8788 85.4048 93.5852 85.0298 93.1875C84.6586 92.786 84.473 92.2841 84.473 91.6818C84.473 91.1894 84.6113 90.7538 84.8878 90.375C85.1681 89.9962 85.5488 89.6989 86.0298 89.483C86.5147 89.267 87.0639 89.1591 87.6776 89.1591C88.5412 89.1591 89.2192 89.3485 89.7116 89.7273C90.2079 90.1061 90.5601 90.6061 90.7685 91.2273ZM96.7415 89.2727V90.4091H92.2188V89.2727H96.7415ZM93.5369 87.1818H94.8778V95.5C94.8778 95.8788 94.9328 96.1629 95.0426 96.3523C95.1563 96.5379 95.3002 96.6629 95.4744 96.7273C95.6525 96.7879 95.84 96.8182 96.0369 96.8182C96.1847 96.8182 96.3059 96.8106 96.4006 96.7955C96.4953 96.7765 96.571 96.7614 96.6278 96.75L96.9006 97.9545C96.8097 97.9886 96.6828 98.0227 96.5199 98.0568C96.357 98.0947 96.1506 98.1136 95.9006 98.1136C95.5218 98.1136 95.1506 98.0322 94.7869 97.8693C94.4271 97.7064 94.1278 97.4583 93.8892 97.125C93.6544 96.7917 93.5369 96.3712 93.5369 95.8636V87.1818ZM102.21 98.1818C101.422 98.1818 100.731 97.9943 100.136 97.6193C99.5455 97.2443 99.0833 96.7197 98.75 96.0455C98.4205 95.3712 98.2557 94.5833 98.2557 93.6818C98.2557 92.7727 98.4205 91.9792 98.75 91.3011C99.0833 90.6231 99.5455 90.0966 100.136 89.7216C100.731 89.3466 101.422 89.1591 102.21 89.1591C102.998 89.1591 103.688 89.3466 104.278 89.7216C104.873 90.0966 105.335 90.6231 105.665 91.3011C105.998 91.9792 106.165 92.7727 106.165 93.6818C106.165 94.5833 105.998 95.3712 105.665 96.0455C105.335 96.7197 104.873 97.2443 104.278 97.6193C103.688 97.9943 102.998 98.1818 102.21 98.1818ZM102.21 96.9773C102.809 96.9773 103.301 96.8239 103.688 96.517C104.074 96.2102 104.36 95.8068 104.545 95.3068C104.731 94.8068 104.824 94.2652 104.824 93.6818C104.824 93.0985 104.731 92.5549 104.545 92.0511C104.36 91.5473 104.074 91.1402 103.688 90.8295C103.301 90.5189 102.809 90.3636 102.21 90.3636C101.612 90.3636 101.119 90.5189 100.733 90.8295C100.347 91.1402 100.061 91.5473 99.875 92.0511C99.6894 92.5549 99.5966 93.0985 99.5966 93.6818C99.5966 94.2652 99.6894 94.8068 99.875 95.3068C100.061 95.8068 100.347 96.2102 100.733 96.517C101.119 96.8239 101.612 96.9773 102.21 96.9773ZM108.212 101.273V89.2727H109.507V90.6591H109.666C109.765 90.5076 109.901 90.3144 110.075 90.0795C110.253 89.8409 110.507 89.6288 110.837 89.4432C111.17 89.2538 111.621 89.1591 112.189 89.1591C112.924 89.1591 113.571 89.3428 114.132 89.7102C114.693 90.0777 115.13 90.5985 115.445 91.2727C115.759 91.947 115.916 92.7424 115.916 93.6591C115.916 94.5833 115.759 95.3845 115.445 96.0625C115.13 96.7367 114.695 97.2595 114.138 97.6307C113.581 97.9981 112.939 98.1818 112.212 98.1818C111.651 98.1818 111.202 98.089 110.865 97.9034C110.528 97.714 110.268 97.5 110.087 97.2614C109.905 97.0189 109.765 96.8182 109.666 96.6591H109.553V101.273H108.212ZM109.53 93.6364C109.53 94.2955 109.626 94.8769 109.82 95.3807C110.013 95.8807 110.295 96.2727 110.666 96.5568C111.037 96.8371 111.492 96.9773 112.03 96.9773C112.59 96.9773 113.058 96.8295 113.433 96.5341C113.812 96.2348 114.096 95.8333 114.286 95.3295C114.479 94.822 114.575 94.2576 114.575 93.6364C114.575 93.0227 114.481 92.4697 114.291 91.9773C114.106 91.4811 113.823 91.089 113.445 90.8011C113.07 90.5095 112.598 90.3636 112.03 90.3636C111.484 90.3636 111.026 90.5019 110.655 90.7784C110.284 91.0511 110.003 91.4337 109.814 91.9261C109.625 92.4148 109.53 92.9848 109.53 93.6364ZM126.257 89.2727V90.4091H121.734V89.2727H126.257ZM123.053 87.1818H124.393V95.5C124.393 95.8788 124.448 96.1629 124.558 96.3523C124.672 96.5379 124.816 96.6629 124.99 96.7273C125.168 96.7879 125.356 96.8182 125.553 96.8182C125.7 96.8182 125.821 96.8106 125.916 96.7955C126.011 96.7765 126.087 96.7614 126.143 96.75L126.416 97.9545C126.325 97.9886 126.198 98.0227 126.036 98.0568C125.873 98.0947 125.666 98.1136 125.416 98.1136C125.037 98.1136 124.666 98.0322 124.303 97.8693C123.943 97.7064 123.643 97.4583 123.405 97.125C123.17 96.7917 123.053 96.3712 123.053 95.8636V87.1818ZM129.803 92.75V98H128.462V86.3636H129.803V90.6364H129.916C130.121 90.1856 130.428 89.8277 130.837 89.5625C131.25 89.2936 131.799 89.1591 132.484 89.1591C133.079 89.1591 133.6 89.2784 134.047 89.517C134.494 89.7519 134.84 90.1136 135.087 90.6023C135.337 91.0871 135.462 91.7045 135.462 92.4545V98H134.121V92.5455C134.121 91.8523 133.941 91.3163 133.581 90.9375C133.225 90.5549 132.731 90.3636 132.098 90.3636C131.659 90.3636 131.265 90.4564 130.916 90.642C130.571 90.8277 130.299 91.0985 130.098 91.4545C129.901 91.8106 129.803 92.2424 129.803 92.75ZM137.915 98V89.2727H139.256V98H137.915ZM138.597 87.8182C138.335 87.8182 138.11 87.7292 137.92 87.5511C137.735 87.3731 137.642 87.1591 137.642 86.9091C137.642 86.6591 137.735 86.4451 137.92 86.267C138.11 86.089 138.335 86 138.597 86C138.858 86 139.081 86.089 139.267 86.267C139.456 86.4451 139.551 86.6591 139.551 86.9091C139.551 87.1591 139.456 87.3731 139.267 87.5511C139.081 87.7292 138.858 87.8182 138.597 87.8182ZM147.893 91.2273L146.689 91.5682C146.613 91.3674 146.501 91.1723 146.354 90.983C146.21 90.7898 146.013 90.6307 145.763 90.5057C145.513 90.3807 145.193 90.3182 144.803 90.3182C144.268 90.3182 143.823 90.4413 143.467 90.6875C143.115 90.9299 142.939 91.2386 142.939 91.6136C142.939 91.947 143.06 92.2102 143.303 92.4034C143.545 92.5966 143.924 92.7576 144.439 92.8864L145.734 93.2045C146.515 93.3939 147.096 93.6837 147.479 94.0739C147.861 94.4602 148.053 94.9583 148.053 95.5682C148.053 96.0682 147.909 96.5152 147.621 96.9091C147.337 97.303 146.939 97.6136 146.428 97.8409C145.916 98.0682 145.321 98.1818 144.643 98.1818C143.753 98.1818 143.017 97.9886 142.433 97.6023C141.85 97.2159 141.481 96.6515 141.325 95.9091L142.598 95.5909C142.719 96.0606 142.948 96.4129 143.286 96.6477C143.626 96.8826 144.071 97 144.621 97C145.246 97 145.742 96.8674 146.109 96.6023C146.481 96.3333 146.666 96.0114 146.666 95.6364C146.666 95.3333 146.56 95.0795 146.348 94.875C146.136 94.6667 145.81 94.5114 145.371 94.4091L143.916 94.0682C143.117 93.8788 142.53 93.5852 142.155 93.1875C141.784 92.786 141.598 92.2841 141.598 91.6818C141.598 91.1894 141.736 90.7538 142.013 90.375C142.293 89.9962 142.674 89.6989 143.155 89.483C143.64 89.267 144.189 89.1591 144.803 89.1591C145.666 89.1591 146.344 89.3485 146.837 89.7273C147.333 90.1061 147.685 90.6061 147.893 91.2273ZM151.048 98.0909C150.768 98.0909 150.527 97.9905 150.327 97.7898C150.126 97.589 150.026 97.3485 150.026 97.0682C150.026 96.7879 150.126 96.5473 150.327 96.3466C150.527 96.1458 150.768 96.0455 151.048 96.0455C151.329 96.0455 151.569 96.1458 151.77 96.3466C151.971 96.5473 152.071 96.7879 152.071 97.0682C152.071 97.2538 152.024 97.4242 151.929 97.5795C151.838 97.7348 151.715 97.8598 151.56 97.9545C151.408 98.0455 151.238 98.0909 151.048 98.0909ZM159.159 98V86.3636H160.568V91.5455H166.773V86.3636H168.182V98H166.773V92.7955H160.568V98H159.159ZM174.48 98.1818C173.639 98.1818 172.914 97.9962 172.304 97.625C171.698 97.25 171.23 96.7273 170.901 96.0568C170.575 95.3826 170.412 94.5985 170.412 93.7045C170.412 92.8106 170.575 92.0227 170.901 91.3409C171.23 90.6553 171.688 90.1212 172.276 89.7386C172.866 89.3523 173.556 89.1591 174.344 89.1591C174.798 89.1591 175.247 89.2348 175.69 89.3864C176.134 89.5379 176.537 89.7841 176.901 90.125C177.264 90.4621 177.554 90.9091 177.77 91.4659C177.986 92.0227 178.094 92.7083 178.094 93.5227V94.0909H171.366V92.9318H176.73C176.73 92.4394 176.632 92 176.435 91.6136C176.241 91.2273 175.965 90.9223 175.605 90.6989C175.249 90.4754 174.829 90.3636 174.344 90.3636C173.81 90.3636 173.348 90.4962 172.957 90.7614C172.571 91.0227 172.274 91.3636 172.065 91.7841C171.857 92.2045 171.753 92.6553 171.753 93.1364V93.9091C171.753 94.5682 171.866 95.1269 172.094 95.5852C172.325 96.0398 172.645 96.3864 173.054 96.625C173.463 96.8598 173.938 96.9773 174.48 96.9773C174.832 96.9773 175.151 96.928 175.435 96.8295C175.723 96.7273 175.971 96.5758 176.179 96.375C176.387 96.1705 176.548 95.9167 176.662 95.6136L177.957 95.9773C177.821 96.4167 177.592 96.803 177.27 97.1364C176.948 97.4659 176.55 97.7235 176.077 97.9091C175.603 98.0909 175.071 98.1818 174.48 98.1818ZM181.474 86.3636V98H180.134V86.3636H181.474ZM183.93 101.273V89.2727H185.226V90.6591H185.385C185.483 90.5076 185.62 90.3144 185.794 90.0795C185.972 89.8409 186.226 89.6288 186.555 89.4432C186.889 89.2538 187.339 89.1591 187.908 89.1591C188.643 89.1591 189.29 89.3428 189.851 89.7102C190.411 90.0777 190.849 90.5985 191.163 91.2727C191.478 91.947 191.635 92.7424 191.635 93.6591C191.635 94.5833 191.478 95.3845 191.163 96.0625C190.849 96.7367 190.413 97.2595 189.857 97.6307C189.3 97.9981 188.658 98.1818 187.93 98.1818C187.37 98.1818 186.921 98.089 186.584 97.9034C186.247 97.714 185.987 97.5 185.805 97.2614C185.624 97.0189 185.483 96.8182 185.385 96.6591H185.271V101.273H183.93ZM185.249 93.6364C185.249 94.2955 185.345 94.8769 185.538 95.3807C185.732 95.8807 186.014 96.2727 186.385 96.5568C186.756 96.8371 187.211 96.9773 187.749 96.9773C188.309 96.9773 188.777 96.8295 189.152 96.5341C189.531 96.2348 189.815 95.8333 190.004 95.3295C190.197 94.822 190.294 94.2576 190.294 93.6364C190.294 93.0227 190.199 92.4697 190.01 91.9773C189.824 91.4811 189.542 91.089 189.163 90.8011C188.788 90.5095 188.317 90.3636 187.749 90.3636C187.203 90.3636 186.745 90.5019 186.374 90.7784C186.002 91.0511 185.722 91.4337 185.533 91.9261C185.343 92.4148 185.249 92.9848 185.249 93.6364ZM203.68 94.4318V89.2727H205.021V98H203.68V96.5227H203.589C203.385 96.9659 203.067 97.3428 202.635 97.6534C202.203 97.9602 201.658 98.1136 200.999 98.1136C200.453 98.1136 199.968 97.9943 199.544 97.7557C199.12 97.5133 198.786 97.1496 198.544 96.6648C198.302 96.1761 198.18 95.5606 198.18 94.8182V89.2727H199.521V94.7273C199.521 95.3636 199.699 95.8712 200.055 96.25C200.415 96.6288 200.874 96.8182 201.43 96.8182C201.764 96.8182 202.103 96.733 202.447 96.5625C202.796 96.392 203.088 96.1307 203.322 95.7784C203.561 95.4261 203.68 94.9773 203.68 94.4318ZM213.659 91.2273L212.455 91.5682C212.379 91.3674 212.267 91.1723 212.119 90.983C211.975 90.7898 211.778 90.6307 211.528 90.5057C211.278 90.3807 210.958 90.3182 210.568 90.3182C210.034 90.3182 209.589 90.4413 209.233 90.6875C208.881 90.9299 208.705 91.2386 208.705 91.6136C208.705 91.947 208.826 92.2102 209.068 92.4034C209.311 92.5966 209.689 92.7576 210.205 92.8864L211.5 93.2045C212.28 93.3939 212.862 93.6837 213.244 94.0739C213.627 94.4602 213.818 94.9583 213.818 95.5682C213.818 96.0682 213.674 96.5152 213.386 96.9091C213.102 97.303 212.705 97.6136 212.193 97.8409C211.682 98.0682 211.087 98.1818 210.409 98.1818C209.519 98.1818 208.782 97.9886 208.199 97.6023C207.616 97.2159 207.246 96.6515 207.091 95.9091L208.364 95.5909C208.485 96.0606 208.714 96.4129 209.051 96.6477C209.392 96.8826 209.837 97 210.386 97C211.011 97 211.508 96.8674 211.875 96.6023C212.246 96.3333 212.432 96.0114 212.432 95.6364C212.432 95.3333 212.326 95.0795 212.114 94.875C211.902 94.6667 211.576 94.5114 211.136 94.4091L209.682 94.0682C208.883 93.8788 208.295 93.5852 207.92 93.1875C207.549 92.786 207.364 92.2841 207.364 91.6818C207.364 91.1894 207.502 90.7538 207.778 90.375C208.059 89.9962 208.439 89.6989 208.92 89.483C209.405 89.267 209.955 89.1591 210.568 89.1591C211.432 89.1591 212.11 89.3485 212.602 89.7273C213.098 90.1061 213.451 90.6061 213.659 91.2273ZM222.314 98L219.655 89.2727H221.064L222.95 95.9545H223.041L224.905 89.2727H226.337L228.178 95.9318H228.268L230.155 89.2727H231.564L228.905 98H227.587L225.678 91.2955H225.541L223.632 98H222.314ZM233.337 98V89.2727H234.678V98H233.337ZM234.018 87.8182C233.757 87.8182 233.532 87.7292 233.342 87.5511C233.157 87.3731 233.064 87.1591 233.064 86.9091C233.064 86.6591 233.157 86.4451 233.342 86.267C233.532 86.089 233.757 86 234.018 86C234.28 86 234.503 86.089 234.689 86.267C234.878 86.4451 234.973 86.6591 234.973 86.9091C234.973 87.1591 234.878 87.3731 234.689 87.5511C234.503 87.7292 234.28 87.8182 234.018 87.8182ZM238.474 92.75V98H237.134V89.2727H238.429V90.6364H238.543C238.747 90.1932 239.058 89.8371 239.474 89.5682C239.891 89.2955 240.429 89.1591 241.088 89.1591C241.679 89.1591 242.196 89.2803 242.639 89.5227C243.082 89.7614 243.427 90.125 243.673 90.6136C243.92 91.0985 244.043 91.7121 244.043 92.4545V98H242.702V92.5455C242.702 91.8598 242.524 91.3258 242.168 90.9432C241.812 90.5568 241.323 90.3636 240.702 90.3636C240.274 90.3636 239.891 90.4564 239.554 90.642C239.221 90.8277 238.957 91.0985 238.764 91.4545C238.571 91.8106 238.474 92.2424 238.474 92.75ZM247.47 98.0909C247.19 98.0909 246.949 97.9905 246.749 97.7898C246.548 97.589 246.447 97.3485 246.447 97.0682C246.447 96.7879 246.548 96.5473 246.749 96.3466C246.949 96.1458 247.19 96.0455 247.47 96.0455C247.75 96.0455 247.991 96.1458 248.192 96.3466C248.393 96.5473 248.493 96.7879 248.493 97.0682C248.493 97.2538 248.446 97.4242 248.351 97.5795C248.26 97.7348 248.137 97.8598 247.982 97.9545C247.83 98.0455 247.66 98.0909 247.47 98.0909ZM259.172 98H255.581V86.3636H259.331C260.46 86.3636 261.426 86.5966 262.229 87.0625C263.032 87.5246 263.647 88.1894 264.075 89.0568C264.503 89.9205 264.717 90.9545 264.717 92.1591C264.717 93.3712 264.501 94.4148 264.07 95.2898C263.638 96.161 263.009 96.8314 262.183 97.3011C261.357 97.767 260.354 98 259.172 98ZM256.99 96.75H259.081C260.043 96.75 260.84 96.5644 261.473 96.1932C262.106 95.822 262.577 95.2936 262.888 94.608C263.198 93.9223 263.354 93.1061 263.354 92.1591C263.354 91.2197 263.2 90.411 262.893 89.733C262.587 89.0511 262.128 88.5284 261.518 88.1648C260.909 87.7973 260.149 87.6136 259.24 87.6136H256.99V96.75ZM270.445 98.1818C269.657 98.1818 268.965 97.9943 268.371 97.6193C267.78 97.2443 267.318 96.7197 266.984 96.0455C266.655 95.3712 266.49 94.5833 266.49 93.6818C266.49 92.7727 266.655 91.9792 266.984 91.3011C267.318 90.6231 267.78 90.0966 268.371 89.7216C268.965 89.3466 269.657 89.1591 270.445 89.1591C271.232 89.1591 271.922 89.3466 272.513 89.7216C273.107 90.0966 273.57 90.6231 273.899 91.3011C274.232 91.9792 274.399 92.7727 274.399 93.6818C274.399 94.5833 274.232 95.3712 273.899 96.0455C273.57 96.7197 273.107 97.2443 272.513 97.6193C271.922 97.9943 271.232 98.1818 270.445 98.1818ZM270.445 96.9773C271.043 96.9773 271.536 96.8239 271.922 96.517C272.308 96.2102 272.594 95.8068 272.78 95.3068C272.965 94.8068 273.058 94.2652 273.058 93.6818C273.058 93.0985 272.965 92.5549 272.78 92.0511C272.594 91.5473 272.308 91.1402 271.922 90.8295C271.536 90.5189 271.043 90.3636 270.445 90.3636C269.846 90.3636 269.354 90.5189 268.967 90.8295C268.581 91.1402 268.295 91.5473 268.109 92.0511C267.924 92.5549 267.831 93.0985 267.831 93.6818C267.831 94.2652 267.924 94.8068 268.109 95.3068C268.295 95.8068 268.581 96.2102 268.967 96.517C269.354 96.8239 269.846 96.9773 270.445 96.9773ZM277.787 92.75V98H276.446V89.2727H277.741V90.6364H277.855C278.06 90.1932 278.37 89.8371 278.787 89.5682C279.204 89.2955 279.741 89.1591 280.401 89.1591C280.991 89.1591 281.509 89.2803 281.952 89.5227C282.395 89.7614 282.74 90.125 282.986 90.6136C283.232 91.0985 283.355 91.7121 283.355 92.4545V98H282.014V92.5455C282.014 91.8598 281.836 91.3258 281.48 90.9432C281.124 90.5568 280.635 90.3636 280.014 90.3636C279.586 90.3636 279.204 90.4564 278.866 90.642C278.533 90.8277 278.27 91.0985 278.077 91.4545C277.884 91.8106 277.787 92.2424 277.787 92.75ZM288.374 98.2045C287.821 98.2045 287.319 98.1004 286.868 97.892C286.417 97.6799 286.059 97.375 285.794 96.9773C285.529 96.5758 285.396 96.0909 285.396 95.5227C285.396 95.0227 285.495 94.6174 285.692 94.3068C285.889 93.9924 286.152 93.7462 286.482 93.5682C286.811 93.3902 287.175 93.2576 287.572 93.1705C287.974 93.0795 288.377 93.0076 288.783 92.9545C289.313 92.8864 289.743 92.8352 290.072 92.8011C290.406 92.7633 290.648 92.7008 290.8 92.6136C290.955 92.5265 291.033 92.375 291.033 92.1591V92.1136C291.033 91.553 290.879 91.1174 290.572 90.8068C290.269 90.4962 289.809 90.3409 289.192 90.3409C288.552 90.3409 288.05 90.4811 287.686 90.7614C287.322 91.0417 287.067 91.3409 286.919 91.6591L285.646 91.2045C285.874 90.6742 286.177 90.2614 286.555 89.9659C286.938 89.6667 287.355 89.4583 287.805 89.3409C288.26 89.2197 288.707 89.1591 289.146 89.1591C289.427 89.1591 289.749 89.1932 290.112 89.2614C290.48 89.3258 290.834 89.4602 291.175 89.6648C291.519 89.8693 291.805 90.178 292.033 90.5909C292.26 91.0038 292.374 91.5568 292.374 92.25V98H291.033V96.8182H290.964C290.874 97.0076 290.722 97.2102 290.51 97.4261C290.298 97.642 290.016 97.8258 289.663 97.9773C289.311 98.1288 288.881 98.2045 288.374 98.2045ZM288.578 97C289.108 97 289.555 96.8958 289.919 96.6875C290.286 96.4792 290.563 96.2102 290.749 95.8807C290.938 95.5511 291.033 95.2045 291.033 94.8409V93.6136C290.976 93.6818 290.851 93.7443 290.658 93.8011C290.468 93.8542 290.249 93.9015 289.999 93.9432C289.752 93.9811 289.512 94.0152 289.277 94.0455C289.046 94.072 288.858 94.0947 288.714 94.1136C288.366 94.1591 288.04 94.233 287.737 94.3352C287.438 94.4337 287.196 94.5833 287.01 94.7841C286.828 94.9811 286.737 95.25 286.737 95.5909C286.737 96.0568 286.91 96.4091 287.254 96.6477C287.603 96.8826 288.044 97 288.578 97ZM298.616 89.2727V90.4091H294.094V89.2727H298.616ZM295.412 87.1818H296.753V95.5C296.753 95.8788 296.808 96.1629 296.918 96.3523C297.031 96.5379 297.175 96.6629 297.349 96.7273C297.527 96.7879 297.715 96.8182 297.912 96.8182C298.06 96.8182 298.181 96.8106 298.276 96.7955C298.37 96.7765 298.446 96.7614 298.503 96.75L298.776 97.9545C298.685 97.9886 298.558 98.0227 298.395 98.0568C298.232 98.0947 298.026 98.1136 297.776 98.1136C297.397 98.1136 297.026 98.0322 296.662 97.8693C296.302 97.7064 296.003 97.4583 295.764 97.125C295.529 96.7917 295.412 96.3712 295.412 95.8636V87.1818ZM304.199 98.1818C303.358 98.1818 302.633 97.9962 302.023 97.625C301.417 97.25 300.949 96.7273 300.619 96.0568C300.294 95.3826 300.131 94.5985 300.131 93.7045C300.131 92.8106 300.294 92.0227 300.619 91.3409C300.949 90.6553 301.407 90.1212 301.994 89.7386C302.585 89.3523 303.275 89.1591 304.062 89.1591C304.517 89.1591 304.966 89.2348 305.409 89.3864C305.852 89.5379 306.256 89.7841 306.619 90.125C306.983 90.4621 307.273 90.9091 307.489 91.4659C307.705 92.0227 307.812 92.7083 307.812 93.5227V94.0909H301.085V92.9318H306.449C306.449 92.4394 306.35 92 306.153 91.6136C305.96 91.2273 305.684 90.9223 305.324 90.6989C304.968 90.4754 304.547 90.3636 304.062 90.3636C303.528 90.3636 303.066 90.4962 302.676 90.7614C302.29 91.0227 301.992 91.3636 301.784 91.7841C301.576 92.2045 301.472 92.6553 301.472 93.1364V93.9091C301.472 94.5682 301.585 95.1269 301.812 95.5852C302.044 96.0398 302.364 96.3864 302.773 96.625C303.182 96.8598 303.657 96.9773 304.199 96.9773C304.551 96.9773 304.869 96.928 305.153 96.8295C305.441 96.7273 305.689 96.5758 305.898 96.375C306.106 96.1705 306.267 95.9167 306.381 95.6136L307.676 95.9773C307.54 96.4167 307.311 96.803 306.989 97.1364C306.667 97.4659 306.269 97.7235 305.795 97.9091C305.322 98.0909 304.79 98.1818 304.199 98.1818ZM310.83 98.0909C310.549 98.0909 310.309 97.9905 310.108 97.7898C309.907 97.589 309.807 97.3485 309.807 97.0682C309.807 96.7879 309.907 96.5473 310.108 96.3466C310.309 96.1458 310.549 96.0455 310.83 96.0455C311.11 96.0455 311.35 96.1458 311.551 96.3466C311.752 96.5473 311.852 96.7879 311.852 97.0682C311.852 97.2538 311.805 97.4242 311.71 97.5795C311.619 97.7348 311.496 97.8598 311.341 97.9545C311.189 98.0455 311.019 98.0909 310.83 98.0909Z" fill="#374151"/>
<path fill-rule="evenodd" clip-rule="evenodd" d="M516.73 58.0666C516.73 58.0666 509.412 50.2843 513.142 47.7427C515.29 46.2791 516.691 48.1519 516.691 48.1519C516.691 48.1519 518.092 46.2712 520.24 47.7427C523.97 50.2922 516.722 58.0666 516.722 58.0666H516.73ZM516.659 49.5919C516.518 49.3873 516.117 48.9623 515.912 48.805C515.707 48.6476 514.873 47.9945 513.779 48.7341C513.449 48.9623 513.292 49.222 513.252 49.6155C513.244 49.6863 513.237 49.765 513.237 49.8358C513.237 51.5512 515.101 54.3446 516.715 56.2725C518.304 54.3525 520.137 51.5748 520.137 49.8594C520.137 49.7807 520.137 49.702 520.13 49.6233C520.082 49.222 519.925 48.9545 519.595 48.7263C518.501 47.9866 517.903 48.443 517.533 48.7263C517.045 49.1119 516.825 49.3716 516.659 49.5761" fill="black"/>
<path d="M528.565 40.5039H504.958V64.1105H528.565V40.5039Z" stroke="black" stroke-width="0.882353" stroke-miterlimit="10"/>
<path d="M618.577 40.4797H528.455V64.0705H618.577V40.4797Z" stroke="black" stroke-width="0.854118" stroke-miterlimit="10"/>
<path d="M580.413 64.0945H528.494V87.5673H580.413V64.0945Z" stroke="black" stroke-width="0.790588" stroke-miterlimit="10"/>
<path d="M541.612 54.1327H543.311V55.9111C543.311 57.6265 541.785 58.2403 540.479 58.2403C539.172 58.2403 537.63 57.6265 537.63 55.9111V48.955C537.63 47.2239 539.157 46.6101 540.479 46.6101C541.8 46.6101 543.311 47.2239 543.311 48.955V50.7334H541.612V48.955C541.612 48.3098 540.998 48.0737 540.479 48.0737C539.959 48.0737 539.33 48.294 539.33 48.955V55.9111C539.33 56.5563 539.959 56.7924 540.479 56.7924C540.998 56.7924 541.612 56.5563 541.612 55.9111V54.1327Z" fill="black"/>
<path d="M545.869 48.955C545.869 47.2239 547.395 46.6101 548.717 46.6101C550.039 46.6101 551.55 47.2239 551.55 48.955V55.9111C551.55 57.6265 550.023 58.2403 548.717 58.2403C547.411 58.2403 545.869 57.6265 545.869 55.9111V48.955ZM549.85 48.955C549.85 48.3098 549.237 48.0737 548.717 48.0737C548.198 48.0737 547.568 48.294 547.568 48.955V55.9111C547.568 56.5563 548.198 56.7924 548.717 56.7924C549.237 56.7924 549.85 56.5563 549.85 55.9111V48.955Z" fill="black"/>
<path d="M560.544 58.0671V50.3714L558.278 54.8724L556.027 50.3714V58.0671H554.328V46.799H555.886L558.278 51.6147L560.686 46.799H562.212V58.0671H560.544Z" fill="black"/>
<path d="M570.12 58.0671H565.131V46.799H570.12V48.2626H566.831V51.5203H569.554V52.9839H566.831V56.5878H570.12V58.0671Z" fill="black"/>
<path d="M576.856 58.0671V46.799H579.972C581.404 46.799 582.459 47.6803 582.459 49.0179V50.4029C582.459 51.0796 582.113 51.6776 581.499 52.1813C582.38 52.6219 582.789 53.2357 582.789 54.1327V55.5176C582.789 56.8868 581.892 58.0671 580.208 58.0671H576.856ZM580.759 49.1911C580.759 48.7189 580.523 48.2468 579.831 48.2468H578.556V51.5203H579.831C580.523 51.5203 580.759 51.0324 580.759 50.576V49.1911ZM581.09 54.1169C581.09 53.5189 580.728 52.9839 579.909 52.9839H578.556V56.6193H579.909C580.743 56.6193 581.09 56.0999 581.09 55.5019V54.1169Z" fill="black"/>
<path d="M590.131 58.0671L589.596 55.6278H586.936L586.417 58.0671H584.796V57.7839L587.424 46.799H589.123L591.752 57.7839V58.0671H590.131ZM588.258 49.5216L587.267 54.1484H589.265L588.258 49.5216Z" fill="black"/>
<path d="M597.905 54.1327H599.605V55.9111C599.605 57.6265 598.078 58.2403 596.773 58.2403C595.466 58.2403 593.924 57.6265 593.924 55.9111V48.955C593.924 47.2239 595.45 46.6101 596.773 46.6101C598.095 46.6101 599.605 47.2239 599.605 48.955V50.7334H597.905V48.955C597.905 48.3098 597.291 48.0737 596.773 48.0737C596.253 48.0737 595.623 48.294 595.623 48.955V55.9111C595.623 56.5563 596.253 56.7924 596.773 56.7924C597.291 56.7924 597.905 56.5563 597.905 55.9111V54.1327Z" fill="black"/>
<path d="M606.774 58.0671L604.586 53.3144L603.988 54.3216V58.0671H602.288V46.799H603.988V51.2684L606.632 46.799H608.316V47.0822L605.499 51.7721L608.442 57.7839V58.0671H606.774Z" fill="black"/>
<path d="M542.438 81.6577L541.903 79.2183H539.243L538.724 81.6577H537.103V81.3744L539.731 70.3895H541.43L544.059 81.3744V81.6577H542.438ZM540.565 73.1121L539.573 77.739H541.572L540.565 73.1121Z" fill="black"/>
<path d="M546.506 81.6577V70.3895H548.206V80.1784H551.495V81.6577H546.506Z" fill="black"/>
<path d="M555.618 70.3895H553.919V81.6577H555.618V70.3895Z" fill="black"/>
<path d="M562.291 81.6577H560.733L558.042 70.6728V70.3895H559.6L561.504 78.7934L563.44 70.3895H564.998V70.6728L562.291 81.6577Z" fill="black"/>
<path d="M572.434 81.6577H567.445V70.3895H572.434V71.8531H569.145V75.1108H571.867V76.5744H569.145V80.1784H572.434V81.6577Z" fill="black"/>
<rect x="4" y="4" width="636" height="120" rx="6" stroke="#111827" stroke-width="4"/>
</g>
<defs>
<filter id="filter0_d_119_32" x="0" y="0" width="644" height="128" filterUnits="userSpaceOnUse" color-interpolation-filters="sRGB">
<feFlood flood-opacity="0" result="BackgroundImageFix"/>
<feColorMatrix in="SourceAlpha" type="matrix" values="0 0 0 0 0 0 0 0 0 0 0 0 0 0 0 0 0 0 127 0" result="hardAlpha"/>
<feMorphology radius="2" operator="dilate" in="SourceAlpha" result="effect1_dropShadow_119_32"/>
<feOffset/>
<feComposite in2="hardAlpha" operator="out"/>
<feColorMatrix type="matrix" values="0 0 0 0 1 0 0 0 0 1 0 0 0 0 1 0 0 0 1 0"/>
<feBlend mode="normal" in2="BackgroundImageFix" result="effect1_dropShadow_119_32"/>
<feBlend mode="normal" in="SourceGraphic" in2="effect1_dropShadow_119_32" result="shape"/>
</filter>
</defs>
</svg>
