<svg viewBox="0 0 640 124" fill="none" xmlns="http://www.w3.org/2000/svg"><rect x="2" y="2" width="636" height="120" rx="6" fill="#fff"/><path d="M21.738 38h2.948v-6.556h12.496V38h2.948V22.402h-2.948v6.556H24.686v-6.556h-2.948V38Zm30.475.44c4.752 0 7.634-1.76 8.426-4.708h-3.014c-.572 1.496-2.486 2.376-5.324 2.376-3.454 0-5.566-1.232-6.006-3.542h14.542c0-5.324-3.322-8.008-8.778-8.008-5.412 0-8.91 2.596-8.91 6.952s3.432 6.93 9.064 6.93ZM46.34 30.3c.528-2.332 2.574-3.432 5.742-3.432 3.146 0 5.082 1.056 5.61 3.432H46.34ZM63.72 38h2.904V20.4h-2.905V38Zm6.402 5.368h2.904v-8.14c1.342 2.024 3.85 3.212 6.974 3.212 4.84 0 7.964-2.75 7.964-6.952s-3.124-6.93-7.964-6.93c-3.124 0-5.632 1.188-6.974 3.19v-2.75H70.12v18.37Zm2.904-11.88c0-2.64 2.288-4.356 6.05-4.356 3.52 0 5.698 1.716 5.698 4.356 0 2.662-2.178 4.378-5.698 4.378-3.762 0-6.05-1.716-6.05-4.378Zm35.96 6.952c6.754 0 9.086-3.278 9.086-8.052v-7.986h-2.948V30.3c0 2.816-1.144 5.632-6.138 5.632-5.016 0-6.16-2.794-6.16-5.632v-7.898h-2.948v7.986c0 4.774 2.332 8.052 9.108 8.052Zm12.29-.44h2.904v-3.388l4.4-3.058L134.453 38h3.564l-7.348-7.898 7.348-5.104h-4.422l-9.416 6.512V20.4h-2.904V38Zm19.379 0h2.904v-8.14c2.2-2.332 4.202-2.75 5.764-2.75 1.188 0 2.2.132 3.542.55v-2.53c-.99-.352-2.046-.572-3.432-.572-2.178 0-4.07.704-5.874 2.992v-2.552h-2.904V38Zm28.395-7.832v.33c-2.42-.638-4.796-.99-6.908-.99-4.664 0-7.282 1.584-7.282 4.576 0 2.816 2.178 4.378 6.182 4.378 2.728 0 5.588-.748 8.008-2.046V38h3.058v-7.414c0-4.246-2.288-6.028-7.656-6.028-2.596 0-5.522.418-8.536 1.21l.44 2.706c3.102-.814 5.434-1.342 7.678-1.342 3.278 0 5.016.616 5.016 3.036Zm-11 3.718c0-1.606 1.32-2.2 4.18-2.2 2.376 0 3.872.242 6.82.968v1.716c-2.64 1.254-5.148 1.958-7.282 1.958-2.442 0-3.718-.836-3.718-2.442ZM175.459 38h2.904V24.998h-2.904V38Zm0-14.982h2.904V20.4h-2.904v2.618ZM181.818 38h3.08v-5.478c0-3.388 2.53-5.39 6.204-5.39 3.542 0 5.038 1.452 5.038 5.28V38h3.08v-6.622c0-5.126-2.552-6.82-6.732-6.82-3.344 0-5.918 1.166-7.59 3.256v-2.816h-3.08V38Zm29.186.44c4.752 0 7.634-1.76 8.426-4.708h-3.014c-.572 1.496-2.486 2.376-5.324 2.376-3.454 0-5.566-1.232-6.006-3.542h14.542c0-5.324-3.322-8.008-8.778-8.008-5.412 0-8.91 2.596-8.91 6.952s3.432 6.93 9.064 6.93Zm-5.874-8.14c.528-2.332 2.574-3.432 5.742-3.432 3.146 0 5.082 1.056 5.61 3.432H205.13Zm31.906 7.7h3.982l5.192-10.516L251.402 38h3.982l5.962-13.002h-3.168l-4.818 10.824-5.28-10.824h-3.74l-5.28 10.846-4.818-10.846h-3.168L237.036 38Zm26.702 0h2.904V24.998h-2.904V38Zm0-14.982h2.904V20.4h-2.904v2.618ZM270.097 38h3.08v-5.478c0-3.388 2.53-5.39 6.204-5.39 3.542 0 5.038 1.452 5.038 5.28V38h3.08v-6.622c0-5.126-2.552-6.82-6.732-6.82-3.344 0-5.918 1.166-7.59 3.256v-2.816h-3.08V38Z" fill="#111827"/><path d="M21.41 72V60.364h3.93c.91 0 1.656.155 2.24.466.583.306 1.015.729 1.295 1.267.28.538.42 1.15.42 1.835s-.14 1.293-.42 1.824c-.28.53-.71.947-1.29 1.25-.58.299-1.32.448-2.221.448h-3.182v-1.272h3.136c.621 0 1.121-.091 1.5-.273.383-.182.66-.44.83-.773.174-.337.261-.738.261-1.204 0-.466-.087-.873-.261-1.222a1.782 1.782 0 0 0-.835-.807c-.383-.193-.889-.29-1.517-.29h-2.478V72H21.41Zm5.476-5.227L29.75 72h-1.636l-2.819-5.227h1.591Zm10.076 1.659v-5.16h1.34V72h-1.34v-1.477h-.091c-.205.443-.523.82-.955 1.13-.432.307-.977.46-1.636.46-.546 0-1.03-.119-1.455-.357-.424-.243-.757-.606-1-1.091-.242-.489-.363-1.104-.363-1.847v-5.545h1.34v5.454c0 .637.179 1.144.535 1.523.36.379.818.568 1.375.568.333 0 .672-.085 1.017-.255.348-.171.64-.432.875-.785.238-.352.358-.8.358-1.346Zm9.978-3.205-1.204.341a2.237 2.237 0 0 0-.335-.585 1.627 1.627 0 0 0-.591-.477c-.25-.125-.57-.188-.96-.188-.535 0-.98.123-1.336.37-.352.242-.528.55-.528.926 0 .333.121.596.363.79.243.193.622.354 1.137.482l1.295.319c.78.189 1.362.479 1.745.869.382.386.573.884.573 1.494 0 .5-.143.947-.431 1.341-.285.394-.682.705-1.194.932-.51.227-1.106.34-1.784.34-.89 0-1.627-.192-2.21-.579-.583-.386-.952-.95-1.108-1.693l1.273-.318c.121.47.35.822.687 1.057.341.235.786.352 1.336.352.625 0 1.12-.133 1.488-.398.372-.269.557-.59.557-.966 0-.303-.106-.556-.318-.761-.212-.208-.538-.364-.977-.466l-1.455-.34c-.8-.19-1.386-.484-1.761-.882-.371-.401-.557-.903-.557-1.505 0-.493.138-.928.415-1.307.28-.379.66-.676 1.142-.892.485-.216 1.034-.324 1.647-.324.864 0 1.542.19 2.035.568.496.38.848.88 1.056 1.5Zm8.36 0-1.205.341a2.235 2.235 0 0 0-.335-.585 1.626 1.626 0 0 0-.591-.477c-.25-.125-.57-.188-.96-.188-.534 0-.98.123-1.335.37-.353.242-.529.55-.529.926 0 .333.121.596.364.79.242.193.621.354 1.136.482l1.296.319c.78.189 1.361.479 1.744.869.383.386.574.884.574 1.494 0 .5-.144.947-.432 1.341-.284.394-.682.705-1.193.932-.512.227-1.106.34-1.784.34-.89 0-1.627-.192-2.21-.579-.584-.386-.953-.95-1.109-1.693l1.273-.318c.122.47.35.822.688 1.057.34.235.786.352 1.335.352.625 0 1.121-.133 1.489-.398.37-.269.556-.59.556-.966 0-.303-.106-.556-.318-.761-.212-.208-.538-.364-.977-.466l-1.455-.34c-.799-.19-1.386-.484-1.76-.882-.372-.401-.558-.903-.558-1.505 0-.493.139-.928.415-1.307.28-.379.661-.676 1.142-.892.485-.216 1.034-.324 1.648-.324.863 0 1.541.19 2.034.568.496.38.848.88 1.057 1.5ZM57.477 72v-8.727h1.341V72h-1.34Zm.682-10.182a.953.953 0 0 1-.676-.267.858.858 0 0 1-.278-.642c0-.25.092-.464.278-.642a.953.953 0 0 1 .676-.267c.261 0 .485.089.67.267a.85.85 0 0 1 .285.642.85.85 0 0 1-.284.642.933.933 0 0 1-.67.267Zm5.683 10.386a3.546 3.546 0 0 1-1.505-.312 2.584 2.584 0 0 1-1.074-.915c-.265-.401-.398-.886-.398-1.454 0-.5.099-.906.295-1.216.198-.315.46-.56.79-.739a4.15 4.15 0 0 1 1.091-.397c.402-.092.805-.163 1.21-.217.53-.068.96-.119 1.29-.153.334-.038.576-.1.728-.187.155-.088.232-.239.232-.455v-.045c0-.561-.153-.997-.46-1.307-.303-.31-.763-.466-1.38-.466-.64 0-1.142.14-1.506.42-.364.28-.62.58-.767.898l-1.273-.455c.227-.53.53-.943.91-1.238.382-.3.798-.508 1.25-.625a5.191 5.191 0 0 1 1.34-.182c.28 0 .602.034.966.102a3.09 3.09 0 0 1 1.063.404c.344.204.63.513.857.926.228.413.341.966.341 1.659V72h-1.34v-1.182h-.069a2.36 2.36 0 0 1-.454.608c-.212.216-.495.4-.847.551-.352.152-.782.227-1.29.227ZM64.047 71c.53 0 .977-.104 1.34-.313a2.127 2.127 0 0 0 1.114-1.846v-1.227c-.056.068-.181.13-.375.187-.189.053-.409.1-.659.142a29.81 29.81 0 0 1-1.284.17c-.348.046-.674.12-.977.222-.3.099-.542.248-.727.45-.182.196-.273.465-.273.806 0 .466.172.818.517 1.057.349.235.79.352 1.324.352Zm7.584-4.25V72H70.29v-8.727h1.295v1.363h.114c.204-.443.515-.799.932-1.068.416-.273.954-.409 1.613-.409.591 0 1.108.121 1.552.364.443.238.787.602 1.033 1.09.247.486.37 1.1.37 1.841V72h-1.341v-5.454c0-.686-.178-1.22-.534-1.603-.356-.386-.845-.58-1.466-.58-.428 0-.81.093-1.148.279a1.993 1.993 0 0 0-.79.813c-.193.356-.29.787-.29 1.295ZM84.33 72V60.364h1.34v4.295h.114c.099-.151.235-.345.41-.58.178-.238.431-.45.761-.636.333-.19.784-.284 1.352-.284.735 0 1.383.184 1.943.551.561.368.998.889 1.313 1.563.314.674.472 1.47.472 2.386 0 .924-.158 1.725-.472 2.403-.314.675-.75 1.198-1.307 1.569-.557.367-1.199.55-1.926.55-.56 0-1.01-.092-1.347-.278-.337-.189-.596-.403-.778-.642a8.595 8.595 0 0 1-.42-.602h-.16V72h-1.295Zm1.318-4.364c0 .66.097 1.24.29 1.745.193.5.475.892.847 1.176.37.28.825.42 1.363.42.56 0 1.029-.148 1.404-.443.378-.3.662-.7.852-1.205.193-.507.29-1.071.29-1.693 0-.613-.095-1.166-.284-1.659-.186-.496-.468-.888-.847-1.176-.375-.291-.847-.437-1.415-.437-.545 0-1.004.138-1.375.414-.371.273-.651.656-.84 1.148-.19.489-.285 1.059-.285 1.71Zm11.006 4.569a3.546 3.546 0 0 1-1.506-.313 2.584 2.584 0 0 1-1.074-.915c-.265-.401-.397-.886-.397-1.454 0-.5.098-.906.295-1.216.197-.315.46-.56.79-.739a4.15 4.15 0 0 1 1.09-.397c.402-.092.806-.163 1.21-.217.531-.068.961-.119 1.29-.153.334-.038.577-.1.728-.187.155-.088.233-.239.233-.455v-.045c0-.561-.153-.997-.46-1.307-.303-.31-.764-.466-1.381-.466-.64 0-1.142.14-1.506.42-.363.28-.619.58-.767.898l-1.272-.455c.227-.53.53-.943.909-1.238.382-.3.799-.508 1.25-.625a5.191 5.191 0 0 1 1.34-.182c.28 0 .603.034.966.102a3.09 3.09 0 0 1 1.063.404c.345.204.631.513.858.926.227.413.341.966.341 1.659V72h-1.341v-1.182h-.068a2.36 2.36 0 0 1-.455.608c-.212.216-.494.4-.846.551-.353.152-.783.227-1.29.227ZM96.859 71c.53 0 .978-.104 1.341-.313a2.127 2.127 0 0 0 1.114-1.846v-1.227c-.057.068-.182.13-.375.187-.19.053-.41.1-.66.142a29.81 29.81 0 0 1-1.283.17c-.349.046-.674.12-.977.222-.3.099-.542.248-.728.45-.182.196-.272.465-.272.806 0 .466.172.818.516 1.057.349.235.79.352 1.324.352Zm6.243 1v-8.727h1.296v1.318h.091c.159-.432.447-.782.863-1.051a2.544 2.544 0 0 1 1.409-.404c.099 0 .222.002.37.006.147.004.259.01.335.017v1.364a4.073 4.073 0 0 0-.313-.051 3.068 3.068 0 0 0-.505-.04c-.425 0-.803.089-1.137.267a2.016 2.016 0 0 0-.784.727 1.964 1.964 0 0 0-.284 1.051V72h-1.341Zm6.135 0V60.364h1.341v4.295h.114c.098-.151.235-.345.409-.58.178-.238.432-.45.761-.636.334-.19.784-.284 1.352-.284.735 0 1.383.184 1.944.551.56.368.998.889 1.312 1.563.315.674.472 1.47.472 2.386 0 .924-.157 1.725-.472 2.403-.314.675-.75 1.198-1.307 1.569-.556.367-1.199.55-1.926.55-.56 0-1.009-.092-1.346-.278-.337-.189-.597-.403-.779-.642a8.362 8.362 0 0 1-.42-.602h-.159V72h-1.296Zm1.318-4.364c0 .66.097 1.24.29 1.745.193.5.476.892.847 1.176.371.28.826.42 1.363.42.561 0 1.029-.148 1.404-.443.379-.3.663-.7.852-1.205a4.73 4.73 0 0 0 .29-1.693 4.6 4.6 0 0 0-.284-1.659c-.186-.496-.468-.888-.847-1.176-.375-.291-.846-.437-1.415-.437-.545 0-1.003.138-1.375.414-.371.273-.651.656-.841 1.148-.189.489-.284 1.059-.284 1.71Zm11.006 4.569a3.548 3.548 0 0 1-1.506-.313 2.585 2.585 0 0 1-1.073-.915c-.266-.401-.398-.886-.398-1.454 0-.5.098-.906.295-1.216.197-.315.46-.56.79-.739.33-.178.693-.31 1.091-.397.401-.092.805-.163 1.21-.217.53-.068.96-.119 1.29-.153.333-.038.576-.1.727-.187.156-.088.233-.239.233-.455v-.045c0-.561-.153-.997-.46-1.307-.303-.31-.763-.466-1.381-.466-.64 0-1.142.14-1.505.42-.364.28-.62.58-.767.898l-1.273-.455c.227-.53.53-.943.909-1.238.382-.3.799-.508 1.25-.625a5.184 5.184 0 0 1 1.341-.182c.28 0 .602.034.966.102.367.065.721.2 1.062.404.345.204.631.513.858.926.227.413.341.966.341 1.659V72h-1.341v-1.182h-.068c-.091.19-.242.392-.455.608-.212.216-.494.4-.846.551-.352.152-.782.227-1.29.227Zm.205-1.205c.53 0 .977-.104 1.341-.313a2.131 2.131 0 0 0 1.113-1.846v-1.227c-.057.068-.182.13-.375.187a6.29 6.29 0 0 1-.659.142 29.629 29.629 0 0 1-1.284.17c-.348.046-.674.12-.977.222-.3.099-.542.248-.728.45-.181.196-.272.465-.272.806 0 .466.172.818.517 1.057.348.235.79.352 1.324.352Zm6.243 1v-8.727h1.295v1.318h.091c.159-.432.447-.782.864-1.051a2.54 2.54 0 0 1 1.409-.404c.098 0 .221.002.369.006s.259.01.335.017v1.364a3.926 3.926 0 0 0-.312-.051 3.08 3.08 0 0 0-.506-.04c-.424 0-.803.089-1.136.267a1.956 1.956 0 0 0-1.069 1.778V72h-1.34Zm5.953 0v-8.727h1.341V72h-1.341Zm.681-10.182a.954.954 0 0 1-.676-.267.86.86 0 0 1-.278-.642.86.86 0 0 1 .278-.642.955.955 0 0 1 .676-.267c.262 0 .485.089.671.267a.851.851 0 0 1 .284.642c0 .25-.095.464-.284.642a.934.934 0 0 1-.671.267Zm6.661 10.364c-.818 0-1.523-.193-2.114-.58a3.774 3.774 0 0 1-1.363-1.596c-.318-.678-.478-1.453-.478-2.324 0-.886.163-1.669.489-2.347.33-.682.788-1.214 1.375-1.596.591-.387 1.28-.58 2.068-.58a3.91 3.91 0 0 1 1.659.341 3.18 3.18 0 0 1 1.211.954c.314.41.509.887.585 1.432h-1.341c-.102-.397-.33-.75-.682-1.056-.348-.311-.818-.466-1.409-.466-.523 0-.981.136-1.375.409-.39.269-.695.65-.915 1.142-.216.488-.324 1.062-.324 1.721 0 .675.106 1.262.319 1.762.215.5.518.888.909 1.165.394.276.856.414 1.386.414.348 0 .665-.06.949-.181.284-.122.524-.296.721-.523a2 2 0 0 0 .421-.819h1.341a3.101 3.101 0 0 1-1.739 2.37c-.485.239-1.049.358-1.693.358Zm9.892-.182v-8.727h1.341V72h-1.341Zm.682-10.182a.951.951 0 0 1-.676-.267.857.857 0 0 1-.279-.642c0-.25.093-.464.279-.642a.951.951 0 0 1 .676-.267c.261 0 .485.089.67.267.19.178.284.392.284.642s-.094.464-.284.642a.932.932 0 0 1-.67.267Zm4.456 4.932V72h-1.341v-8.727h1.295v1.363h.114c.205-.443.515-.799.932-1.068.416-.273.954-.409 1.613-.409.591 0 1.108.121 1.552.364.443.238.787.602 1.034 1.09.246.486.369 1.1.369 1.841V72h-1.341v-5.454c0-.686-.178-1.22-.534-1.603-.356-.386-.845-.58-1.466-.58a2.34 2.34 0 0 0-1.148.279 1.992 1.992 0 0 0-.789.813c-.194.356-.29.787-.29 1.295Zm14.842-3.477L167.949 72h-1.364l-3.227-8.727h1.454l2.41 6.954h.09l2.41-6.954h1.454Zm4.073 8.931a3.548 3.548 0 0 1-1.506-.312 2.582 2.582 0 0 1-1.074-.915c-.265-.401-.398-.886-.398-1.454 0-.5.099-.906.296-1.216.197-.315.46-.56.79-.739.329-.178.693-.31 1.09-.397.402-.092.805-.163 1.211-.217.53-.068.96-.119 1.289-.153.334-.038.576-.1.728-.187.155-.088.233-.239.233-.455v-.045c0-.561-.154-.997-.461-1.307-.303-.31-.763-.466-1.38-.466-.64 0-1.142.14-1.506.42-.364.28-.619.58-.767.898l-1.273-.455c.228-.53.531-.943.909-1.238.383-.3.8-.508 1.25-.625a5.196 5.196 0 0 1 1.341-.182 5.3 5.3 0 0 1 .966.102c.368.065.722.2 1.063.404.344.204.63.513.858.926.227.413.341.966.341 1.659V72h-1.341v-1.182h-.069c-.09.19-.242.392-.454.608-.212.216-.494.4-.847.551-.352.152-.782.227-1.289.227Zm.204-1.204c.53 0 .977-.104 1.341-.313.367-.208.644-.477.83-.806a2.06 2.06 0 0 0 .284-1.04v-1.227c-.057.068-.182.13-.375.187-.19.053-.409.1-.659.142a30.34 30.34 0 0 1-1.285.17c-.348.046-.674.12-.977.222a1.687 1.687 0 0 0-.727.45c-.182.196-.273.465-.273.806 0 .466.173.818.517 1.057.349.235.79.352 1.324.352Zm12.425-5.773-1.205.341a2.206 2.206 0 0 0-.335-.585 1.628 1.628 0 0 0-.591-.477c-.25-.125-.57-.188-.96-.188-.534 0-.979.123-1.335.37-.353.242-.529.55-.529.926 0 .333.122.596.364.79.242.193.621.354 1.136.482l1.296.319c.78.189 1.361.479 1.744.869.383.386.574.884.574 1.494 0 .5-.144.947-.432 1.341-.284.394-.682.705-1.193.932-.511.227-1.106.34-1.784.34-.89 0-1.627-.192-2.21-.579-.584-.386-.953-.95-1.108-1.693l1.272-.318c.122.47.351.822.688 1.057.341.235.786.352 1.335.352.625 0 1.121-.133 1.489-.398.371-.269.557-.59.557-.966 0-.303-.106-.556-.319-.761-.212-.208-.537-.364-.977-.466l-1.454-.34c-.8-.19-1.387-.484-1.762-.882-.371-.401-.557-.903-.557-1.505 0-.493.139-.928.415-1.307.28-.379.661-.676 1.142-.892.485-.216 1.034-.324 1.648-.324.864 0 1.542.19 2.034.568.496.38.849.88 1.057 1.5ZM190.055 72v-8.727h1.341V72h-1.341Zm.682-10.182a.953.953 0 0 1-.676-.267.856.856 0 0 1-.278-.642c0-.25.092-.464.278-.642a.953.953 0 0 1 .676-.267c.262 0 .485.089.671.267a.851.851 0 0 1 .284.642c0 .25-.095.464-.284.642a.934.934 0 0 1-.671.267Zm6.661 10.364c-.788 0-1.479-.188-2.074-.563-.591-.375-1.053-.9-1.386-1.573-.33-.675-.495-1.463-.495-2.364 0-.91.165-1.703.495-2.38.333-.679.795-1.205 1.386-1.58.595-.375 1.286-.563 2.074-.563.788 0 1.477.188 2.068.563.595.375 1.057.901 1.386 1.58.334.677.5 1.47.5 2.38 0 .901-.166 1.69-.5 2.364a3.763 3.763 0 0 1-1.386 1.573c-.591.375-1.28.563-2.068.563Zm0-1.205c.598 0 1.091-.153 1.477-.46.386-.307.672-.71.858-1.21.186-.5.278-1.042.278-1.625 0-.584-.092-1.127-.278-1.63a2.755 2.755 0 0 0-.858-1.223c-.386-.31-.879-.465-1.477-.465-.599 0-1.091.155-1.478.465-.386.311-.672.718-.858 1.222a4.695 4.695 0 0 0-.278 1.63c0 .584.093 1.126.278 1.626.186.5.472.903.858 1.21.387.307.879.46 1.478.46Zm7.342-4.227V72h-1.341v-8.727h1.296v1.363h.113c.205-.443.515-.799.932-1.068.417-.273.955-.409 1.614-.409.591 0 1.108.121 1.551.364a2.45 2.45 0 0 1 1.034 1.09c.246.486.369 1.1.369 1.841V72h-1.341v-5.454c0-.686-.178-1.22-.534-1.603-.356-.386-.844-.58-1.466-.58-.428 0-.81.093-1.147.279a1.988 1.988 0 0 0-.79.813c-.193.356-.29.787-.29 1.295Zm16.064 5.432c-.788 0-1.479-.188-2.074-.563-.591-.375-1.053-.9-1.386-1.573-.33-.675-.495-1.463-.495-2.364 0-.91.165-1.703.495-2.38.333-.679.795-1.205 1.386-1.58.595-.375 1.286-.563 2.074-.563.788 0 1.477.188 2.068.563.595.375 1.057.901 1.387 1.58.333.677.5 1.47.5 2.38 0 .901-.167 1.69-.5 2.364-.33.674-.792 1.198-1.387 1.573-.591.375-1.28.563-2.068.563Zm0-1.205c.598 0 1.091-.153 1.477-.46.387-.307.673-.71.858-1.21.186-.5.279-1.042.279-1.625 0-.584-.093-1.127-.279-1.63a2.74 2.74 0 0 0-.858-1.223c-.386-.31-.879-.465-1.477-.465-.599 0-1.091.155-1.477.465a2.74 2.74 0 0 0-.858 1.222 4.672 4.672 0 0 0-.279 1.63c0 .584.093 1.126.279 1.626.185.5.471.903.858 1.21.386.307.878.46 1.477.46Zm9.888-7.704v1.136h-4.705v-1.136h4.705ZM227.396 72v-9.932c0-.5.118-.916.353-1.25.234-.333.539-.583.914-.75.375-.166.771-.25 1.188-.25.329 0 .598.027.807.08.208.053.363.102.466.147l-.387 1.16a6.673 6.673 0 0 0-.284-.086 1.722 1.722 0 0 0-.466-.05c-.443 0-.763.11-.96.334-.193.224-.29.552-.29.983V72h-1.341Zm17.493-11.636h1.409v7.704c0 .796-.187 1.506-.562 2.13a3.938 3.938 0 0 1-1.574 1.473c-.678.355-1.474.533-2.386.533-.913 0-1.709-.177-2.387-.533a3.978 3.978 0 0 1-1.579-1.472c-.372-.625-.557-1.335-.557-2.13v-7.705h1.409v7.59c0 .569.125 1.074.375 1.518.25.439.606.786 1.068 1.04.466.25 1.023.374 1.671.374.647 0 1.204-.125 1.67-.375.466-.253.822-.6 1.068-1.04.25-.443.375-.948.375-1.517v-7.59Zm5.291 8.454-.022-1.659h.272l3.819-3.886h1.659l-4.069 4.113h-.113l-1.546 1.432ZM248.93 72V60.364h1.341V72h-1.341Zm5.546 0-3.409-4.318.954-.932L256.18 72h-1.704Zm3.158 0v-8.727h1.295v1.318h.091c.159-.432.447-.782.864-1.051a2.54 2.54 0 0 1 1.409-.404c.098 0 .221.002.369.006s.259.01.335.017v1.364a3.926 3.926 0 0 0-.312-.051 3.08 3.08 0 0 0-.506-.04c-.424 0-.803.089-1.136.267a1.956 1.956 0 0 0-1.069 1.778V72h-1.34Zm8.521.204a3.548 3.548 0 0 1-1.506-.312 2.582 2.582 0 0 1-1.074-.915c-.265-.401-.397-.886-.397-1.454 0-.5.098-.906.295-1.216.197-.315.46-.56.79-.739a4.14 4.14 0 0 1 1.091-.397c.401-.092.805-.163 1.21-.217.53-.068.96-.119 1.29-.153.333-.038.575-.1.727-.187.155-.088.233-.239.233-.455v-.045c0-.561-.153-.997-.46-1.307-.303-.31-.764-.466-1.381-.466-.64 0-1.142.14-1.506.42-.363.28-.619.58-.767.898l-1.272-.455c.227-.53.53-.943.909-1.238.382-.3.799-.508 1.25-.625a5.184 5.184 0 0 1 1.341-.182c.28 0 .602.034.965.102.368.065.722.2 1.063.404.345.204.631.513.858.926.227.413.341.966.341 1.659V72h-1.341v-1.182h-.068c-.091.19-.243.392-.455.608-.212.216-.494.4-.846.551-.353.152-.783.227-1.29.227Zm.204-1.204c.531 0 .978-.104 1.341-.313a2.128 2.128 0 0 0 1.114-1.846v-1.227c-.057.068-.182.13-.375.187a6.29 6.29 0 0 1-.659.142 29.629 29.629 0 0 1-1.284.17 5.13 5.13 0 0 0-.978.222 1.687 1.687 0 0 0-.727.45c-.182.196-.273.465-.273.806 0 .466.173.818.518 1.057.348.235.789.352 1.323.352Zm6.243 1v-8.727h1.341V72h-1.341Zm.682-10.182a.953.953 0 0 1-.676-.267.856.856 0 0 1-.278-.642c0-.25.092-.464.278-.642a.953.953 0 0 1 .676-.267c.261 0 .485.089.671.267a.851.851 0 0 1 .284.642c0 .25-.095.464-.284.642a.936.936 0 0 1-.671.267Zm4.456 4.932V72h-1.341v-8.727h1.296v1.363h.113c.205-.443.515-.799.932-1.068.417-.273.955-.409 1.614-.409.591 0 1.108.121 1.551.364a2.45 2.45 0 0 1 1.034 1.09c.246.486.369 1.1.369 1.841V72h-1.341v-5.454c0-.686-.178-1.22-.534-1.603-.356-.386-.844-.58-1.466-.58-.428 0-.81.093-1.147.279a1.988 1.988 0 0 0-.79.813c-.193.356-.29.787-.29 1.295Zm11.678 5.432c-.841 0-1.567-.186-2.177-.557a3.74 3.74 0 0 1-1.403-1.568c-.326-.674-.489-1.459-.489-2.353 0-.893.163-1.681.489-2.363.33-.686.788-1.22 1.375-1.602.591-.387 1.28-.58 2.068-.58.455 0 .904.076 1.347.227a3.34 3.34 0 0 1 1.21.739c.364.337.653.784.869 1.34.216.558.324 1.243.324 2.058v.568h-6.727v-1.16h5.364c0-.492-.099-.931-.296-1.317a2.23 2.23 0 0 0-.829-.915c-.356-.224-.777-.335-1.262-.335-.534 0-.996.132-1.386.397a2.615 2.615 0 0 0-.892 1.023 3.01 3.01 0 0 0-.313 1.352v.773c0 .66.114 1.218.341 1.676.231.455.551.801.96 1.04.41.235.885.352 1.427.352.352 0 .67-.049.954-.148.288-.102.536-.253.744-.454.209-.204.37-.458.483-.761l1.296.363a2.87 2.87 0 0 1-.688 1.16c-.322.329-.719.587-1.193.772a4.42 4.42 0 0 1-1.596.273Zm13.948-8.91v1.137h-4.522v-1.136h4.522Zm-3.204-2.09h1.341V69.5c0 .379.055.663.165.852a.85.85 0 0 0 .431.375c.178.06.366.091.563.091.148 0 .269-.007.364-.022l.227-.046.273 1.204a2.733 2.733 0 0 1-.381.103 2.8 2.8 0 0 1-.619.057 2.7 2.7 0 0 1-1.114-.245 2.215 2.215 0 0 1-.898-.744c-.235-.333-.352-.754-.352-1.261v-8.682Zm7.79 11.022a3.548 3.548 0 0 1-1.506-.312 2.582 2.582 0 0 1-1.074-.915c-.265-.401-.398-.886-.398-1.454 0-.5.099-.906.296-1.216.197-.315.46-.56.79-.739a4.14 4.14 0 0 1 1.091-.397c.401-.092.804-.163 1.21-.217.53-.068.96-.119 1.29-.153.333-.038.575-.1.727-.187.155-.088.233-.239.233-.455v-.045c0-.561-.154-.997-.46-1.307-.303-.31-.764-.466-1.381-.466-.64 0-1.142.14-1.506.42-.363.28-.619.58-.767.898l-1.273-.455c.228-.53.531-.943.91-1.238.382-.3.799-.508 1.25-.625a5.183 5.183 0 0 1 1.34-.182 5.3 5.3 0 0 1 .966.102c.368.065.722.2 1.063.404.345.204.631.513.858.926.227.413.341.966.341 1.659V72h-1.341v-1.182h-.068c-.091.19-.243.392-.455.608-.212.216-.494.4-.847.551-.352.152-.782.227-1.289.227Zm.204-1.204c.531 0 .978-.104 1.341-.313a2.128 2.128 0 0 0 1.114-1.846v-1.227c-.057.068-.182.13-.375.187-.19.053-.409.1-.659.142a30.34 30.34 0 0 1-1.284.17 5.13 5.13 0 0 0-.978.222 1.687 1.687 0 0 0-.727.45c-.182.196-.273.465-.273.806 0 .466.173.818.517 1.057.349.235.79.352 1.324.352Zm7.493-2.182-.023-1.659h.273l3.818-3.886h1.659l-4.068 4.113h-.113l-1.546 1.432ZM314.399 72V60.364h1.341V72h-1.341Zm5.546 0-3.409-4.318.954-.932 4.159 5.25h-1.704Zm6.457.182c-.841 0-1.566-.186-2.176-.557a3.742 3.742 0 0 1-1.404-1.568c-.325-.674-.488-1.459-.488-2.353 0-.893.163-1.681.488-2.363.33-.686.788-1.22 1.375-1.602.591-.387 1.281-.58 2.069-.58.454 0 .903.076 1.346.227.443.152.847.398 1.21.739.364.337.654.784.87 1.34.216.558.324 1.243.324 2.058v.568h-6.728v-1.16h5.364c0-.492-.098-.931-.295-1.317a2.232 2.232 0 0 0-.83-.915c-.356-.224-.777-.335-1.261-.335-.534 0-.997.132-1.387.397a2.623 2.623 0 0 0-.892 1.023c-.208.42-.312.871-.312 1.352v.773c0 .66.113 1.218.341 1.676.231.455.551.801.96 1.04.409.235.884.352 1.426.352.352 0 .67-.049.955-.148.287-.102.536-.253.744-.454.208-.204.369-.458.483-.761l1.295.363c-.136.44-.365.826-.687 1.16-.322.329-.72.587-1.193.772a4.43 4.43 0 0 1-1.597.273Zm11.835-6.955-1.204.341a2.238 2.238 0 0 0-.336-.585 1.616 1.616 0 0 0-.59-.477c-.25-.125-.571-.188-.961-.188-.534 0-.979.123-1.335.37-.352.242-.528.55-.528.926 0 .333.121.596.363.79.243.193.622.354 1.137.482l1.295.319c.78.189 1.362.479 1.744.869.383.386.574.884.574 1.494 0 .5-.144.947-.432 1.341-.284.394-.681.705-1.193.932-.511.227-1.106.34-1.784.34-.89 0-1.627-.192-2.21-.579-.583-.386-.953-.95-1.108-1.693l1.273-.318c.121.47.35.822.687 1.057.341.235.786.352 1.335.352.625 0 1.122-.133 1.489-.398.371-.269.557-.59.557-.966 0-.303-.106-.556-.318-.761-.212-.208-.538-.364-.978-.466l-1.454-.34c-.799-.19-1.386-.484-1.761-.882-.372-.401-.557-.903-.557-1.505 0-.493.138-.928.415-1.307.28-.379.661-.676 1.142-.892.484-.216 1.034-.324 1.647-.324.864 0 1.542.19 2.034.568.497.38.849.88 1.057 1.5Zm8.019-4.863V72h-1.341V60.364h1.341ZM348.712 72v-8.727h1.341V72h-1.341Zm.681-10.182a.954.954 0 0 1-.676-.267.86.86 0 0 1-.278-.642.86.86 0 0 1 .278-.642.955.955 0 0 1 .676-.267c.262 0 .485.089.671.267a.851.851 0 0 1 .284.642c0 .25-.095.464-.284.642a.934.934 0 0 1-.671.267Zm10.252 1.455L356.418 72h-1.364l-3.227-8.727h1.454l2.409 6.954h.091l2.409-6.954h1.455Zm5.116 8.909c-.841 0-1.566-.186-2.176-.557a3.733 3.733 0 0 1-1.403-1.568c-.326-.674-.489-1.459-.489-2.353 0-.893.163-1.681.489-2.363.329-.686.788-1.22 1.375-1.602.591-.387 1.28-.58 2.068-.58.455 0 .903.076 1.347.227a3.34 3.34 0 0 1 1.21.739c.363.337.653.784.869 1.34.216.558.324 1.243.324 2.058v.568h-6.727v-1.16h5.363c0-.492-.098-.931-.295-1.317a2.225 2.225 0 0 0-.83-.915c-.356-.224-.776-.335-1.261-.335-.534 0-.996.132-1.386.397a2.608 2.608 0 0 0-.892 1.023c-.209.42-.313.871-.313 1.352v.773c0 .66.114 1.218.341 1.676.231.455.551.801.96 1.04.409.235.885.352 1.426.352a2.9 2.9 0 0 0 .955-.148c.288-.102.536-.253.744-.454.209-.204.37-.458.483-.761l1.296.363a2.88 2.88 0 0 1-.688 1.16c-.322.329-.72.587-1.193.772a4.43 4.43 0 0 1-1.597.273Zm11.836-6.955-1.205.341a2.233 2.233 0 0 0-.335-.585 1.628 1.628 0 0 0-.591-.477c-.25-.125-.57-.188-.96-.188-.534 0-.979.123-1.336.37-.352.242-.528.55-.528.926 0 .333.121.596.364.79.242.193.621.354 1.136.482l1.296.319c.78.189 1.361.479 1.744.869.382.386.574.884.574 1.494 0 .5-.144.947-.432 1.341-.284.394-.682.705-1.193.932-.512.227-1.106.34-1.784.34-.891 0-1.627-.192-2.211-.579-.583-.386-.952-.95-1.108-1.693l1.273-.318c.121.47.351.822.688 1.057.341.235.786.352 1.335.352.625 0 1.121-.133 1.488-.398.372-.269.557-.59.557-.966 0-.303-.106-.556-.318-.761-.212-.208-.538-.364-.977-.466l-1.455-.34c-.799-.19-1.386-.484-1.761-.882-.371-.401-.557-.903-.557-1.505 0-.493.138-.928.415-1.307.28-.379.661-.676 1.142-.892.485-.216 1.034-.324 1.648-.324.863 0 1.541.19 2.034.568.496.38.848.88 1.057 1.5Zm10.336 6.955c-.841 0-1.566-.186-2.176-.557a3.733 3.733 0 0 1-1.403-1.568c-.326-.674-.489-1.459-.489-2.353 0-.893.163-1.681.489-2.363.329-.686.788-1.22 1.375-1.602.591-.387 1.28-.58 2.068-.58.454 0 .903.076 1.346.227.444.152.847.398 1.211.739.363.337.653.784.869 1.34.216.558.324 1.243.324 2.058v.568h-6.727v-1.16h5.363c0-.492-.098-.931-.295-1.317a2.225 2.225 0 0 0-.83-.915c-.356-.224-.776-.335-1.261-.335-.534 0-.996.132-1.386.397a2.618 2.618 0 0 0-.893 1.023c-.208.42-.312.871-.312 1.352v.773c0 .66.114 1.218.341 1.676.231.455.551.801.96 1.04.409.235.885.352 1.426.352a2.9 2.9 0 0 0 .955-.148c.288-.102.536-.253.744-.454.208-.204.369-.458.483-.761l1.296.363a2.88 2.88 0 0 1-.688 1.16c-.322.329-.72.587-1.193.772a4.43 4.43 0 0 1-1.597.273Zm12.524-8.91L396.23 72h-1.364l-3.227-8.727h1.455l2.409 6.954h.091l2.409-6.954h1.454Zm5.117 8.91c-.841 0-1.566-.186-2.176-.557a3.742 3.742 0 0 1-1.404-1.568c-.325-.674-.488-1.459-.488-2.353 0-.893.163-1.681.488-2.363.33-.686.788-1.22 1.375-1.602.591-.387 1.281-.58 2.069-.58.454 0 .903.076 1.346.227.443.152.847.398 1.21.739.364.337.654.784.87 1.34.216.558.324 1.243.324 2.058v.568h-6.728v-1.16h5.364c0-.492-.099-.931-.296-1.317a2.223 2.223 0 0 0-.829-.915c-.356-.224-.777-.335-1.261-.335-.535 0-.997.132-1.387.397a2.615 2.615 0 0 0-.892 1.023c-.208.42-.312.871-.312 1.352v.773c0 .66.113 1.218.341 1.676.231.455.551.801.96 1.04.409.235.884.352 1.426.352.352 0 .67-.049.954-.148.288-.102.536-.253.745-.454.208-.204.369-.458.483-.761l1.295.363c-.136.44-.365.826-.687 1.16a3.35 3.35 0 0 1-1.194.772 4.42 4.42 0 0 1-1.596.273Zm5.653-.182v-8.727h1.296v1.318h.091c.159-.432.447-.782.863-1.051a2.544 2.544 0 0 1 1.409-.404c.099 0 .222.002.37.006.147.004.259.01.335.017v1.364a4.073 4.073 0 0 0-.313-.051 3.068 3.068 0 0 0-.505-.04c-.425 0-.803.089-1.137.267a2.016 2.016 0 0 0-.784.727 1.964 1.964 0 0 0-.284 1.051V72h-1.341Zm7.083 3.273c-.228 0-.43-.02-.608-.057a1.626 1.626 0 0 1-.37-.102l.341-1.182c.326.083.614.114.864.09.25-.022.472-.134.665-.335.197-.197.377-.516.539-.96l.25-.681-3.227-8.773h1.455l2.409 6.954h.091l2.409-6.954h1.454l-3.704 10c-.167.45-.373.824-.619 1.119-.247.3-.533.52-.858.665a2.646 2.646 0 0 1-1.091.216Zm15.838-3.091c-.728 0-1.37-.184-1.926-.551-.557-.371-.993-.894-1.307-1.569-.315-.677-.472-1.479-.472-2.403 0-.917.157-1.712.472-2.386.314-.674.752-1.195 1.312-1.563.561-.367 1.209-.55 1.943-.55.569 0 1.018.094 1.347.283.333.186.587.398.761.636.178.235.317.429.415.58h.114v-4.295h1.341V72h-1.296v-1.34h-.159c-.098.158-.238.359-.42.601-.182.239-.442.453-.779.642-.337.186-.786.279-1.346.279Zm.182-1.205c.537 0 .992-.14 1.363-.42.371-.284.654-.676.847-1.176.193-.504.29-1.085.29-1.745 0-.651-.095-1.221-.285-1.71-.189-.492-.469-.875-.84-1.148-.372-.276-.83-.414-1.375-.414-.569 0-1.042.145-1.421.437-.375.288-.657.68-.847 1.176a4.689 4.689 0 0 0-.278 1.66c0 .62.095 1.185.284 1.692.193.504.477.906.852 1.205.379.295.849.443 1.41.443Zm9.028 1.227a3.548 3.548 0 0 1-1.506-.312 2.594 2.594 0 0 1-1.074-.915c-.265-.401-.397-.886-.397-1.454 0-.5.098-.906.295-1.216.197-.315.46-.56.79-.739a4.14 4.14 0 0 1 1.091-.397c.401-.092.805-.163 1.21-.217.53-.068.96-.119 1.29-.153.333-.038.576-.1.727-.187.155-.088.233-.239.233-.455v-.045c0-.561-.153-.997-.46-1.307-.303-.31-.763-.466-1.381-.466-.64 0-1.142.14-1.506.42-.363.28-.619.58-.767.898l-1.272-.455c.227-.53.53-.943.909-1.238.382-.3.799-.508 1.25-.625a5.184 5.184 0 0 1 1.341-.182c.28 0 .602.034.966.102.367.065.721.2 1.062.404.345.204.631.513.858.926.227.413.341.966.341 1.659V72h-1.341v-1.182h-.068c-.091.19-.243.392-.455.608-.212.216-.494.4-.846.551-.353.152-.782.227-1.29.227Zm.204-1.204c.531 0 .978-.104 1.341-.313a2.128 2.128 0 0 0 1.114-1.846v-1.227c-.057.068-.182.13-.375.187a6.29 6.29 0 0 1-.659.142 29.629 29.629 0 0 1-1.284.17 5.12 5.12 0 0 0-.977.222c-.3.099-.542.248-.728.45-.181.196-.272.465-.272.806 0 .466.172.818.517 1.057.348.235.789.352 1.323.352Zm6.795 4.273c-.228 0-.43-.02-.608-.057a1.61 1.61 0 0 1-.37-.102l.341-1.182c.326.083.614.114.864.09.25-.022.471-.134.665-.335.197-.197.376-.516.539-.96l.25-.681-3.227-8.773h1.455l2.409 6.954h.091l2.409-6.954h1.454l-3.704 10c-.167.45-.373.824-.62 1.119-.246.3-.532.52-.858.665a2.641 2.641 0 0 1-1.09.216Zm8.473-3.182a.985.985 0 0 1-.722-.301.983.983 0 0 1-.301-.722c0-.28.1-.52.301-.721a.984.984 0 0 1 .722-.301c.28 0 .52.1.721.3.201.201.301.442.301.722a.96.96 0 0 1-.142.511c-.091.156-.214.28-.369.376a.975.975 0 0 1-.511.136ZM21.41 96V84.364h1.408v5.181h6.205v-5.181h1.409V96h-1.41v-5.204h-6.204V96H21.41Zm15.32.182c-.84 0-1.566-.186-2.176-.557a3.737 3.737 0 0 1-1.403-1.568c-.326-.674-.49-1.459-.49-2.353 0-.893.164-1.681.49-2.363.33-.686.787-1.22 1.375-1.602.59-.387 1.28-.58 2.068-.58.454 0 .903.076 1.346.227.444.152.847.398 1.21.739.364.337.654.784.87 1.34.216.558.324 1.243.324 2.058v.568h-6.727v-1.16h5.363c0-.492-.098-.931-.295-1.317a2.226 2.226 0 0 0-.83-.915c-.356-.224-.776-.335-1.261-.335-.534 0-.997.132-1.387.397a2.616 2.616 0 0 0-.892 1.023c-.208.42-.312.871-.312 1.352v.773c0 .66.114 1.218.34 1.676.232.455.552.801.961 1.04.41.235.884.352 1.426.352.352 0 .67-.049.955-.148.287-.102.536-.253.744-.454.208-.204.37-.458.483-.761l1.295.363c-.136.44-.365.826-.687 1.16-.322.329-.72.587-1.193.772a4.426 4.426 0 0 1-1.597.273Zm6.994-11.818V96h-1.34V84.364h1.34Zm2.456 14.909v-12h1.296v1.386h.159c.098-.151.235-.345.409-.58.178-.238.432-.45.761-.636.334-.19.785-.284 1.353-.284.734 0 1.382.184 1.943.551.56.368.998.889 1.312 1.563.315.674.472 1.47.472 2.386 0 .924-.157 1.725-.472 2.403-.314.675-.75 1.198-1.306 1.569-.557.367-1.2.55-1.927.55-.56 0-1.01-.092-1.346-.278-.337-.189-.597-.403-.779-.642a8.63 8.63 0 0 1-.42-.602h-.114v4.614h-1.34Zm1.319-7.637c0 .66.096 1.24.29 1.745.192.5.475.892.846 1.176.371.28.826.42 1.364.42.56 0 1.028-.148 1.403-.443.379-.3.663-.7.852-1.205.193-.507.29-1.071.29-1.693 0-.613-.095-1.166-.284-1.659-.186-.496-.468-.888-.847-1.176-.375-.291-.846-.437-1.414-.437-.546 0-1.004.138-1.375.414-.372.273-.652.656-.841 1.148-.19.489-.284 1.059-.284 1.71Zm18.431.796v-5.16h1.341V96h-1.34v-1.477h-.091c-.205.443-.523.82-.955 1.13-.432.307-.977.46-1.636.46-.546 0-1.03-.119-1.455-.357-.424-.243-.758-.606-1-1.091-.242-.489-.364-1.104-.364-1.847v-5.545h1.341v5.454c0 .637.178 1.144.534 1.523.36.379.819.568 1.375.568.334 0 .673-.085 1.017-.255.349-.171.64-.432.875-.785.24-.352.358-.8.358-1.346Zm9.98-3.205-1.206.341a2.234 2.234 0 0 0-.335-.585 1.626 1.626 0 0 0-.59-.477c-.25-.125-.57-.188-.96-.188-.535 0-.98.123-1.336.37-.352.242-.529.55-.529.926 0 .333.122.596.364.79.243.193.621.354 1.136.482l1.296.319c.78.189 1.362.479 1.744.869.383.386.574.884.574 1.494 0 .5-.144.947-.432 1.341-.284.394-.681.705-1.193.932-.511.227-1.106.34-1.784.34-.89 0-1.627-.192-2.21-.579-.584-.386-.953-.95-1.108-1.693l1.273-.318c.12.47.35.822.687 1.057.341.235.786.352 1.335.352.625 0 1.122-.133 1.489-.398.371-.269.557-.59.557-.966 0-.303-.106-.556-.318-.761-.213-.208-.538-.364-.978-.466l-1.454-.34c-.8-.19-1.386-.484-1.761-.882-.372-.401-.557-.903-.557-1.505 0-.493.138-.928.414-1.307.28-.379.661-.676 1.142-.892.485-.216 1.034-.324 1.648-.324.864 0 1.542.19 2.034.568.496.38.849.88 1.057 1.5Zm12.859 0-1.205.341a2.234 2.234 0 0 0-.335-.585 1.626 1.626 0 0 0-.591-.477c-.25-.125-.57-.188-.96-.188-.534 0-.98.123-1.336.37-.352.242-.528.55-.528.926 0 .333.121.596.364.79.242.193.62.354 1.136.482l1.295.319c.78.189 1.362.479 1.745.869.382.386.574.884.574 1.494 0 .5-.144.947-.432 1.341-.284.394-.682.705-1.193.932-.512.227-1.106.34-1.784.34-.89 0-1.627-.192-2.21-.579-.584-.386-.953-.95-1.109-1.693l1.273-.318c.121.47.35.822.688 1.057.34.235.785.352 1.335.352.625 0 1.121-.133 1.488-.398.372-.269.557-.59.557-.966 0-.303-.106-.556-.318-.761-.212-.208-.538-.364-.977-.466l-1.455-.34c-.799-.19-1.386-.484-1.761-.882-.371-.401-.557-.903-.557-1.505 0-.493.138-.928.415-1.307.28-.379.66-.676 1.142-.892.485-.216 1.034-.324 1.648-.324.863 0 1.541.19 2.034.568.496.38.848.88 1.056 1.5Zm5.972-1.954v1.136H90.22v-1.136h4.523Zm-3.204-2.091h1.34V93.5c0 .379.056.663.166.852.113.186.257.31.431.375.178.06.366.091.563.091.148 0 .269-.007.364-.022l.227-.046.273 1.204c-.091.035-.218.069-.381.103-.163.038-.37.057-.62.057a2.7 2.7 0 0 1-1.113-.245 2.213 2.213 0 0 1-.898-.744c-.235-.333-.352-.754-.352-1.261v-8.682Zm8.673 11c-.788 0-1.479-.188-2.074-.563-.59-.375-1.053-.9-1.386-1.573-.33-.675-.494-1.463-.494-2.364 0-.91.165-1.703.494-2.38.333-.679.796-1.205 1.386-1.58.595-.375 1.286-.563 2.074-.563.788 0 1.478.188 2.068.563.595.375 1.057.901 1.387 1.58.333.677.5 1.47.5 2.38 0 .901-.167 1.69-.5 2.364-.33.674-.792 1.198-1.387 1.573-.59.375-1.28.563-2.068.563Zm0-1.205c.599 0 1.091-.153 1.478-.46a2.71 2.71 0 0 0 .857-1.21c.186-.5.279-1.042.279-1.625 0-.584-.093-1.127-.279-1.63a2.745 2.745 0 0 0-.857-1.223c-.387-.31-.879-.465-1.478-.465-.598 0-1.09.155-1.477.465-.386.311-.672.718-.858 1.222a4.681 4.681 0 0 0-.278 1.63c0 .584.092 1.126.278 1.626.186.5.472.903.858 1.21.386.307.879.46 1.477.46Zm6.002 4.296v-12h1.295v1.386h.159c.099-.151.235-.345.409-.58.178-.238.432-.45.762-.636.333-.19.784-.284 1.352-.284.735 0 1.382.184 1.943.551.561.368.998.889 1.313 1.563.314.674.471 1.47.471 2.386 0 .924-.157 1.725-.471 2.403-.315.675-.75 1.198-1.307 1.569-.557.367-1.199.55-1.926.55-.561 0-1.01-.092-1.347-.278-.337-.189-.597-.403-.778-.642a8.77 8.77 0 0 1-.421-.602h-.113v4.614h-1.341Zm1.318-7.637c0 .66.096 1.24.29 1.745.193.5.475.892.846 1.176.371.28.826.42 1.364.42.56 0 1.028-.148 1.403-.443.379-.3.663-.7.853-1.205a4.73 4.73 0 0 0 .289-1.693c0-.613-.094-1.166-.284-1.659-.185-.496-.468-.888-.846-1.176-.375-.291-.847-.437-1.415-.437-.546 0-1.004.138-1.375.414-.371.273-.652.656-.841 1.148-.189.489-.284 1.059-.284 1.71Zm16.727-4.363v1.136h-4.523v-1.136h4.523Zm-3.204-2.091h1.34V93.5c0 .379.055.663.165.852.114.186.258.31.432.375.178.06.366.091.563.091.147 0 .268-.007.363-.022l.227-.046.273 1.204a2.753 2.753 0 0 1-.38.103c-.163.038-.37.057-.62.057-.379 0-.75-.082-1.113-.245a2.208 2.208 0 0 1-.898-.744c-.235-.333-.352-.754-.352-1.261v-8.682Zm6.75 5.568V96h-1.341V84.364h1.341v4.272h.113c.205-.45.512-.808.921-1.073.413-.27.962-.404 1.647-.404.595 0 1.116.12 1.563.358.447.235.793.597 1.04 1.085.25.485.375 1.102.375 1.852V96h-1.341v-5.454c0-.694-.18-1.23-.54-1.609-.356-.382-.85-.573-1.483-.573-.439 0-.833.092-1.182.278a2.035 2.035 0 0 0-.818.813c-.197.356-.295.787-.295 1.295Zm8.112 5.25v-8.727h1.341V96h-1.341Zm.682-10.182a.955.955 0 0 1-.677-.267.86.86 0 0 1-.278-.642.86.86 0 0 1 .278-.642.955.955 0 0 1 .677-.267c.261 0 .484.089.67.267a.851.851 0 0 1 .284.642c0 .25-.095.464-.284.642a.934.934 0 0 1-.67.267Zm9.296 3.41-1.204.34a2.262 2.262 0 0 0-.335-.585 1.628 1.628 0 0 0-.591-.477c-.25-.125-.57-.188-.96-.188-.535 0-.98.123-1.336.37-.352.242-.528.55-.528.926 0 .333.121.596.364.79.242.193.621.354 1.136.482l1.295.319c.781.189 1.362.479 1.745.869.382.386.574.884.574 1.494 0 .5-.144.947-.432 1.341-.284.394-.682.705-1.193.932-.512.227-1.107.34-1.785.34-.89 0-1.626-.192-2.21-.579-.583-.386-.952-.95-1.108-1.693l1.273-.318c.121.47.35.822.688 1.057.34.235.785.352 1.335.352.625 0 1.121-.133 1.488-.398.372-.269.557-.59.557-.966 0-.303-.106-.556-.318-.761-.212-.208-.538-.364-.977-.466l-1.455-.34c-.799-.19-1.386-.484-1.761-.882-.371-.401-.557-.903-.557-1.505 0-.493.138-.928.415-1.307.28-.379.661-.676 1.142-.892.485-.216 1.034-.324 1.648-.324.863 0 1.541.19 2.034.568a3.06 3.06 0 0 1 1.056 1.5Zm3.155 6.863c-.28 0-.521-.1-.721-.301a.983.983 0 0 1-.301-.722c0-.28.1-.52.301-.721.2-.201.441-.301.721-.301.281 0 .521.1.722.3.201.201.301.442.301.722a.96.96 0 0 1-.142.511c-.091.156-.214.28-.369.376a.976.976 0 0 1-.512.136Zm8.111-.091V84.364h1.409v5.181h6.205v-5.181h1.409V96h-1.409v-5.204h-6.205V96h-1.409Zm15.321.182c-.841 0-1.566-.186-2.176-.557a3.733 3.733 0 0 1-1.403-1.568c-.326-.674-.489-1.459-.489-2.353 0-.893.163-1.681.489-2.363.329-.686.787-1.22 1.375-1.602.59-.387 1.28-.58 2.068-.58.454 0 .903.076 1.346.227.444.152.847.398 1.211.739.363.337.653.784.869 1.34.216.558.324 1.243.324 2.058v.568h-6.728v-1.16h5.364c0-.492-.098-.931-.295-1.317a2.232 2.232 0 0 0-.83-.915c-.356-.224-.776-.335-1.261-.335-.534 0-.996.132-1.387.397a2.623 2.623 0 0 0-.892 1.023c-.208.42-.312.871-.312 1.352v.773c0 .66.113 1.218.341 1.676.231.455.551.801.96 1.04.409.235.884.352 1.426.352.352 0 .671-.049.955-.148.288-.102.536-.253.744-.454.208-.204.369-.458.483-.761l1.295.363c-.136.44-.365.826-.687 1.16-.322.329-.72.587-1.193.772a4.43 4.43 0 0 1-1.597.273Zm6.994-11.818V96h-1.34V84.364h1.34Zm2.456 14.909v-12h1.296v1.386h.159c.098-.151.235-.345.409-.58.178-.238.432-.45.761-.636.334-.19.784-.284 1.353-.284.735 0 1.382.184 1.943.551.56.368.998.889 1.312 1.563.315.674.472 1.47.472 2.386 0 .924-.157 1.725-.472 2.403-.314.675-.75 1.198-1.306 1.569-.557.367-1.199.55-1.927.55-.56 0-1.009-.092-1.346-.278-.337-.189-.597-.403-.779-.642a8.7 8.7 0 0 1-.42-.602h-.114v4.614h-1.341Zm1.319-7.637c0 .66.096 1.24.289 1.745.194.5.476.892.847 1.176.371.28.826.42 1.364.42.56 0 1.028-.148 1.403-.443.379-.3.663-.7.852-1.205a4.73 4.73 0 0 0 .29-1.693 4.6 4.6 0 0 0-.284-1.659c-.186-.496-.468-.888-.847-1.176-.375-.291-.846-.437-1.414-.437-.546 0-1.004.138-1.375.414-.372.273-.652.656-.841 1.148-.19.489-.284 1.059-.284 1.71Zm18.431.796v-5.16h1.341V96h-1.341v-1.477h-.091c-.204.443-.522.82-.954 1.13-.432.307-.977.46-1.636.46-.546 0-1.031-.119-1.455-.357-.424-.243-.758-.606-1-1.091-.242-.489-.364-1.104-.364-1.847v-5.545h1.341v5.454c0 .637.178 1.144.534 1.523.36.379.819.568 1.375.568.334 0 .673-.085 1.017-.255.349-.171.641-.432.875-.785.239-.352.358-.8.358-1.346Zm9.979-3.205-1.204.341a2.238 2.238 0 0 0-.336-.585 1.628 1.628 0 0 0-.591-.477c-.25-.125-.57-.188-.96-.188-.534 0-.979.123-1.335.37-.352.242-.528.55-.528.926 0 .333.121.596.363.79.243.193.621.354 1.137.482l1.295.319c.78.189 1.362.479 1.744.869.383.386.574.884.574 1.494 0 .5-.144.947-.432 1.341-.284.394-.681.705-1.193.932-.511.227-1.106.34-1.784.34-.89 0-1.627-.192-2.21-.579-.583-.386-.953-.95-1.108-1.693l1.273-.318c.121.47.35.822.687 1.057.341.235.786.352 1.335.352.625 0 1.122-.133 1.489-.398.371-.269.557-.59.557-.966 0-.303-.106-.556-.318-.761-.212-.208-.538-.364-.978-.466l-1.454-.34c-.799-.19-1.387-.484-1.762-.882-.371-.401-.556-.903-.556-1.505 0-.493.138-.928.414-1.307a2.828 2.828 0 0 1 1.142-.892c.485-.216 1.035-.324 1.648-.324.864 0 1.542.19 2.034.568.496.38.849.88 1.057 1.5ZM220.314 96l-2.659-8.727h1.409l1.886 6.681h.091l1.864-6.681h1.432l1.841 6.659h.09l1.887-6.66h1.409L226.905 96h-1.318l-1.909-6.704h-.137L221.632 96h-1.318Zm11.023 0v-8.727h1.341V96h-1.341Zm.681-10.182a.954.954 0 0 1-.676-.267.86.86 0 0 1-.278-.642.86.86 0 0 1 .278-.642.955.955 0 0 1 .676-.267c.262 0 .485.089.671.267a.851.851 0 0 1 .284.642c0 .25-.095.464-.284.642a.934.934 0 0 1-.671.267Zm4.456 4.932V96h-1.34v-8.727h1.295v1.363h.114c.204-.443.515-.799.931-1.068.417-.272.955-.409 1.614-.409.591 0 1.108.121 1.551.364a2.45 2.45 0 0 1 1.034 1.09c.247.486.37 1.1.37 1.841V96h-1.341v-5.454c0-.686-.178-1.22-.534-1.603-.356-.386-.845-.58-1.466-.58a2.34 2.34 0 0 0-1.148.279 1.994 1.994 0 0 0-.79.813c-.193.356-.29.787-.29 1.295Zm8.996 5.34c-.28 0-.521-.1-.721-.3a.984.984 0 0 1-.302-.722c0-.28.101-.52.302-.721.2-.201.441-.301.721-.301.28 0 .521.1.722.3.201.201.301.442.301.722a.96.96 0 0 1-.142.511c-.091.156-.214.28-.369.376a.976.976 0 0 1-.512.136Zm11.702-.09h-3.591V84.364h3.75c1.129 0 2.095.233 2.898.698.803.463 1.418 1.127 1.846 1.995.428.864.642 1.897.642 3.102 0 1.212-.216 2.256-.647 3.13a4.616 4.616 0 0 1-1.887 2.012c-.826.466-1.829.699-3.011.699Zm-2.182-1.25h2.091c.962 0 1.759-.186 2.392-.557a3.432 3.432 0 0 0 1.415-1.585c.31-.686.466-1.502.466-2.449 0-.94-.154-1.748-.461-2.426a3.389 3.389 0 0 0-1.375-1.568c-.609-.368-1.369-.551-2.278-.551h-2.25v9.136Zm13.455 1.432c-.788 0-1.48-.188-2.074-.563-.591-.375-1.053-.9-1.387-1.573-.329-.675-.494-1.463-.494-2.364 0-.91.165-1.703.494-2.38.334-.679.796-1.205 1.387-1.58.594-.375 1.286-.563 2.074-.563.787 0 1.477.188 2.068.563.594.375 1.057.901 1.386 1.58.333.677.5 1.47.5 2.38 0 .901-.167 1.69-.5 2.364a3.77 3.77 0 0 1-1.386 1.573c-.591.375-1.281.563-2.068.563Zm0-1.205c.598 0 1.091-.153 1.477-.46.386-.307.672-.71.858-1.21.185-.5.278-1.042.278-1.625 0-.584-.093-1.127-.278-1.63a2.755 2.755 0 0 0-.858-1.223c-.386-.31-.879-.465-1.477-.465-.599 0-1.091.155-1.478.465-.386.311-.672.718-.858 1.222a4.695 4.695 0 0 0-.278 1.63c0 .584.093 1.126.278 1.626.186.5.472.903.858 1.21.387.307.879.46 1.478.46Zm7.342-4.227V96h-1.341v-8.727h1.295v1.363h.114c.205-.443.515-.799.932-1.068.417-.272.954-.409 1.614-.409.59 0 1.108.121 1.551.364a2.45 2.45 0 0 1 1.034 1.09c.246.486.369 1.1.369 1.841V96h-1.341v-5.454c0-.686-.178-1.22-.534-1.603-.356-.386-.845-.58-1.466-.58-.428 0-.81.093-1.148.279a1.992 1.992 0 0 0-.789.813c-.193.356-.29.787-.29 1.295Zm10.587 5.454a3.548 3.548 0 0 1-1.506-.312 2.582 2.582 0 0 1-1.074-.915c-.265-.401-.398-.886-.398-1.454 0-.5.099-.906.296-1.216.197-.315.46-.56.79-.739.329-.178.693-.31 1.09-.397.402-.092.805-.163 1.211-.217.53-.068.96-.119 1.289-.153.334-.038.576-.1.728-.187.155-.088.233-.239.233-.455v-.045c0-.561-.154-.997-.461-1.307-.303-.31-.763-.466-1.38-.466-.64 0-1.142.14-1.506.42-.364.28-.619.58-.767.898l-1.273-.455c.228-.53.531-.943.909-1.238.383-.3.8-.508 1.25-.625a5.196 5.196 0 0 1 1.341-.182 5.3 5.3 0 0 1 .966.102c.368.065.722.2 1.063.404.344.204.63.513.858.926.227.413.341.966.341 1.659V96h-1.341v-1.182h-.069c-.09.19-.242.392-.454.608-.212.216-.494.4-.847.551-.352.152-.782.227-1.289.227Zm.204-1.204c.53 0 .977-.104 1.341-.313.367-.208.644-.477.83-.806a2.06 2.06 0 0 0 .284-1.04v-1.227c-.057.068-.182.13-.375.187-.19.053-.409.1-.659.142a30.34 30.34 0 0 1-1.285.17c-.348.046-.674.12-.977.222a1.687 1.687 0 0 0-.727.45c-.182.196-.273.465-.273.806 0 .466.173.818.517 1.057.349.235.79.352 1.324.352Zm10.038-7.727v1.136h-4.522v-1.136h4.522Zm-3.204-2.091h1.341V93.5c0 .379.055.663.165.852a.85.85 0 0 0 .431.375c.178.06.366.091.563.091.148 0 .269-.007.364-.022l.227-.046.273 1.204a2.733 2.733 0 0 1-.381.103 2.8 2.8 0 0 1-.619.057 2.7 2.7 0 0 1-1.114-.245 2.215 2.215 0 0 1-.898-.744c-.235-.333-.352-.754-.352-1.261v-8.682Zm8.787 11c-.841 0-1.566-.186-2.176-.557a3.742 3.742 0 0 1-1.404-1.568c-.325-.674-.488-1.459-.488-2.353 0-.893.163-1.681.488-2.363.33-.686.788-1.22 1.375-1.602.591-.387 1.281-.58 2.068-.58.455 0 .904.076 1.347.227.443.152.847.398 1.21.739.364.337.654.784.87 1.34.216.558.323 1.243.323 2.058v.568h-6.727v-1.16h5.364c0-.492-.099-.931-.296-1.317a2.223 2.223 0 0 0-.829-.915c-.356-.224-.777-.335-1.262-.335-.534 0-.996.132-1.386.397a2.615 2.615 0 0 0-.892 1.023c-.208.42-.312.871-.312 1.352v.773c0 .66.113 1.218.34 1.676.232.455.552.801.961 1.04.409.235.884.352 1.426.352.352 0 .67-.049.954-.148.288-.102.536-.253.745-.454.208-.204.369-.458.483-.761l1.295.363c-.136.44-.365.826-.687 1.16a3.35 3.35 0 0 1-1.194.772 4.42 4.42 0 0 1-1.596.273Zm6.631-.091a.985.985 0 0 1-.722-.301.983.983 0 0 1-.301-.722c0-.28.1-.52.301-.721a.984.984 0 0 1 .722-.301c.28 0 .52.1.721.3.201.201.301.442.301.722a.96.96 0 0 1-.142.511c-.091.156-.214.28-.369.376a.975.975 0 0 1-.511.136Z" fill="#374151"/><path fill-rule="evenodd" clip-rule="evenodd" d="M514.73 56.067s-7.318-7.783-3.588-10.324c2.148-1.464 3.549.409 3.549.409s1.401-1.88 3.549-.41c3.73 2.55-3.518 10.325-3.518 10.325h.008Zm-.071-8.475a4.983 4.983 0 0 0-.747-.787c-.205-.157-1.039-.81-2.133-.07-.33.227-.487.487-.527.88-.008.071-.015.15-.015.22 0 1.716 1.864 4.51 3.478 6.438 1.589-1.92 3.422-4.698 3.422-6.414 0-.078 0-.157-.007-.236-.048-.401-.205-.668-.535-.897-1.094-.74-1.692-.283-2.062 0a5.002 5.002 0 0 0-.874.85" fill="#000"/><path d="M526.565 38.504h-23.607V62.11h23.607V38.504Z" stroke="#000" stroke-width=".882" stroke-miterlimit="10"/><path d="M616.577 38.48h-90.122v23.59h90.122V38.48Z" stroke="#000" stroke-width=".854" stroke-miterlimit="10"/><path d="M578.413 62.094h-51.919v23.473h51.919V62.095Z" stroke="#000" stroke-width=".791" stroke-miterlimit="10"/><path d="M539.612 52.133h1.699v1.778c0 1.715-1.526 2.33-2.832 2.33-1.307 0-2.849-.614-2.849-2.33v-6.956c0-1.731 1.527-2.345 2.849-2.345 1.321 0 2.832.614 2.832 2.345v1.778h-1.699v-1.778c0-.645-.614-.881-1.133-.881-.52 0-1.149.22-1.149.881v6.956c0 .645.629.881 1.149.881.519 0 1.133-.236 1.133-.88v-1.78ZM543.869 46.955c0-1.731 1.526-2.345 2.848-2.345 1.322 0 2.833.614 2.833 2.345v6.956c0 1.715-1.527 2.33-2.833 2.33-1.306 0-2.848-.614-2.848-2.33v-6.956Zm3.981 0c0-.645-.613-.881-1.133-.881-.519 0-1.149.22-1.149.881v6.956c0 .645.63.881 1.149.881.52 0 1.133-.236 1.133-.88v-6.957ZM558.544 56.067v-7.696l-2.266 4.501-2.251-4.5v7.695h-1.699V44.8h1.558l2.392 4.816 2.408-4.816h1.526v11.268h-1.668ZM568.12 56.067h-4.989V44.8h4.989v1.464h-3.289v3.257h2.723v1.464h-2.723v3.604h3.289v1.48ZM574.856 56.067V44.8h3.116c1.432 0 2.487.881 2.487 2.219v1.385c0 .677-.346 1.275-.96 1.778.881.44 1.29 1.055 1.29 1.952v1.385c0 1.369-.897 2.55-2.581 2.55h-3.352Zm3.903-8.876c0-.472-.236-.944-.928-.944h-1.275v3.273h1.275c.692 0 .928-.488.928-.944v-1.385Zm.331 4.926c0-.598-.362-1.133-1.181-1.133h-1.353v3.635h1.353c.834 0 1.181-.52 1.181-1.117v-1.385ZM588.131 56.067l-.535-2.44h-2.66l-.519 2.44h-1.621v-.283l2.628-10.985h1.699l2.629 10.985v.283h-1.621Zm-1.873-8.545-.991 4.626h1.998l-1.007-4.626ZM595.905 52.133h1.7v1.778c0 1.715-1.527 2.33-2.832 2.33-1.307 0-2.849-.614-2.849-2.33v-6.956c0-1.731 1.526-2.345 2.849-2.345 1.322 0 2.832.614 2.832 2.345v1.778h-1.7v-1.778c0-.645-.614-.881-1.132-.881-.52 0-1.15.22-1.15.881v6.956c0 .645.63.881 1.15.881.518 0 1.132-.236 1.132-.88v-1.78ZM604.774 56.067l-2.188-4.753-.598 1.008v3.745h-1.7V44.8h1.7v4.47l2.644-4.47h1.684v.283l-2.817 4.69 2.943 6.012v.283h-1.668ZM540.438 79.658l-.535-2.44h-2.66l-.519 2.44h-1.621v-.284l2.628-10.984h1.699l2.629 10.984v.284h-1.621Zm-1.873-8.546-.992 4.627h1.999l-1.007-4.627ZM544.506 79.658V68.389h1.7v9.79h3.289v1.479h-4.989ZM553.618 68.39h-1.699v11.268h1.699V68.389ZM560.291 79.658h-1.558l-2.691-10.985v-.284h1.558l1.904 8.404 1.936-8.404h1.558v.284l-2.707 10.985ZM570.434 79.658h-4.989V68.389h4.989v1.464h-3.289v3.258h2.722v1.463h-2.722v3.604h3.289v1.48Z" fill="#000"/><rect x="2" y="2" width="636" height="120" rx="6" stroke="#111827" stroke-width="4"/></svg>
