<svg viewBox="0 0 640 124" fill="none" xmlns="http://www.w3.org/2000/svg">
    <rect x="2" y="2" width="636" height="120" rx="6" fill="white"/>
    <path d="M21.738 38H24.686V31.444H37.182V38H40.13V22.402H37.182V28.958H24.686V22.402H21.738V38ZM52.2132 38.44C56.9652 38.44 59.8472 36.68 60.6392 33.732H57.6252C57.0532 35.228 55.1392 36.108 52.3012 36.108C48.8472 36.108 46.7352 34.876 46.2952 32.566H60.8372C60.8372 27.242 57.5152 24.558 52.0592 24.558C46.6472 24.558 43.1492 27.154 43.1492 31.51C43.1492 35.866 46.5812 38.44 52.2132 38.44ZM46.3392 30.3C46.8672 27.968 48.9132 26.868 52.0812 26.868C55.2272 26.868 57.1632 27.924 57.6912 30.3H46.3392ZM63.7185 38H66.6225V20.4H63.7185V38ZM70.1208 43.368H73.0248V35.228C74.3668 37.252 76.8748 38.44 79.9988 38.44C84.8388 38.44 87.9628 35.69 87.9628 31.488C87.9628 27.286 84.8388 24.558 79.9988 24.558C76.8748 24.558 74.3668 25.746 73.0248 27.748V24.998H70.1208V43.368ZM73.0248 31.488C73.0248 28.848 75.3128 27.132 79.0748 27.132C82.5948 27.132 84.7728 28.848 84.7728 31.488C84.7728 34.15 82.5948 35.866 79.0748 35.866C75.3128 35.866 73.0248 34.15 73.0248 31.488ZM108.985 38.44C115.739 38.44 118.071 35.162 118.071 30.388V22.402H115.123V30.3C115.123 33.116 113.979 35.932 108.985 35.932C103.969 35.932 102.825 33.138 102.825 30.3V22.402H99.8767V30.388C99.8767 35.162 102.209 38.44 108.985 38.44ZM121.275 38H124.179V34.612L128.579 31.554L134.453 38H138.017L130.669 30.102L138.017 24.998H133.595L124.179 31.51V20.4H121.275V38ZM140.654 38H143.558V29.86C145.758 27.528 147.76 27.11 149.322 27.11C150.51 27.11 151.522 27.242 152.864 27.66V25.13C151.874 24.778 150.818 24.558 149.432 24.558C147.254 24.558 145.362 25.262 143.558 27.55V24.998H140.654V38ZM169.049 30.168V30.498C166.629 29.86 164.253 29.508 162.141 29.508C157.477 29.508 154.859 31.092 154.859 34.084C154.859 36.9 157.037 38.462 161.041 38.462C163.769 38.462 166.629 37.714 169.049 36.416V38H172.107V30.586C172.107 26.34 169.819 24.558 164.451 24.558C161.855 24.558 158.929 24.976 155.915 25.768L156.355 28.474C159.457 27.66 161.789 27.132 164.033 27.132C167.311 27.132 169.049 27.748 169.049 30.168ZM158.049 33.886C158.049 32.28 159.369 31.686 162.229 31.686C164.605 31.686 166.101 31.928 169.049 32.654V34.37C166.409 35.624 163.901 36.328 161.767 36.328C159.325 36.328 158.049 35.492 158.049 33.886ZM175.459 38H178.363V24.998H175.459V38ZM175.459 23.018H178.363V20.4H175.459V23.018ZM181.818 38H184.898V32.522C184.898 29.134 187.428 27.132 191.102 27.132C194.644 27.132 196.14 28.584 196.14 32.412V38H199.22V31.378C199.22 26.252 196.668 24.558 192.488 24.558C189.144 24.558 186.57 25.724 184.898 27.814V24.998H181.818V38ZM211.004 38.44C215.756 38.44 218.638 36.68 219.43 33.732H216.416C215.844 35.228 213.93 36.108 211.092 36.108C207.638 36.108 205.526 34.876 205.086 32.566H219.628C219.628 27.242 216.306 24.558 210.85 24.558C205.438 24.558 201.94 27.154 201.94 31.51C201.94 35.866 205.372 38.44 211.004 38.44ZM205.13 30.3C205.658 27.968 207.704 26.868 210.872 26.868C214.018 26.868 215.954 27.924 216.482 30.3H205.13ZM237.036 38H241.018L246.21 27.484L251.402 38H255.384L261.346 24.998H258.178L253.36 35.822L248.08 24.998H244.34L239.06 35.844L234.242 24.998H231.074L237.036 38ZM263.738 38H266.642V24.998H263.738V38ZM263.738 23.018H266.642V20.4H263.738V23.018ZM270.097 38H273.177V32.522C273.177 29.134 275.707 27.132 279.381 27.132C282.923 27.132 284.419 28.584 284.419 32.412V38H287.499V31.378C287.499 26.252 284.947 24.558 280.767 24.558C277.423 24.558 274.849 25.724 273.177 27.814V24.998H270.097V38Z" fill="#111827"/>
    <path d="M21.4091 72V60.3636H25.3409C26.25 60.3636 26.9962 60.5189 27.5795 60.8295C28.1629 61.1364 28.5947 61.5587 28.875 62.0966C29.1553 62.6345 29.2955 63.2462 29.2955 63.9318C29.2955 64.6174 29.1553 65.2254 28.875 65.7557C28.5947 66.286 28.1648 66.7027 27.5852 67.0057C27.0057 67.3049 26.2652 67.4545 25.3636 67.4545H22.1818V66.1818H25.3182C25.9394 66.1818 26.4394 66.0909 26.8182 65.9091C27.2008 65.7273 27.4773 65.4697 27.6477 65.1364C27.822 64.7992 27.9091 64.3977 27.9091 63.9318C27.9091 63.4659 27.822 63.0587 27.6477 62.7102C27.4735 62.3617 27.1951 62.0928 26.8125 61.9034C26.4299 61.7102 25.9242 61.6136 25.2955 61.6136H22.8182V72H21.4091ZM26.8864 66.7727L29.75 72H28.1136L25.2955 66.7727H26.8864ZM36.9616 68.4318V63.2727H38.3026V72H36.9616V70.5227H36.8707C36.6662 70.9659 36.348 71.3428 35.9162 71.6534C35.4844 71.9602 34.9389 72.1136 34.2798 72.1136C33.7344 72.1136 33.2495 71.9943 32.8253 71.7557C32.401 71.5133 32.0677 71.1496 31.8253 70.6648C31.5829 70.1761 31.4616 69.5606 31.4616 68.8182V63.2727H32.8026V68.7273C32.8026 69.3636 32.9806 69.8712 33.3366 70.25C33.6965 70.6288 34.1548 70.8182 34.7116 70.8182C35.045 70.8182 35.384 70.733 35.7287 70.5625C36.0772 70.392 36.3688 70.1307 36.6037 69.7784C36.8423 69.4261 36.9616 68.9773 36.9616 68.4318ZM46.9403 65.2273L45.7358 65.5682C45.66 65.3674 45.5483 65.1723 45.4006 64.983C45.2566 64.7898 45.0597 64.6307 44.8097 64.5057C44.5597 64.3807 44.2396 64.3182 43.8494 64.3182C43.3153 64.3182 42.8703 64.4413 42.5142 64.6875C42.1619 64.9299 41.9858 65.2386 41.9858 65.6136C41.9858 65.947 42.107 66.2102 42.3494 66.4034C42.5919 66.5966 42.9706 66.7576 43.4858 66.8864L44.7812 67.2045C45.5616 67.3939 46.143 67.6837 46.5256 68.0739C46.9081 68.4602 47.0994 68.9583 47.0994 69.5682C47.0994 70.0682 46.9555 70.5152 46.6676 70.9091C46.3835 71.303 45.9858 71.6136 45.4744 71.8409C44.9631 72.0682 44.3684 72.1818 43.6903 72.1818C42.8002 72.1818 42.0634 71.9886 41.4801 71.6023C40.8968 71.2159 40.5275 70.6515 40.3722 69.9091L41.6449 69.5909C41.7661 70.0606 41.9953 70.4129 42.3324 70.6477C42.6733 70.8826 43.1184 71 43.6676 71C44.2926 71 44.7888 70.8674 45.1562 70.6023C45.5275 70.3333 45.7131 70.0114 45.7131 69.6364C45.7131 69.3333 45.607 69.0795 45.3949 68.875C45.1828 68.6667 44.857 68.5114 44.4176 68.4091L42.9631 68.0682C42.1638 67.8788 41.5767 67.5852 41.2017 67.1875C40.8305 66.786 40.6449 66.2841 40.6449 65.6818C40.6449 65.1894 40.7831 64.7538 41.0597 64.375C41.34 63.9962 41.7206 63.6989 42.2017 63.483C42.6866 63.267 43.2358 63.1591 43.8494 63.1591C44.7131 63.1591 45.3911 63.3485 45.8835 63.7273C46.3797 64.1061 46.732 64.6061 46.9403 65.2273ZM55.2997 65.2273L54.0952 65.5682C54.0194 65.3674 53.9077 65.1723 53.7599 64.983C53.616 64.7898 53.419 64.6307 53.169 64.5057C52.919 64.3807 52.599 64.3182 52.2088 64.3182C51.6747 64.3182 51.2296 64.4413 50.8736 64.6875C50.5213 64.9299 50.3452 65.2386 50.3452 65.6136C50.3452 65.947 50.4664 66.2102 50.7088 66.4034C50.9512 66.5966 51.33 66.7576 51.8452 66.8864L53.1406 67.2045C53.9209 67.3939 54.5024 67.6837 54.8849 68.0739C55.2675 68.4602 55.4588 68.9583 55.4588 69.5682C55.4588 70.0682 55.3149 70.5152 55.027 70.9091C54.7429 71.303 54.3452 71.6136 53.8338 71.8409C53.3224 72.0682 52.7277 72.1818 52.0497 72.1818C51.1596 72.1818 50.4228 71.9886 49.8395 71.6023C49.2562 71.2159 48.8868 70.6515 48.7315 69.9091L50.0043 69.5909C50.1255 70.0606 50.3546 70.4129 50.6918 70.6477C51.0327 70.8826 51.4777 71 52.027 71C52.652 71 53.1482 70.8674 53.5156 70.6023C53.8868 70.3333 54.0724 70.0114 54.0724 69.6364C54.0724 69.3333 53.9664 69.0795 53.7543 68.875C53.5421 68.6667 53.2164 68.5114 52.777 68.4091L51.3224 68.0682C50.5232 67.8788 49.9361 67.5852 49.5611 67.1875C49.1899 66.786 49.0043 66.2841 49.0043 65.6818C49.0043 65.1894 49.1425 64.7538 49.419 64.375C49.6993 63.9962 50.08 63.6989 50.5611 63.483C51.0459 63.267 51.5952 63.1591 52.2088 63.1591C53.0724 63.1591 53.7505 63.3485 54.2429 63.7273C54.7391 64.1061 55.0914 64.6061 55.2997 65.2273ZM57.4773 72V63.2727H58.8182V72H57.4773ZM58.1591 61.8182C57.8977 61.8182 57.6723 61.7292 57.483 61.5511C57.2973 61.3731 57.2045 61.1591 57.2045 60.9091C57.2045 60.6591 57.2973 60.4451 57.483 60.267C57.6723 60.089 57.8977 60 58.1591 60C58.4205 60 58.6439 60.089 58.8295 60.267C59.0189 60.4451 59.1136 60.6591 59.1136 60.9091C59.1136 61.1591 59.0189 61.3731 58.8295 61.5511C58.6439 61.7292 58.4205 61.8182 58.1591 61.8182ZM63.8423 72.2045C63.2893 72.2045 62.7874 72.1004 62.3366 71.892C61.8859 71.6799 61.5279 71.375 61.2628 70.9773C60.9976 70.5758 60.8651 70.0909 60.8651 69.5227C60.8651 69.0227 60.9635 68.6174 61.1605 68.3068C61.3575 67.9924 61.6207 67.7462 61.9503 67.5682C62.2798 67.3902 62.6435 67.2576 63.0412 67.1705C63.4427 67.0795 63.8461 67.0076 64.2514 66.9545C64.7817 66.8864 65.2116 66.8352 65.5412 66.8011C65.8745 66.7633 66.117 66.7008 66.2685 66.6136C66.4238 66.5265 66.5014 66.375 66.5014 66.1591V66.1136C66.5014 65.553 66.348 65.1174 66.0412 64.8068C65.7382 64.4962 65.2779 64.3409 64.6605 64.3409C64.0204 64.3409 63.5185 64.4811 63.1548 64.7614C62.7912 65.0417 62.5355 65.3409 62.3878 65.6591L61.1151 65.2045C61.3423 64.6742 61.6454 64.2614 62.0241 63.9659C62.4067 63.6667 62.8234 63.4583 63.2741 63.3409C63.7287 63.2197 64.1757 63.1591 64.6151 63.1591C64.8954 63.1591 65.2173 63.1932 65.581 63.2614C65.9484 63.3258 66.3026 63.4602 66.6435 63.6648C66.9882 63.8693 67.2741 64.178 67.5014 64.5909C67.7287 65.0038 67.8423 65.5568 67.8423 66.25V72H66.5014V70.8182H66.4332C66.3423 71.0076 66.1908 71.2102 65.9787 71.4261C65.7666 71.642 65.4844 71.8258 65.1321 71.9773C64.7798 72.1288 64.3499 72.2045 63.8423 72.2045ZM64.0469 71C64.5772 71 65.0241 70.8958 65.3878 70.6875C65.7552 70.4792 66.0317 70.2102 66.2173 69.8807C66.4067 69.5511 66.5014 69.2045 66.5014 68.8409V67.6136C66.4446 67.6818 66.3196 67.7443 66.1264 67.8011C65.937 67.8542 65.7173 67.9015 65.4673 67.9432C65.2211 67.9811 64.9806 68.0152 64.7457 68.0455C64.5147 68.072 64.3272 68.0947 64.1832 68.1136C63.8348 68.1591 63.509 68.233 63.206 68.3352C62.9067 68.4337 62.6643 68.5833 62.4787 68.7841C62.2969 68.9811 62.206 69.25 62.206 69.5909C62.206 70.0568 62.3783 70.4091 62.723 70.6477C63.0715 70.8826 63.5128 71 64.0469 71ZM71.6307 66.75V72H70.2898V63.2727H71.5852V64.6364H71.6989C71.9034 64.1932 72.214 63.8371 72.6307 63.5682C73.0473 63.2955 73.5852 63.1591 74.2443 63.1591C74.8352 63.1591 75.3523 63.2803 75.7955 63.5227C76.2386 63.7614 76.5833 64.125 76.8295 64.6136C77.0758 65.0985 77.1989 65.7121 77.1989 66.4545V72H75.858V66.5455C75.858 65.8598 75.6799 65.3258 75.3239 64.9432C74.9678 64.5568 74.4792 64.3636 73.858 64.3636C73.4299 64.3636 73.0473 64.4564 72.7102 64.642C72.3769 64.8277 72.1136 65.0985 71.9205 65.4545C71.7273 65.8106 71.6307 66.2424 71.6307 66.75ZM84.331 72V60.3636H85.6719V64.6591H85.7855C85.884 64.5076 86.0204 64.3144 86.1946 64.0795C86.3726 63.8409 86.6264 63.6288 86.956 63.4432C87.2893 63.2538 87.7401 63.1591 88.3082 63.1591C89.0431 63.1591 89.6908 63.3428 90.2514 63.7102C90.812 64.0777 91.2495 64.5985 91.5639 65.2727C91.8783 65.947 92.0355 66.7424 92.0355 67.6591C92.0355 68.5833 91.8783 69.3845 91.5639 70.0625C91.2495 70.7367 90.8139 71.2595 90.2571 71.6307C89.7003 71.9981 89.0582 72.1818 88.331 72.1818C87.7704 72.1818 87.3215 72.089 86.9844 71.9034C86.6473 71.714 86.3878 71.5 86.206 71.2614C86.0241 71.0189 85.884 70.8182 85.7855 70.6591H85.6264V72H84.331ZM85.6491 67.6364C85.6491 68.2955 85.7457 68.8769 85.9389 69.3807C86.1321 69.8807 86.4143 70.2727 86.7855 70.5568C87.1567 70.8371 87.6113 70.9773 88.1491 70.9773C88.7098 70.9773 89.1776 70.8295 89.5526 70.5341C89.9313 70.2348 90.2154 69.8333 90.4048 69.3295C90.598 68.822 90.6946 68.2576 90.6946 67.6364C90.6946 67.0227 90.5999 66.4697 90.4105 65.9773C90.2249 65.4811 89.9427 65.089 89.5639 64.8011C89.1889 64.5095 88.7173 64.3636 88.1491 64.3636C87.6037 64.3636 87.1454 64.5019 86.7741 64.7784C86.4029 65.0511 86.1226 65.4337 85.9332 65.9261C85.7438 66.4148 85.6491 66.9848 85.6491 67.6364ZM96.6548 72.2045C96.1018 72.2045 95.5999 72.1004 95.1491 71.892C94.6984 71.6799 94.3404 71.375 94.0753 70.9773C93.8101 70.5758 93.6776 70.0909 93.6776 69.5227C93.6776 69.0227 93.776 68.6174 93.973 68.3068C94.17 67.9924 94.4332 67.7462 94.7628 67.5682C95.0923 67.3902 95.456 67.2576 95.8537 67.1705C96.2552 67.0795 96.6586 67.0076 97.0639 66.9545C97.5942 66.8864 98.0241 66.8352 98.3537 66.8011C98.687 66.7633 98.9295 66.7008 99.081 66.6136C99.2363 66.5265 99.3139 66.375 99.3139 66.1591V66.1136C99.3139 65.553 99.1605 65.1174 98.8537 64.8068C98.5507 64.4962 98.0904 64.3409 97.473 64.3409C96.8329 64.3409 96.331 64.4811 95.9673 64.7614C95.6037 65.0417 95.348 65.3409 95.2003 65.6591L93.9276 65.2045C94.1548 64.6742 94.4579 64.2614 94.8366 63.9659C95.2192 63.6667 95.6359 63.4583 96.0866 63.3409C96.5412 63.2197 96.9882 63.1591 97.4276 63.1591C97.7079 63.1591 98.0298 63.1932 98.3935 63.2614C98.7609 63.3258 99.1151 63.4602 99.456 63.6648C99.8007 63.8693 100.087 64.178 100.314 64.5909C100.541 65.0038 100.655 65.5568 100.655 66.25V72H99.3139V70.8182H99.2457C99.1548 71.0076 99.0033 71.2102 98.7912 71.4261C98.5791 71.642 98.2969 71.8258 97.9446 71.9773C97.5923 72.1288 97.1624 72.2045 96.6548 72.2045ZM96.8594 71C97.3897 71 97.8366 70.8958 98.2003 70.6875C98.5677 70.4792 98.8442 70.2102 99.0298 69.8807C99.2192 69.5511 99.3139 69.2045 99.3139 68.8409V67.6136C99.2571 67.6818 99.1321 67.7443 98.9389 67.8011C98.7495 67.8542 98.5298 67.9015 98.2798 67.9432C98.0336 67.9811 97.7931 68.0152 97.5582 68.0455C97.3272 68.072 97.1397 68.0947 96.9957 68.1136C96.6473 68.1591 96.3215 68.233 96.0185 68.3352C95.7192 68.4337 95.4768 68.5833 95.2912 68.7841C95.1094 68.9811 95.0185 69.25 95.0185 69.5909C95.0185 70.0568 95.1908 70.4091 95.5355 70.6477C95.884 70.8826 96.3253 71 96.8594 71ZM103.102 72V63.2727H104.398V64.5909H104.489C104.648 64.1591 104.936 63.8087 105.352 63.5398C105.769 63.2708 106.239 63.1364 106.761 63.1364C106.86 63.1364 106.983 63.1383 107.131 63.142C107.278 63.1458 107.39 63.1515 107.466 63.1591V64.5227C107.42 64.5114 107.316 64.4943 107.153 64.4716C106.994 64.4451 106.826 64.4318 106.648 64.4318C106.223 64.4318 105.845 64.5208 105.511 64.6989C105.182 64.8731 104.92 65.1155 104.727 65.4261C104.538 65.733 104.443 66.0833 104.443 66.4773V72H103.102ZM109.237 72V60.3636H110.578V64.6591H110.692C110.79 64.5076 110.927 64.3144 111.101 64.0795C111.279 63.8409 111.533 63.6288 111.862 63.4432C112.196 63.2538 112.646 63.1591 113.214 63.1591C113.949 63.1591 114.597 63.3428 115.158 63.7102C115.718 64.0777 116.156 64.5985 116.47 65.2727C116.785 65.947 116.942 66.7424 116.942 67.6591C116.942 68.5833 116.785 69.3845 116.47 70.0625C116.156 70.7367 115.72 71.2595 115.163 71.6307C114.607 71.9981 113.964 72.1818 113.237 72.1818C112.677 72.1818 112.228 72.089 111.891 71.9034C111.554 71.714 111.294 71.5 111.112 71.2614C110.93 71.0189 110.79 70.8182 110.692 70.6591H110.533V72H109.237ZM110.555 67.6364C110.555 68.2955 110.652 68.8769 110.845 69.3807C111.038 69.8807 111.321 70.2727 111.692 70.5568C112.063 70.8371 112.518 70.9773 113.055 70.9773C113.616 70.9773 114.084 70.8295 114.459 70.5341C114.838 70.2348 115.122 69.8333 115.311 69.3295C115.504 68.822 115.601 68.2576 115.601 67.6364C115.601 67.0227 115.506 66.4697 115.317 65.9773C115.131 65.4811 114.849 65.089 114.47 64.8011C114.095 64.5095 113.624 64.3636 113.055 64.3636C112.51 64.3636 112.052 64.5019 111.68 64.7784C111.309 65.0511 111.029 65.4337 110.839 65.9261C110.65 66.4148 110.555 66.9848 110.555 67.6364ZM121.561 72.2045C121.008 72.2045 120.506 72.1004 120.055 71.892C119.605 71.6799 119.247 71.375 118.982 70.9773C118.716 70.5758 118.584 70.0909 118.584 69.5227C118.584 69.0227 118.682 68.6174 118.879 68.3068C119.076 67.9924 119.339 67.7462 119.669 67.5682C119.999 67.3902 120.362 67.2576 120.76 67.1705C121.161 67.0795 121.565 67.0076 121.97 66.9545C122.5 66.8864 122.93 66.8352 123.26 66.8011C123.593 66.7633 123.836 66.7008 123.987 66.6136C124.143 66.5265 124.22 66.375 124.22 66.1591V66.1136C124.22 65.553 124.067 65.1174 123.76 64.8068C123.457 64.4962 122.997 64.3409 122.379 64.3409C121.739 64.3409 121.237 64.4811 120.874 64.7614C120.51 65.0417 120.254 65.3409 120.107 65.6591L118.834 65.2045C119.061 64.6742 119.364 64.2614 119.743 63.9659C120.125 63.6667 120.542 63.4583 120.993 63.3409C121.447 63.2197 121.894 63.1591 122.334 63.1591C122.614 63.1591 122.936 63.1932 123.3 63.2614C123.667 63.3258 124.021 63.4602 124.362 63.6648C124.707 63.8693 124.993 64.178 125.22 64.5909C125.447 65.0038 125.561 65.5568 125.561 66.25V72H124.22V70.8182H124.152C124.061 71.0076 123.91 71.2102 123.697 71.4261C123.485 71.642 123.203 71.8258 122.851 71.9773C122.499 72.1288 122.069 72.2045 121.561 72.2045ZM121.766 71C122.296 71 122.743 70.8958 123.107 70.6875C123.474 70.4792 123.75 70.2102 123.936 69.8807C124.125 69.5511 124.22 69.2045 124.22 68.8409V67.6136C124.163 67.6818 124.038 67.7443 123.845 67.8011C123.656 67.8542 123.436 67.9015 123.186 67.9432C122.94 67.9811 122.699 68.0152 122.464 68.0455C122.233 68.072 122.046 68.0947 121.902 68.1136C121.554 68.1591 121.228 68.233 120.925 68.3352C120.625 68.4337 120.383 68.5833 120.197 68.7841C120.016 68.9811 119.925 69.25 119.925 69.5909C119.925 70.0568 120.097 70.4091 120.442 70.6477C120.79 70.8826 121.232 71 121.766 71ZM128.009 72V63.2727H129.304V64.5909H129.395C129.554 64.1591 129.842 63.8087 130.259 63.5398C130.675 63.2708 131.145 63.1364 131.668 63.1364C131.766 63.1364 131.889 63.1383 132.037 63.142C132.185 63.1458 132.296 63.1515 132.372 63.1591V64.5227C132.327 64.5114 132.223 64.4943 132.06 64.4716C131.901 64.4451 131.732 64.4318 131.554 64.4318C131.13 64.4318 130.751 64.5208 130.418 64.6989C130.088 64.8731 129.827 65.1155 129.634 65.4261C129.444 65.733 129.349 66.0833 129.349 66.4773V72H128.009ZM133.962 72V63.2727H135.303V72H133.962ZM134.643 61.8182C134.382 61.8182 134.157 61.7292 133.967 61.5511C133.782 61.3731 133.689 61.1591 133.689 60.9091C133.689 60.6591 133.782 60.4451 133.967 60.267C134.157 60.089 134.382 60 134.643 60C134.905 60 135.128 60.089 135.314 60.267C135.503 60.4451 135.598 60.6591 135.598 60.9091C135.598 61.1591 135.503 61.3731 135.314 61.5511C135.128 61.7292 134.905 61.8182 134.643 61.8182ZM141.304 72.1818C140.486 72.1818 139.781 71.9886 139.19 71.6023C138.599 71.2159 138.145 70.6837 137.827 70.0057C137.509 69.3277 137.349 68.553 137.349 67.6818C137.349 66.7955 137.512 66.0133 137.838 65.3352C138.168 64.6534 138.626 64.1212 139.213 63.7386C139.804 63.3523 140.493 63.1591 141.281 63.1591C141.895 63.1591 142.448 63.2727 142.94 63.5C143.433 63.7273 143.836 64.0455 144.151 64.4545C144.465 64.8636 144.66 65.3409 144.736 65.8864H143.395C143.293 65.4886 143.065 65.1364 142.713 64.8295C142.365 64.5189 141.895 64.3636 141.304 64.3636C140.781 64.3636 140.323 64.5 139.929 64.7727C139.539 65.0417 139.234 65.4223 139.014 65.9148C138.798 66.4034 138.69 66.9773 138.69 67.6364C138.69 68.3106 138.796 68.8977 139.009 69.3977C139.224 69.8977 139.527 70.286 139.918 70.5625C140.312 70.839 140.774 70.9773 141.304 70.9773C141.652 70.9773 141.969 70.9167 142.253 70.7955C142.537 70.6742 142.777 70.5 142.974 70.2727C143.171 70.0455 143.312 69.7727 143.395 69.4545H144.736C144.66 69.9697 144.473 70.4337 144.173 70.8466C143.878 71.2557 143.486 71.5814 142.997 71.8239C142.512 72.0625 141.948 72.1818 141.304 72.1818ZM151.196 72V63.2727H152.537V72H151.196ZM151.878 61.8182C151.616 61.8182 151.391 61.7292 151.202 61.5511C151.016 61.3731 150.923 61.1591 150.923 60.9091C150.923 60.6591 151.016 60.4451 151.202 60.267C151.391 60.089 151.616 60 151.878 60C152.139 60 152.363 60.089 152.548 60.267C152.738 60.4451 152.832 60.6591 152.832 60.9091C152.832 61.1591 152.738 61.3731 152.548 61.5511C152.363 61.7292 152.139 61.8182 151.878 61.8182ZM156.334 66.75V72H154.993V63.2727H156.288V64.6364H156.402C156.607 64.1932 156.917 63.8371 157.334 63.5682C157.75 63.2955 158.288 63.1591 158.947 63.1591C159.538 63.1591 160.055 63.2803 160.499 63.5227C160.942 63.7614 161.286 64.125 161.533 64.6136C161.779 65.0985 161.902 65.7121 161.902 66.4545V72H160.561V66.5455C160.561 65.8598 160.383 65.3258 160.027 64.9432C159.671 64.5568 159.182 64.3636 158.561 64.3636C158.133 64.3636 157.75 64.4564 157.413 64.642C157.08 64.8277 156.817 65.0985 156.624 65.4545C156.43 65.8106 156.334 66.2424 156.334 66.75ZM171.176 63.2727L167.949 72H166.585L163.358 63.2727H164.812L167.222 70.2273H167.312L169.722 63.2727H171.176ZM175.249 72.2045C174.696 72.2045 174.194 72.1004 173.743 71.892C173.292 71.6799 172.934 71.375 172.669 70.9773C172.404 70.5758 172.271 70.0909 172.271 69.5227C172.271 69.0227 172.37 68.6174 172.567 68.3068C172.764 67.9924 173.027 67.7462 173.357 67.5682C173.686 67.3902 174.05 67.2576 174.447 67.1705C174.849 67.0795 175.252 67.0076 175.658 66.9545C176.188 66.8864 176.618 66.8352 176.947 66.8011C177.281 66.7633 177.523 66.7008 177.675 66.6136C177.83 66.5265 177.908 66.375 177.908 66.1591V66.1136C177.908 65.553 177.754 65.1174 177.447 64.8068C177.144 64.4962 176.684 64.3409 176.067 64.3409C175.427 64.3409 174.925 64.4811 174.561 64.7614C174.197 65.0417 173.942 65.3409 173.794 65.6591L172.521 65.2045C172.749 64.6742 173.052 64.2614 173.43 63.9659C173.813 63.6667 174.23 63.4583 174.68 63.3409C175.135 63.2197 175.582 63.1591 176.021 63.1591C176.302 63.1591 176.624 63.1932 176.987 63.2614C177.355 63.3258 177.709 63.4602 178.05 63.6648C178.394 63.8693 178.68 64.178 178.908 64.5909C179.135 65.0038 179.249 65.5568 179.249 66.25V72H177.908V70.8182H177.839C177.749 71.0076 177.597 71.2102 177.385 71.4261C177.173 71.642 176.891 71.8258 176.538 71.9773C176.186 72.1288 175.756 72.2045 175.249 72.2045ZM175.453 71C175.983 71 176.43 70.8958 176.794 70.6875C177.161 70.4792 177.438 70.2102 177.624 69.8807C177.813 69.5511 177.908 69.2045 177.908 68.8409V67.6136C177.851 67.6818 177.726 67.7443 177.533 67.8011C177.343 67.8542 177.124 67.9015 176.874 67.9432C176.627 67.9811 176.387 68.0152 176.152 68.0455C175.921 68.072 175.733 68.0947 175.589 68.1136C175.241 68.1591 174.915 68.233 174.612 68.3352C174.313 68.4337 174.071 68.5833 173.885 68.7841C173.703 68.9811 173.612 69.25 173.612 69.5909C173.612 70.0568 173.785 70.4091 174.129 70.6477C174.478 70.8826 174.919 71 175.453 71ZM187.878 65.2273L186.673 65.5682C186.598 65.3674 186.486 65.1723 186.338 64.983C186.194 64.7898 185.997 64.6307 185.747 64.5057C185.497 64.3807 185.177 64.3182 184.787 64.3182C184.253 64.3182 183.808 64.4413 183.452 64.6875C183.099 64.9299 182.923 65.2386 182.923 65.6136C182.923 65.947 183.045 66.2102 183.287 66.4034C183.529 66.5966 183.908 66.7576 184.423 66.8864L185.719 67.2045C186.499 67.3939 187.08 67.6837 187.463 68.0739C187.846 68.4602 188.037 68.9583 188.037 69.5682C188.037 70.0682 187.893 70.5152 187.605 70.9091C187.321 71.303 186.923 71.6136 186.412 71.8409C185.901 72.0682 185.306 72.1818 184.628 72.1818C183.738 72.1818 183.001 71.9886 182.418 71.6023C181.834 71.2159 181.465 70.6515 181.31 69.9091L182.582 69.5909C182.704 70.0606 182.933 70.4129 183.27 70.6477C183.611 70.8826 184.056 71 184.605 71C185.23 71 185.726 70.8674 186.094 70.6023C186.465 70.3333 186.651 70.0114 186.651 69.6364C186.651 69.3333 186.545 69.0795 186.332 68.875C186.12 68.6667 185.795 68.5114 185.355 68.4091L183.901 68.0682C183.101 67.8788 182.514 67.5852 182.139 67.1875C181.768 66.786 181.582 66.2841 181.582 65.6818C181.582 65.1894 181.721 64.7538 181.997 64.375C182.277 63.9962 182.658 63.6989 183.139 63.483C183.624 63.267 184.173 63.1591 184.787 63.1591C185.651 63.1591 186.329 63.3485 186.821 63.7273C187.317 64.1061 187.67 64.6061 187.878 65.2273ZM190.055 72V63.2727H191.396V72H190.055ZM190.737 61.8182C190.476 61.8182 190.25 61.7292 190.061 61.5511C189.875 61.3731 189.783 61.1591 189.783 60.9091C189.783 60.6591 189.875 60.4451 190.061 60.267C190.25 60.089 190.476 60 190.737 60C190.999 60 191.222 60.089 191.408 60.267C191.597 60.4451 191.692 60.6591 191.692 60.9091C191.692 61.1591 191.597 61.3731 191.408 61.5511C191.222 61.7292 190.999 61.8182 190.737 61.8182ZM197.398 72.1818C196.61 72.1818 195.919 71.9943 195.324 71.6193C194.733 71.2443 194.271 70.7197 193.938 70.0455C193.608 69.3712 193.443 68.5833 193.443 67.6818C193.443 66.7727 193.608 65.9792 193.938 65.3011C194.271 64.6231 194.733 64.0966 195.324 63.7216C195.919 63.3466 196.61 63.1591 197.398 63.1591C198.186 63.1591 198.875 63.3466 199.466 63.7216C200.061 64.0966 200.523 64.6231 200.852 65.3011C201.186 65.9792 201.352 66.7727 201.352 67.6818C201.352 68.5833 201.186 69.3712 200.852 70.0455C200.523 70.7197 200.061 71.2443 199.466 71.6193C198.875 71.9943 198.186 72.1818 197.398 72.1818ZM197.398 70.9773C197.996 70.9773 198.489 70.8239 198.875 70.517C199.261 70.2102 199.547 69.8068 199.733 69.3068C199.919 68.8068 200.011 68.2652 200.011 67.6818C200.011 67.0985 199.919 66.5549 199.733 66.0511C199.547 65.5473 199.261 65.1402 198.875 64.8295C198.489 64.5189 197.996 64.3636 197.398 64.3636C196.799 64.3636 196.307 64.5189 195.92 64.8295C195.534 65.1402 195.248 65.5473 195.062 66.0511C194.877 66.5549 194.784 67.0985 194.784 67.6818C194.784 68.2652 194.877 68.8068 195.062 69.3068C195.248 69.8068 195.534 70.2102 195.92 70.517C196.307 70.8239 196.799 70.9773 197.398 70.9773ZM204.74 66.75V72H203.399V63.2727H204.695V64.6364H204.808C205.013 64.1932 205.323 63.8371 205.74 63.5682C206.157 63.2955 206.695 63.1591 207.354 63.1591C207.945 63.1591 208.462 63.2803 208.905 63.5227C209.348 63.7614 209.693 64.125 209.939 64.6136C210.185 65.0985 210.308 65.7121 210.308 66.4545V72H208.967V66.5455C208.967 65.8598 208.789 65.3258 208.433 64.9432C208.077 64.5568 207.589 64.3636 206.967 64.3636C206.539 64.3636 206.157 64.4564 205.82 64.642C205.486 64.8277 205.223 65.0985 205.03 65.4545C204.837 65.8106 204.74 66.2424 204.74 66.75ZM220.804 72.1818C220.016 72.1818 219.325 71.9943 218.73 71.6193C218.139 71.2443 217.677 70.7197 217.344 70.0455C217.014 69.3712 216.849 68.5833 216.849 67.6818C216.849 66.7727 217.014 65.9792 217.344 65.3011C217.677 64.6231 218.139 64.0966 218.73 63.7216C219.325 63.3466 220.016 63.1591 220.804 63.1591C221.592 63.1591 222.281 63.3466 222.872 63.7216C223.467 64.0966 223.929 64.6231 224.259 65.3011C224.592 65.9792 224.759 66.7727 224.759 67.6818C224.759 68.5833 224.592 69.3712 224.259 70.0455C223.929 70.7197 223.467 71.2443 222.872 71.6193C222.281 71.9943 221.592 72.1818 220.804 72.1818ZM220.804 70.9773C221.402 70.9773 221.895 70.8239 222.281 70.517C222.668 70.2102 222.954 69.8068 223.139 69.3068C223.325 68.8068 223.418 68.2652 223.418 67.6818C223.418 67.0985 223.325 66.5549 223.139 66.0511C222.954 65.5473 222.668 65.1402 222.281 64.8295C221.895 64.5189 221.402 64.3636 220.804 64.3636C220.205 64.3636 219.713 64.5189 219.327 64.8295C218.94 65.1402 218.654 65.5473 218.469 66.0511C218.283 66.5549 218.19 67.0985 218.19 67.6818C218.19 68.2652 218.283 68.8068 218.469 69.3068C218.654 69.8068 218.94 70.2102 219.327 70.517C219.713 70.8239 220.205 70.9773 220.804 70.9773ZM230.692 63.2727V64.4091H225.987V63.2727H230.692ZM227.396 72V62.0682C227.396 61.5682 227.514 61.1515 227.749 60.8182C227.983 60.4848 228.288 60.2348 228.663 60.0682C229.038 59.9015 229.434 59.8182 229.851 59.8182C230.18 59.8182 230.449 59.8447 230.658 59.8977C230.866 59.9508 231.021 60 231.124 60.0455L230.737 61.2045C230.669 61.1818 230.574 61.1534 230.453 61.1193C230.336 61.0852 230.18 61.0682 229.987 61.0682C229.544 61.0682 229.224 61.1799 229.027 61.4034C228.834 61.6269 228.737 61.9545 228.737 62.3864V72H227.396ZM244.889 60.3636H246.298V68.0682C246.298 68.8636 246.111 69.5739 245.736 70.1989C245.365 70.8201 244.84 71.3106 244.162 71.6705C243.484 72.0265 242.688 72.2045 241.776 72.2045C240.863 72.2045 240.067 72.0265 239.389 71.6705C238.711 71.3106 238.185 70.8201 237.81 70.1989C237.438 69.5739 237.253 68.8636 237.253 68.0682V60.3636H238.662V67.9545C238.662 68.5227 238.787 69.0284 239.037 69.4716C239.287 69.911 239.643 70.2576 240.105 70.5114C240.571 70.7614 241.128 70.8864 241.776 70.8864C242.423 70.8864 242.98 70.7614 243.446 70.5114C243.912 70.2576 244.268 69.911 244.514 69.4716C244.764 69.0284 244.889 68.5227 244.889 67.9545V60.3636ZM250.18 68.8182L250.158 67.1591H250.43L254.249 63.2727H255.908L251.839 67.3864H251.726L250.18 68.8182ZM248.93 72V60.3636H250.271V72H248.93ZM254.476 72L251.067 67.6818L252.021 66.75L256.18 72H254.476ZM257.634 72V63.2727H258.929V64.5909H259.02C259.179 64.1591 259.467 63.8087 259.884 63.5398C260.3 63.2708 260.77 63.1364 261.293 63.1364C261.391 63.1364 261.514 63.1383 261.662 63.142C261.81 63.1458 261.921 63.1515 261.997 63.1591V64.5227C261.952 64.5114 261.848 64.4943 261.685 64.4716C261.526 64.4451 261.357 64.4318 261.179 64.4318C260.755 64.4318 260.376 64.5208 260.043 64.6989C259.713 64.8731 259.452 65.1155 259.259 65.4261C259.069 65.733 258.974 66.0833 258.974 66.4773V72H257.634ZM266.155 72.2045C265.602 72.2045 265.1 72.1004 264.649 71.892C264.198 71.6799 263.84 71.375 263.575 70.9773C263.31 70.5758 263.178 70.0909 263.178 69.5227C263.178 69.0227 263.276 68.6174 263.473 68.3068C263.67 67.9924 263.933 67.7462 264.263 67.5682C264.592 67.3902 264.956 67.2576 265.354 67.1705C265.755 67.0795 266.159 67.0076 266.564 66.9545C267.094 66.8864 267.524 66.8352 267.854 66.8011C268.187 66.7633 268.429 66.7008 268.581 66.6136C268.736 66.5265 268.814 66.375 268.814 66.1591V66.1136C268.814 65.553 268.661 65.1174 268.354 64.8068C268.051 64.4962 267.59 64.3409 266.973 64.3409C266.333 64.3409 265.831 64.4811 265.467 64.7614C265.104 65.0417 264.848 65.3409 264.7 65.6591L263.428 65.2045C263.655 64.6742 263.958 64.2614 264.337 63.9659C264.719 63.6667 265.136 63.4583 265.587 63.3409C266.041 63.2197 266.488 63.1591 266.928 63.1591C267.208 63.1591 267.53 63.1932 267.893 63.2614C268.261 63.3258 268.615 63.4602 268.956 63.6648C269.301 63.8693 269.587 64.178 269.814 64.5909C270.041 65.0038 270.155 65.5568 270.155 66.25V72H268.814V70.8182H268.746C268.655 71.0076 268.503 71.2102 268.291 71.4261C268.079 71.642 267.797 71.8258 267.445 71.9773C267.092 72.1288 266.662 72.2045 266.155 72.2045ZM266.359 71C266.89 71 267.337 70.8958 267.7 70.6875C268.068 70.4792 268.344 70.2102 268.53 69.8807C268.719 69.5511 268.814 69.2045 268.814 68.8409V67.6136C268.757 67.6818 268.632 67.7443 268.439 67.8011C268.25 67.8542 268.03 67.9015 267.78 67.9432C267.534 67.9811 267.293 68.0152 267.058 68.0455C266.827 68.072 266.64 68.0947 266.496 68.1136C266.147 68.1591 265.821 68.233 265.518 68.3352C265.219 68.4337 264.977 68.5833 264.791 68.7841C264.609 68.9811 264.518 69.25 264.518 69.5909C264.518 70.0568 264.691 70.4091 265.036 70.6477C265.384 70.8826 265.825 71 266.359 71ZM272.602 72V63.2727H273.943V72H272.602ZM273.284 61.8182C273.023 61.8182 272.797 61.7292 272.608 61.5511C272.422 61.3731 272.33 61.1591 272.33 60.9091C272.33 60.6591 272.422 60.4451 272.608 60.267C272.797 60.089 273.023 60 273.284 60C273.545 60 273.769 60.089 273.955 60.267C274.144 60.4451 274.239 60.6591 274.239 60.9091C274.239 61.1591 274.144 61.3731 273.955 61.5511C273.769 61.7292 273.545 61.8182 273.284 61.8182ZM277.74 66.75V72H276.399V63.2727H277.695V64.6364H277.808C278.013 64.1932 278.323 63.8371 278.74 63.5682C279.157 63.2955 279.695 63.1591 280.354 63.1591C280.945 63.1591 281.462 63.2803 281.905 63.5227C282.348 63.7614 282.693 64.125 282.939 64.6136C283.185 65.0985 283.308 65.7121 283.308 66.4545V72H281.967V66.5455C281.967 65.8598 281.789 65.3258 281.433 64.9432C281.077 64.5568 280.589 64.3636 279.967 64.3636C279.539 64.3636 279.157 64.4564 278.82 64.642C278.486 64.8277 278.223 65.0985 278.03 65.4545C277.837 65.8106 277.74 66.2424 277.74 66.75ZM289.418 72.1818C288.577 72.1818 287.851 71.9962 287.241 71.625C286.635 71.25 286.168 70.7273 285.838 70.0568C285.512 69.3826 285.349 68.5985 285.349 67.7045C285.349 66.8106 285.512 66.0227 285.838 65.3409C286.168 64.6553 286.626 64.1212 287.213 63.7386C287.804 63.3523 288.493 63.1591 289.281 63.1591C289.736 63.1591 290.185 63.2348 290.628 63.3864C291.071 63.5379 291.474 63.7841 291.838 64.125C292.202 64.4621 292.491 64.9091 292.707 65.4659C292.923 66.0227 293.031 66.7083 293.031 67.5227V68.0909H286.304V66.9318H291.668C291.668 66.4394 291.569 66 291.372 65.6136C291.179 65.2273 290.902 64.9223 290.543 64.6989C290.187 64.4754 289.766 64.3636 289.281 64.3636C288.747 64.3636 288.285 64.4962 287.895 64.7614C287.509 65.0227 287.211 65.3636 287.003 65.7841C286.795 66.2045 286.69 66.6553 286.69 67.1364V67.9091C286.69 68.5682 286.804 69.1269 287.031 69.5852C287.262 70.0398 287.582 70.3864 287.991 70.625C288.401 70.8598 288.876 70.9773 289.418 70.9773C289.77 70.9773 290.088 70.928 290.372 70.8295C290.66 70.7273 290.908 70.5758 291.116 70.375C291.325 70.1705 291.486 69.9167 291.599 69.6136L292.895 69.9773C292.759 70.4167 292.529 70.803 292.207 71.1364C291.885 71.4659 291.488 71.7235 291.014 71.9091C290.541 72.0909 290.009 72.1818 289.418 72.1818ZM303.366 63.2727V64.4091H298.844V63.2727H303.366ZM300.162 61.1818H301.503V69.5C301.503 69.8788 301.558 70.1629 301.668 70.3523C301.781 70.5379 301.925 70.6629 302.099 70.7273C302.277 70.7879 302.465 70.8182 302.662 70.8182C302.81 70.8182 302.931 70.8106 303.026 70.7955C303.12 70.7765 303.196 70.7614 303.253 70.75L303.526 71.9545C303.435 71.9886 303.308 72.0227 303.145 72.0568C302.982 72.0947 302.776 72.1136 302.526 72.1136C302.147 72.1136 301.776 72.0322 301.412 71.8693C301.052 71.7064 300.753 71.4583 300.514 71.125C300.279 70.7917 300.162 70.3712 300.162 69.8636V61.1818ZM307.952 72.2045C307.399 72.2045 306.897 72.1004 306.446 71.892C305.995 71.6799 305.637 71.375 305.372 70.9773C305.107 70.5758 304.974 70.0909 304.974 69.5227C304.974 69.0227 305.073 68.6174 305.27 68.3068C305.467 67.9924 305.73 67.7462 306.06 67.5682C306.389 67.3902 306.753 67.2576 307.151 67.1705C307.552 67.0795 307.955 67.0076 308.361 66.9545C308.891 66.8864 309.321 66.8352 309.651 66.8011C309.984 66.7633 310.226 66.7008 310.378 66.6136C310.533 66.5265 310.611 66.375 310.611 66.1591V66.1136C310.611 65.553 310.457 65.1174 310.151 64.8068C309.848 64.4962 309.387 64.3409 308.77 64.3409C308.13 64.3409 307.628 64.4811 307.264 64.7614C306.901 65.0417 306.645 65.3409 306.497 65.6591L305.224 65.2045C305.452 64.6742 305.755 64.2614 306.134 63.9659C306.516 63.6667 306.933 63.4583 307.384 63.3409C307.838 63.2197 308.285 63.1591 308.724 63.1591C309.005 63.1591 309.327 63.1932 309.69 63.2614C310.058 63.3258 310.412 63.4602 310.753 63.6648C311.098 63.8693 311.384 64.178 311.611 64.5909C311.838 65.0038 311.952 65.5568 311.952 66.25V72H310.611V70.8182H310.543C310.452 71.0076 310.3 71.2102 310.088 71.4261C309.876 71.642 309.594 71.8258 309.241 71.9773C308.889 72.1288 308.459 72.2045 307.952 72.2045ZM308.156 71C308.687 71 309.134 70.8958 309.497 70.6875C309.865 70.4792 310.141 70.2102 310.327 69.8807C310.516 69.5511 310.611 69.2045 310.611 68.8409V67.6136C310.554 67.6818 310.429 67.7443 310.236 67.8011C310.046 67.8542 309.827 67.9015 309.577 67.9432C309.33 67.9811 309.09 68.0152 308.855 68.0455C308.624 68.072 308.437 68.0947 308.293 68.1136C307.944 68.1591 307.618 68.233 307.315 68.3352C307.016 68.4337 306.774 68.5833 306.588 68.7841C306.406 68.9811 306.315 69.25 306.315 69.5909C306.315 70.0568 306.488 70.4091 306.832 70.6477C307.181 70.8826 307.622 71 308.156 71ZM315.649 68.8182L315.626 67.1591H315.899L319.717 63.2727H321.376L317.308 67.3864H317.195L315.649 68.8182ZM314.399 72V60.3636H315.74V72H314.399ZM319.945 72L316.536 67.6818L317.49 66.75L321.649 72H319.945ZM326.402 72.1818C325.561 72.1818 324.836 71.9962 324.226 71.625C323.62 71.25 323.152 70.7273 322.822 70.0568C322.497 69.3826 322.334 68.5985 322.334 67.7045C322.334 66.8106 322.497 66.0227 322.822 65.3409C323.152 64.6553 323.61 64.1212 324.197 63.7386C324.788 63.3523 325.478 63.1591 326.266 63.1591C326.72 63.1591 327.169 63.2348 327.612 63.3864C328.055 63.5379 328.459 63.7841 328.822 64.125C329.186 64.4621 329.476 64.9091 329.692 65.4659C329.908 66.0227 330.016 66.7083 330.016 67.5227V68.0909H323.288V66.9318H328.652C328.652 66.4394 328.554 66 328.357 65.6136C328.163 65.2273 327.887 64.9223 327.527 64.6989C327.171 64.4754 326.75 64.3636 326.266 64.3636C325.732 64.3636 325.269 64.4962 324.879 64.7614C324.493 65.0227 324.196 65.3636 323.987 65.7841C323.779 66.2045 323.675 66.6553 323.675 67.1364V67.9091C323.675 68.5682 323.788 69.1269 324.016 69.5852C324.247 70.0398 324.567 70.3864 324.976 70.625C325.385 70.8598 325.86 70.9773 326.402 70.9773C326.754 70.9773 327.072 70.928 327.357 70.8295C327.644 70.7273 327.893 70.5758 328.101 70.375C328.309 70.1705 328.47 69.9167 328.584 69.6136L329.879 69.9773C329.743 70.4167 329.514 70.803 329.192 71.1364C328.87 71.4659 328.472 71.7235 327.999 71.9091C327.525 72.0909 326.993 72.1818 326.402 72.1818ZM338.237 65.2273L337.033 65.5682C336.957 65.3674 336.845 65.1723 336.697 64.983C336.554 64.7898 336.357 64.6307 336.107 64.5057C335.857 64.3807 335.536 64.3182 335.146 64.3182C334.612 64.3182 334.167 64.4413 333.811 64.6875C333.459 64.9299 333.283 65.2386 333.283 65.6136C333.283 65.947 333.404 66.2102 333.646 66.4034C333.889 66.5966 334.268 66.7576 334.783 66.8864L336.078 67.2045C336.858 67.3939 337.44 67.6837 337.822 68.0739C338.205 68.4602 338.396 68.9583 338.396 69.5682C338.396 70.0682 338.252 70.5152 337.964 70.9091C337.68 71.303 337.283 71.6136 336.771 71.8409C336.26 72.0682 335.665 72.1818 334.987 72.1818C334.097 72.1818 333.36 71.9886 332.777 71.6023C332.194 71.2159 331.824 70.6515 331.669 69.9091L332.942 69.5909C333.063 70.0606 333.292 70.4129 333.629 70.6477C333.97 70.8826 334.415 71 334.964 71C335.589 71 336.086 70.8674 336.453 70.6023C336.824 70.3333 337.01 70.0114 337.01 69.6364C337.01 69.3333 336.904 69.0795 336.692 68.875C336.48 68.6667 336.154 68.5114 335.714 68.4091L334.26 68.0682C333.461 67.8788 332.874 67.5852 332.499 67.1875C332.127 66.786 331.942 66.2841 331.942 65.6818C331.942 65.1894 332.08 64.7538 332.357 64.375C332.637 63.9962 333.018 63.6989 333.499 63.483C333.983 63.267 334.533 63.1591 335.146 63.1591C336.01 63.1591 336.688 63.3485 337.18 63.7273C337.677 64.1061 338.029 64.6061 338.237 65.2273ZM346.256 60.3636V72H344.915V60.3636H346.256ZM348.712 72V63.2727H350.053V72H348.712ZM349.393 61.8182C349.132 61.8182 348.907 61.7292 348.717 61.5511C348.532 61.3731 348.439 61.1591 348.439 60.9091C348.439 60.6591 348.532 60.4451 348.717 60.267C348.907 60.089 349.132 60 349.393 60C349.655 60 349.878 60.089 350.064 60.267C350.253 60.4451 350.348 60.6591 350.348 60.9091C350.348 61.1591 350.253 61.3731 350.064 61.5511C349.878 61.7292 349.655 61.8182 349.393 61.8182ZM359.645 63.2727L356.418 72H355.054L351.827 63.2727H353.281L355.69 70.2273H355.781L358.19 63.2727H359.645ZM364.761 72.1818C363.92 72.1818 363.195 71.9962 362.585 71.625C361.979 71.25 361.511 70.7273 361.182 70.0568C360.856 69.3826 360.693 68.5985 360.693 67.7045C360.693 66.8106 360.856 66.0227 361.182 65.3409C361.511 64.6553 361.97 64.1212 362.557 63.7386C363.148 63.3523 363.837 63.1591 364.625 63.1591C365.08 63.1591 365.528 63.2348 365.972 63.3864C366.415 63.5379 366.818 63.7841 367.182 64.125C367.545 64.4621 367.835 64.9091 368.051 65.4659C368.267 66.0227 368.375 66.7083 368.375 67.5227V68.0909H361.648V66.9318H367.011C367.011 66.4394 366.913 66 366.716 65.6136C366.523 65.2273 366.246 64.9223 365.886 64.6989C365.53 64.4754 365.11 64.3636 364.625 64.3636C364.091 64.3636 363.629 64.4962 363.239 64.7614C362.852 65.0227 362.555 65.3636 362.347 65.7841C362.138 66.2045 362.034 66.6553 362.034 67.1364V67.9091C362.034 68.5682 362.148 69.1269 362.375 69.5852C362.606 70.0398 362.926 70.3864 363.335 70.625C363.744 70.8598 364.22 70.9773 364.761 70.9773C365.114 70.9773 365.432 70.928 365.716 70.8295C366.004 70.7273 366.252 70.5758 366.46 70.375C366.669 70.1705 366.83 69.9167 366.943 69.6136L368.239 69.9773C368.102 70.4167 367.873 70.803 367.551 71.1364C367.229 71.4659 366.831 71.7235 366.358 71.9091C365.884 72.0909 365.352 72.1818 364.761 72.1818ZM376.597 65.2273L375.392 65.5682C375.316 65.3674 375.205 65.1723 375.057 64.983C374.913 64.7898 374.716 64.6307 374.466 64.5057C374.216 64.3807 373.896 64.3182 373.506 64.3182C372.972 64.3182 372.527 64.4413 372.17 64.6875C371.818 64.9299 371.642 65.2386 371.642 65.6136C371.642 65.947 371.763 66.2102 372.006 66.4034C372.248 66.5966 372.627 66.7576 373.142 66.8864L374.438 67.2045C375.218 67.3939 375.799 67.6837 376.182 68.0739C376.564 68.4602 376.756 68.9583 376.756 69.5682C376.756 70.0682 376.612 70.5152 376.324 70.9091C376.04 71.303 375.642 71.6136 375.131 71.8409C374.619 72.0682 374.025 72.1818 373.347 72.1818C372.456 72.1818 371.72 71.9886 371.136 71.6023C370.553 71.2159 370.184 70.6515 370.028 69.9091L371.301 69.5909C371.422 70.0606 371.652 70.4129 371.989 70.6477C372.33 70.8826 372.775 71 373.324 71C373.949 71 374.445 70.8674 374.812 70.6023C375.184 70.3333 375.369 70.0114 375.369 69.6364C375.369 69.3333 375.263 69.0795 375.051 68.875C374.839 68.6667 374.513 68.5114 374.074 68.4091L372.619 68.0682C371.82 67.8788 371.233 67.5852 370.858 67.1875C370.487 66.786 370.301 66.2841 370.301 65.6818C370.301 65.1894 370.439 64.7538 370.716 64.375C370.996 63.9962 371.377 63.6989 371.858 63.483C372.343 63.267 372.892 63.1591 373.506 63.1591C374.369 63.1591 375.047 63.3485 375.54 63.7273C376.036 64.1061 376.388 64.6061 376.597 65.2273ZM386.933 72.1818C386.092 72.1818 385.367 71.9962 384.757 71.625C384.151 71.25 383.683 70.7273 383.354 70.0568C383.028 69.3826 382.865 68.5985 382.865 67.7045C382.865 66.8106 383.028 66.0227 383.354 65.3409C383.683 64.6553 384.142 64.1212 384.729 63.7386C385.32 63.3523 386.009 63.1591 386.797 63.1591C387.251 63.1591 387.7 63.2348 388.143 63.3864C388.587 63.5379 388.99 63.7841 389.354 64.125C389.717 64.4621 390.007 64.9091 390.223 65.4659C390.439 66.0227 390.547 66.7083 390.547 67.5227V68.0909H383.82V66.9318H389.183C389.183 66.4394 389.085 66 388.888 65.6136C388.695 65.2273 388.418 64.9223 388.058 64.6989C387.702 64.4754 387.282 64.3636 386.797 64.3636C386.263 64.3636 385.801 64.4962 385.411 64.7614C385.024 65.0227 384.727 65.3636 384.518 65.7841C384.31 66.2045 384.206 66.6553 384.206 67.1364V67.9091C384.206 68.5682 384.32 69.1269 384.547 69.5852C384.778 70.0398 385.098 70.3864 385.507 70.625C385.916 70.8598 386.392 70.9773 386.933 70.9773C387.286 70.9773 387.604 70.928 387.888 70.8295C388.176 70.7273 388.424 70.5758 388.632 70.375C388.84 70.1705 389.001 69.9167 389.115 69.6136L390.411 69.9773C390.274 70.4167 390.045 70.803 389.723 71.1364C389.401 71.4659 389.003 71.7235 388.53 71.9091C388.056 72.0909 387.524 72.1818 386.933 72.1818ZM399.457 63.2727L396.23 72H394.866L391.639 63.2727H393.094L395.503 70.2273H395.594L398.003 63.2727H399.457ZM404.574 72.1818C403.733 72.1818 403.008 71.9962 402.398 71.625C401.792 71.25 401.324 70.7273 400.994 70.0568C400.669 69.3826 400.506 68.5985 400.506 67.7045C400.506 66.8106 400.669 66.0227 400.994 65.3409C401.324 64.6553 401.782 64.1212 402.369 63.7386C402.96 63.3523 403.65 63.1591 404.438 63.1591C404.892 63.1591 405.341 63.2348 405.784 63.3864C406.227 63.5379 406.631 63.7841 406.994 64.125C407.358 64.4621 407.648 64.9091 407.864 65.4659C408.08 66.0227 408.188 66.7083 408.188 67.5227V68.0909H401.46V66.9318H406.824C406.824 66.4394 406.725 66 406.528 65.6136C406.335 65.2273 406.059 64.9223 405.699 64.6989C405.343 64.4754 404.922 64.3636 404.438 64.3636C403.903 64.3636 403.441 64.4962 403.051 64.7614C402.665 65.0227 402.367 65.3636 402.159 65.7841C401.951 66.2045 401.847 66.6553 401.847 67.1364V67.9091C401.847 68.5682 401.96 69.1269 402.188 69.5852C402.419 70.0398 402.739 70.3864 403.148 70.625C403.557 70.8598 404.032 70.9773 404.574 70.9773C404.926 70.9773 405.244 70.928 405.528 70.8295C405.816 70.7273 406.064 70.5758 406.273 70.375C406.481 70.1705 406.642 69.9167 406.756 69.6136L408.051 69.9773C407.915 70.4167 407.686 70.803 407.364 71.1364C407.042 71.4659 406.644 71.7235 406.17 71.9091C405.697 72.0909 405.165 72.1818 404.574 72.1818ZM410.227 72V63.2727H411.523V64.5909H411.614C411.773 64.1591 412.061 63.8087 412.477 63.5398C412.894 63.2708 413.364 63.1364 413.886 63.1364C413.985 63.1364 414.108 63.1383 414.256 63.142C414.403 63.1458 414.515 63.1515 414.591 63.1591V64.5227C414.545 64.5114 414.441 64.4943 414.278 64.4716C414.119 64.4451 413.951 64.4318 413.773 64.4318C413.348 64.4318 412.97 64.5208 412.636 64.6989C412.307 64.8731 412.045 65.1155 411.852 65.4261C411.663 65.733 411.568 66.0833 411.568 66.4773V72H410.227ZM417.31 75.2727C417.082 75.2727 416.88 75.2538 416.702 75.2159C416.524 75.1818 416.401 75.1477 416.332 75.1136L416.673 73.9318C416.999 74.0152 417.287 74.0455 417.537 74.0227C417.787 74 418.009 73.8883 418.202 73.6875C418.399 73.4905 418.579 73.1705 418.741 72.7273L418.991 72.0455L415.764 63.2727H417.219L419.628 70.2273H419.719L422.128 63.2727H423.582L419.878 73.2727C419.711 73.7235 419.505 74.0966 419.259 74.392C419.012 74.6913 418.726 74.9129 418.401 75.0568C418.079 75.2008 417.715 75.2727 417.31 75.2727ZM433.148 72.1818C432.42 72.1818 431.778 71.9981 431.222 71.6307C430.665 71.2595 430.229 70.7367 429.915 70.0625C429.6 69.3845 429.443 68.5833 429.443 67.6591C429.443 66.7424 429.6 65.947 429.915 65.2727C430.229 64.5985 430.667 64.0777 431.227 63.7102C431.788 63.3428 432.436 63.1591 433.17 63.1591C433.739 63.1591 434.188 63.2538 434.517 63.4432C434.85 63.6288 435.104 63.8409 435.278 64.0795C435.456 64.3144 435.595 64.5076 435.693 64.6591H435.807V60.3636H437.148V72H435.852V70.6591H435.693C435.595 70.8182 435.455 71.0189 435.273 71.2614C435.091 71.5 434.831 71.714 434.494 71.9034C434.157 72.089 433.708 72.1818 433.148 72.1818ZM433.33 70.9773C433.867 70.9773 434.322 70.8371 434.693 70.5568C435.064 70.2727 435.347 69.8807 435.54 69.3807C435.733 68.8769 435.83 68.2955 435.83 67.6364C435.83 66.9848 435.735 66.4148 435.545 65.9261C435.356 65.4337 435.076 65.0511 434.705 64.7784C434.333 64.5019 433.875 64.3636 433.33 64.3636C432.761 64.3636 432.288 64.5095 431.909 64.8011C431.534 65.089 431.252 65.4811 431.062 65.9773C430.877 66.4697 430.784 67.0227 430.784 67.6364C430.784 68.2576 430.879 68.822 431.068 69.3295C431.261 69.8333 431.545 70.2348 431.92 70.5341C432.299 70.8295 432.769 70.9773 433.33 70.9773ZM442.358 72.2045C441.805 72.2045 441.303 72.1004 440.852 71.892C440.402 71.6799 440.044 71.375 439.778 70.9773C439.513 70.5758 439.381 70.0909 439.381 69.5227C439.381 69.0227 439.479 68.6174 439.676 68.3068C439.873 67.9924 440.136 67.7462 440.466 67.5682C440.795 67.3902 441.159 67.2576 441.557 67.1705C441.958 67.0795 442.362 67.0076 442.767 66.9545C443.297 66.8864 443.727 66.8352 444.057 66.8011C444.39 66.7633 444.633 66.7008 444.784 66.6136C444.939 66.5265 445.017 66.375 445.017 66.1591V66.1136C445.017 65.553 444.864 65.1174 444.557 64.8068C444.254 64.4962 443.794 64.3409 443.176 64.3409C442.536 64.3409 442.034 64.4811 441.67 64.7614C441.307 65.0417 441.051 65.3409 440.903 65.6591L439.631 65.2045C439.858 64.6742 440.161 64.2614 440.54 63.9659C440.922 63.6667 441.339 63.4583 441.79 63.3409C442.244 63.2197 442.691 63.1591 443.131 63.1591C443.411 63.1591 443.733 63.1932 444.097 63.2614C444.464 63.3258 444.818 63.4602 445.159 63.6648C445.504 63.8693 445.79 64.178 446.017 64.5909C446.244 65.0038 446.358 65.5568 446.358 66.25V72H445.017V70.8182H444.949C444.858 71.0076 444.706 71.2102 444.494 71.4261C444.282 71.642 444 71.8258 443.648 71.9773C443.295 72.1288 442.866 72.2045 442.358 72.2045ZM442.562 71C443.093 71 443.54 70.8958 443.903 70.6875C444.271 70.4792 444.547 70.2102 444.733 69.8807C444.922 69.5511 445.017 69.2045 445.017 68.8409V67.6136C444.96 67.6818 444.835 67.7443 444.642 67.8011C444.453 67.8542 444.233 67.9015 443.983 67.9432C443.737 67.9811 443.496 68.0152 443.261 68.0455C443.03 68.072 442.843 68.0947 442.699 68.1136C442.35 68.1591 442.025 68.233 441.722 68.3352C441.422 68.4337 441.18 68.5833 440.994 68.7841C440.813 68.9811 440.722 69.25 440.722 69.5909C440.722 70.0568 440.894 70.4091 441.239 70.6477C441.587 70.8826 442.028 71 442.562 71ZM449.357 75.2727C449.129 75.2727 448.927 75.2538 448.749 75.2159C448.571 75.1818 448.447 75.1477 448.379 75.1136L448.72 73.9318C449.046 74.0152 449.334 74.0455 449.584 74.0227C449.834 74 450.055 73.8883 450.249 73.6875C450.446 73.4905 450.625 73.1705 450.788 72.7273L451.038 72.0455L447.811 63.2727H449.266L451.675 70.2273H451.766L454.175 63.2727H455.629L451.925 73.2727C451.758 73.7235 451.552 74.0966 451.305 74.392C451.059 74.6913 450.773 74.9129 450.447 75.0568C450.125 75.2008 449.762 75.2727 449.357 75.2727ZM457.83 72.0909C457.549 72.0909 457.309 71.9905 457.108 71.7898C456.907 71.589 456.807 71.3485 456.807 71.0682C456.807 70.7879 456.907 70.5473 457.108 70.3466C457.309 70.1458 457.549 70.0455 457.83 70.0455C458.11 70.0455 458.35 70.1458 458.551 70.3466C458.752 70.5473 458.852 70.7879 458.852 71.0682C458.852 71.2538 458.805 71.4242 458.71 71.5795C458.619 71.7348 458.496 71.8598 458.341 71.9545C458.189 72.0455 458.019 72.0909 457.83 72.0909ZM21.4091 96V84.3636H22.8182V89.5455H29.0227V84.3636H30.4318V96H29.0227V90.7955H22.8182V96H21.4091ZM36.7301 96.1818C35.8892 96.1818 35.1638 95.9962 34.554 95.625C33.9479 95.25 33.4801 94.7273 33.1506 94.0568C32.8248 93.3826 32.6619 92.5985 32.6619 91.7045C32.6619 90.8106 32.8248 90.0227 33.1506 89.3409C33.4801 88.6553 33.9384 88.1212 34.5256 87.7386C35.1165 87.3523 35.8059 87.1591 36.5938 87.1591C37.0483 87.1591 37.4972 87.2348 37.9403 87.3864C38.3835 87.5379 38.7869 87.7841 39.1506 88.125C39.5142 88.4621 39.804 88.9091 40.0199 89.4659C40.2358 90.0227 40.3438 90.7083 40.3438 91.5227V92.0909H33.6165V90.9318H38.9801C38.9801 90.4394 38.8816 90 38.6847 89.6136C38.4915 89.2273 38.215 88.9223 37.8551 88.6989C37.4991 88.4754 37.0786 88.3636 36.5938 88.3636C36.0597 88.3636 35.5975 88.4962 35.2074 88.7614C34.821 89.0227 34.5237 89.3636 34.3153 89.7841C34.107 90.2045 34.0028 90.6553 34.0028 91.1364V91.9091C34.0028 92.5682 34.1165 93.1269 34.3438 93.5852C34.5748 94.0398 34.8949 94.3864 35.304 94.625C35.7131 94.8598 36.1884 94.9773 36.7301 94.9773C37.0824 94.9773 37.4006 94.928 37.6847 94.8295C37.9725 94.7273 38.2206 94.5758 38.429 94.375C38.6373 94.1705 38.7983 93.9167 38.9119 93.6136L40.2074 93.9773C40.071 94.4167 39.8419 94.803 39.5199 95.1364C39.1979 95.4659 38.8002 95.7235 38.3267 95.9091C37.8532 96.0909 37.321 96.1818 36.7301 96.1818ZM43.7244 84.3636V96H42.3835V84.3636H43.7244ZM46.1804 99.2727V87.2727H47.4759V88.6591H47.6349C47.7334 88.5076 47.8698 88.3144 48.044 88.0795C48.2221 87.8409 48.4759 87.6288 48.8054 87.4432C49.1387 87.2538 49.5895 87.1591 50.1577 87.1591C50.8925 87.1591 51.5402 87.3428 52.1009 87.7102C52.6615 88.0777 53.099 88.5985 53.4134 89.2727C53.7277 89.947 53.8849 90.7424 53.8849 91.6591C53.8849 92.5833 53.7277 93.3845 53.4134 94.0625C53.099 94.7367 52.6634 95.2595 52.1065 95.6307C51.5497 95.9981 50.9077 96.1818 50.1804 96.1818C49.6198 96.1818 49.1709 96.089 48.8338 95.9034C48.4967 95.714 48.2372 95.5 48.0554 95.2614C47.8736 95.0189 47.7334 94.8182 47.6349 94.6591H47.5213V99.2727H46.1804ZM47.4986 91.6364C47.4986 92.2955 47.5952 92.8769 47.7884 93.3807C47.9815 93.8807 48.2637 94.2727 48.6349 94.5568C49.0062 94.8371 49.4607 94.9773 49.9986 94.9773C50.5592 94.9773 51.027 94.8295 51.402 94.5341C51.7808 94.2348 52.0649 93.8333 52.2543 93.3295C52.4474 92.822 52.544 92.2576 52.544 91.6364C52.544 91.0227 52.4493 90.4697 52.2599 89.9773C52.0743 89.4811 51.7921 89.089 51.4134 88.8011C51.0384 88.5095 50.5668 88.3636 49.9986 88.3636C49.4531 88.3636 48.9948 88.5019 48.6236 88.7784C48.2524 89.0511 47.9721 89.4337 47.7827 89.9261C47.5933 90.4148 47.4986 90.9848 47.4986 91.6364ZM65.9304 92.4318V87.2727H67.2713V96H65.9304V94.5227H65.8395C65.6349 94.9659 65.3168 95.3428 64.8849 95.6534C64.4531 95.9602 63.9077 96.1136 63.2486 96.1136C62.7031 96.1136 62.2183 95.9943 61.794 95.7557C61.3698 95.5133 61.0365 95.1496 60.794 94.6648C60.5516 94.1761 60.4304 93.5606 60.4304 92.8182V87.2727H61.7713V92.7273C61.7713 93.3636 61.9493 93.8712 62.3054 94.25C62.6652 94.6288 63.1236 94.8182 63.6804 94.8182C64.0137 94.8182 64.3527 94.733 64.6974 94.5625C65.0459 94.392 65.3376 94.1307 65.5724 93.7784C65.8111 93.4261 65.9304 92.9773 65.9304 92.4318ZM75.9091 89.2273L74.7045 89.5682C74.6288 89.3674 74.517 89.1723 74.3693 88.983C74.2254 88.7898 74.0284 88.6307 73.7784 88.5057C73.5284 88.3807 73.2083 88.3182 72.8182 88.3182C72.2841 88.3182 71.839 88.4413 71.483 88.6875C71.1307 88.9299 70.9545 89.2386 70.9545 89.6136C70.9545 89.947 71.0758 90.2102 71.3182 90.4034C71.5606 90.5966 71.9394 90.7576 72.4545 90.8864L73.75 91.2045C74.5303 91.3939 75.1117 91.6837 75.4943 92.0739C75.8769 92.4602 76.0682 92.9583 76.0682 93.5682C76.0682 94.0682 75.9242 94.5152 75.6364 94.9091C75.3523 95.303 74.9545 95.6136 74.4432 95.8409C73.9318 96.0682 73.3371 96.1818 72.6591 96.1818C71.7689 96.1818 71.0322 95.9886 70.4489 95.6023C69.8655 95.2159 69.4962 94.6515 69.3409 93.9091L70.6136 93.5909C70.7348 94.0606 70.964 94.4129 71.3011 94.6477C71.642 94.8826 72.0871 95 72.6364 95C73.2614 95 73.7576 94.8674 74.125 94.6023C74.4962 94.3333 74.6818 94.0114 74.6818 93.6364C74.6818 93.3333 74.5758 93.0795 74.3636 92.875C74.1515 92.6667 73.8258 92.5114 73.3864 92.4091L71.9318 92.0682C71.1326 91.8788 70.5455 91.5852 70.1705 91.1875C69.7992 90.786 69.6136 90.2841 69.6136 89.6818C69.6136 89.1894 69.7519 88.7538 70.0284 88.375C70.3087 87.9962 70.6894 87.6989 71.1705 87.483C71.6553 87.267 72.2045 87.1591 72.8182 87.1591C73.6818 87.1591 74.3598 87.3485 74.8523 87.7273C75.3485 88.1061 75.7008 88.6061 75.9091 89.2273ZM88.7685 89.2273L87.5639 89.5682C87.4882 89.3674 87.3764 89.1723 87.2287 88.983C87.0848 88.7898 86.8878 88.6307 86.6378 88.5057C86.3878 88.3807 86.0677 88.3182 85.6776 88.3182C85.1435 88.3182 84.6984 88.4413 84.3423 88.6875C83.9901 88.9299 83.8139 89.2386 83.8139 89.6136C83.8139 89.947 83.9351 90.2102 84.1776 90.4034C84.42 90.5966 84.7988 90.7576 85.3139 90.8864L86.6094 91.2045C87.3897 91.3939 87.9711 91.6837 88.3537 92.0739C88.7363 92.4602 88.9276 92.9583 88.9276 93.5682C88.9276 94.0682 88.7836 94.5152 88.4957 94.9091C88.2116 95.303 87.8139 95.6136 87.3026 95.8409C86.7912 96.0682 86.1965 96.1818 85.5185 96.1818C84.6283 96.1818 83.8916 95.9886 83.3082 95.6023C82.7249 95.2159 82.3556 94.6515 82.2003 93.9091L83.473 93.5909C83.5942 94.0606 83.8234 94.4129 84.1605 94.6477C84.5014 94.8826 84.9465 95 85.4957 95C86.1207 95 86.617 94.8674 86.9844 94.6023C87.3556 94.3333 87.5412 94.0114 87.5412 93.6364C87.5412 93.3333 87.4351 93.0795 87.223 92.875C87.0109 92.6667 86.6851 92.5114 86.2457 92.4091L84.7912 92.0682C83.992 91.8788 83.4048 91.5852 83.0298 91.1875C82.6586 90.786 82.473 90.2841 82.473 89.6818C82.473 89.1894 82.6113 88.7538 82.8878 88.375C83.1681 87.9962 83.5488 87.6989 84.0298 87.483C84.5147 87.267 85.0639 87.1591 85.6776 87.1591C86.5412 87.1591 87.2192 87.3485 87.7116 87.7273C88.2079 88.1061 88.5601 88.6061 88.7685 89.2273ZM94.7415 87.2727V88.4091H90.2188V87.2727H94.7415ZM91.5369 85.1818H92.8778V93.5C92.8778 93.8788 92.9328 94.1629 93.0426 94.3523C93.1563 94.5379 93.3002 94.6629 93.4744 94.7273C93.6525 94.7879 93.84 94.8182 94.0369 94.8182C94.1847 94.8182 94.3059 94.8106 94.4006 94.7955C94.4953 94.7765 94.571 94.7614 94.6278 94.75L94.9006 95.9545C94.8097 95.9886 94.6828 96.0227 94.5199 96.0568C94.357 96.0947 94.1506 96.1136 93.9006 96.1136C93.5218 96.1136 93.1506 96.0322 92.7869 95.8693C92.4271 95.7064 92.1278 95.4583 91.8892 95.125C91.6544 94.7917 91.5369 94.3712 91.5369 93.8636V85.1818ZM100.21 96.1818C99.4223 96.1818 98.7311 95.9943 98.1364 95.6193C97.5455 95.2443 97.0833 94.7197 96.75 94.0455C96.4205 93.3712 96.2557 92.5833 96.2557 91.6818C96.2557 90.7727 96.4205 89.9792 96.75 89.3011C97.0833 88.6231 97.5455 88.0966 98.1364 87.7216C98.7311 87.3466 99.4223 87.1591 100.21 87.1591C100.998 87.1591 101.688 87.3466 102.278 87.7216C102.873 88.0966 103.335 88.6231 103.665 89.3011C103.998 89.9792 104.165 90.7727 104.165 91.6818C104.165 92.5833 103.998 93.3712 103.665 94.0455C103.335 94.7197 102.873 95.2443 102.278 95.6193C101.688 95.9943 100.998 96.1818 100.21 96.1818ZM100.21 94.9773C100.809 94.9773 101.301 94.8239 101.688 94.517C102.074 94.2102 102.36 93.8068 102.545 93.3068C102.731 92.8068 102.824 92.2652 102.824 91.6818C102.824 91.0985 102.731 90.5549 102.545 90.0511C102.36 89.5473 102.074 89.1402 101.688 88.8295C101.301 88.5189 100.809 88.3636 100.21 88.3636C99.6117 88.3636 99.1193 88.5189 98.733 88.8295C98.3466 89.1402 98.0606 89.5473 97.875 90.0511C97.6894 90.5549 97.5966 91.0985 97.5966 91.6818C97.5966 92.2652 97.6894 92.8068 97.875 93.3068C98.0606 93.8068 98.3466 94.2102 98.733 94.517C99.1193 94.8239 99.6117 94.9773 100.21 94.9773ZM106.212 99.2727V87.2727H107.507V88.6591H107.666C107.765 88.5076 107.901 88.3144 108.075 88.0795C108.253 87.8409 108.507 87.6288 108.837 87.4432C109.17 87.2538 109.621 87.1591 110.189 87.1591C110.924 87.1591 111.571 87.3428 112.132 87.7102C112.693 88.0777 113.13 88.5985 113.445 89.2727C113.759 89.947 113.916 90.7424 113.916 91.6591C113.916 92.5833 113.759 93.3845 113.445 94.0625C113.13 94.7367 112.695 95.2595 112.138 95.6307C111.581 95.9981 110.939 96.1818 110.212 96.1818C109.651 96.1818 109.202 96.089 108.865 95.9034C108.528 95.714 108.268 95.5 108.087 95.2614C107.905 95.0189 107.765 94.8182 107.666 94.6591H107.553V99.2727H106.212ZM107.53 91.6364C107.53 92.2955 107.626 92.8769 107.82 93.3807C108.013 93.8807 108.295 94.2727 108.666 94.5568C109.037 94.8371 109.492 94.9773 110.03 94.9773C110.59 94.9773 111.058 94.8295 111.433 94.5341C111.812 94.2348 112.096 93.8333 112.286 93.3295C112.479 92.822 112.575 92.2576 112.575 91.6364C112.575 91.0227 112.481 90.4697 112.291 89.9773C112.106 89.4811 111.823 89.089 111.445 88.8011C111.07 88.5095 110.598 88.3636 110.03 88.3636C109.484 88.3636 109.026 88.5019 108.655 88.7784C108.284 89.0511 108.003 89.4337 107.814 89.9261C107.625 90.4148 107.53 90.9848 107.53 91.6364ZM124.257 87.2727V88.4091H119.734V87.2727H124.257ZM121.053 85.1818H122.393V93.5C122.393 93.8788 122.448 94.1629 122.558 94.3523C122.672 94.5379 122.816 94.6629 122.99 94.7273C123.168 94.7879 123.356 94.8182 123.553 94.8182C123.7 94.8182 123.821 94.8106 123.916 94.7955C124.011 94.7765 124.087 94.7614 124.143 94.75L124.416 95.9545C124.325 95.9886 124.198 96.0227 124.036 96.0568C123.873 96.0947 123.666 96.1136 123.416 96.1136C123.037 96.1136 122.666 96.0322 122.303 95.8693C121.943 95.7064 121.643 95.4583 121.405 95.125C121.17 94.7917 121.053 94.3712 121.053 93.8636V85.1818ZM127.803 90.75V96H126.462V84.3636H127.803V88.6364H127.916C128.121 88.1856 128.428 87.8277 128.837 87.5625C129.25 87.2936 129.799 87.1591 130.484 87.1591C131.079 87.1591 131.6 87.2784 132.047 87.517C132.494 87.7519 132.84 88.1136 133.087 88.6023C133.337 89.0871 133.462 89.7045 133.462 90.4545V96H132.121V90.5455C132.121 89.8523 131.941 89.3163 131.581 88.9375C131.225 88.5549 130.731 88.3636 130.098 88.3636C129.659 88.3636 129.265 88.4564 128.916 88.642C128.571 88.8277 128.299 89.0985 128.098 89.4545C127.901 89.8106 127.803 90.2424 127.803 90.75ZM135.915 96V87.2727H137.256V96H135.915ZM136.597 85.8182C136.335 85.8182 136.11 85.7292 135.92 85.5511C135.735 85.3731 135.642 85.1591 135.642 84.9091C135.642 84.6591 135.735 84.4451 135.92 84.267C136.11 84.089 136.335 84 136.597 84C136.858 84 137.081 84.089 137.267 84.267C137.456 84.4451 137.551 84.6591 137.551 84.9091C137.551 85.1591 137.456 85.3731 137.267 85.5511C137.081 85.7292 136.858 85.8182 136.597 85.8182ZM145.893 89.2273L144.689 89.5682C144.613 89.3674 144.501 89.1723 144.354 88.983C144.21 88.7898 144.013 88.6307 143.763 88.5057C143.513 88.3807 143.193 88.3182 142.803 88.3182C142.268 88.3182 141.823 88.4413 141.467 88.6875C141.115 88.9299 140.939 89.2386 140.939 89.6136C140.939 89.947 141.06 90.2102 141.303 90.4034C141.545 90.5966 141.924 90.7576 142.439 90.8864L143.734 91.2045C144.515 91.3939 145.096 91.6837 145.479 92.0739C145.861 92.4602 146.053 92.9583 146.053 93.5682C146.053 94.0682 145.909 94.5152 145.621 94.9091C145.337 95.303 144.939 95.6136 144.428 95.8409C143.916 96.0682 143.321 96.1818 142.643 96.1818C141.753 96.1818 141.017 95.9886 140.433 95.6023C139.85 95.2159 139.481 94.6515 139.325 93.9091L140.598 93.5909C140.719 94.0606 140.948 94.4129 141.286 94.6477C141.626 94.8826 142.071 95 142.621 95C143.246 95 143.742 94.8674 144.109 94.6023C144.481 94.3333 144.666 94.0114 144.666 93.6364C144.666 93.3333 144.56 93.0795 144.348 92.875C144.136 92.6667 143.81 92.5114 143.371 92.4091L141.916 92.0682C141.117 91.8788 140.53 91.5852 140.155 91.1875C139.784 90.786 139.598 90.2841 139.598 89.6818C139.598 89.1894 139.736 88.7538 140.013 88.375C140.293 87.9962 140.674 87.6989 141.155 87.483C141.64 87.267 142.189 87.1591 142.803 87.1591C143.666 87.1591 144.344 87.3485 144.837 87.7273C145.333 88.1061 145.685 88.6061 145.893 89.2273ZM149.048 96.0909C148.768 96.0909 148.527 95.9905 148.327 95.7898C148.126 95.589 148.026 95.3485 148.026 95.0682C148.026 94.7879 148.126 94.5473 148.327 94.3466C148.527 94.1458 148.768 94.0455 149.048 94.0455C149.329 94.0455 149.569 94.1458 149.77 94.3466C149.971 94.5473 150.071 94.7879 150.071 95.0682C150.071 95.2538 150.024 95.4242 149.929 95.5795C149.838 95.7348 149.715 95.8598 149.56 95.9545C149.408 96.0455 149.238 96.0909 149.048 96.0909ZM157.159 96V84.3636H158.568V89.5455H164.773V84.3636H166.182V96H164.773V90.7955H158.568V96H157.159ZM172.48 96.1818C171.639 96.1818 170.914 95.9962 170.304 95.625C169.698 95.25 169.23 94.7273 168.901 94.0568C168.575 93.3826 168.412 92.5985 168.412 91.7045C168.412 90.8106 168.575 90.0227 168.901 89.3409C169.23 88.6553 169.688 88.1212 170.276 87.7386C170.866 87.3523 171.556 87.1591 172.344 87.1591C172.798 87.1591 173.247 87.2348 173.69 87.3864C174.134 87.5379 174.537 87.7841 174.901 88.125C175.264 88.4621 175.554 88.9091 175.77 89.4659C175.986 90.0227 176.094 90.7083 176.094 91.5227V92.0909H169.366V90.9318H174.73C174.73 90.4394 174.632 90 174.435 89.6136C174.241 89.2273 173.965 88.9223 173.605 88.6989C173.249 88.4754 172.829 88.3636 172.344 88.3636C171.81 88.3636 171.348 88.4962 170.957 88.7614C170.571 89.0227 170.274 89.3636 170.065 89.7841C169.857 90.2045 169.753 90.6553 169.753 91.1364V91.9091C169.753 92.5682 169.866 93.1269 170.094 93.5852C170.325 94.0398 170.645 94.3864 171.054 94.625C171.463 94.8598 171.938 94.9773 172.48 94.9773C172.832 94.9773 173.151 94.928 173.435 94.8295C173.723 94.7273 173.971 94.5758 174.179 94.375C174.387 94.1705 174.548 93.9167 174.662 93.6136L175.957 93.9773C175.821 94.4167 175.592 94.803 175.27 95.1364C174.948 95.4659 174.55 95.7235 174.077 95.9091C173.603 96.0909 173.071 96.1818 172.48 96.1818ZM179.474 84.3636V96H178.134V84.3636H179.474ZM181.93 99.2727V87.2727H183.226V88.6591H183.385C183.483 88.5076 183.62 88.3144 183.794 88.0795C183.972 87.8409 184.226 87.6288 184.555 87.4432C184.889 87.2538 185.339 87.1591 185.908 87.1591C186.643 87.1591 187.29 87.3428 187.851 87.7102C188.411 88.0777 188.849 88.5985 189.163 89.2727C189.478 89.947 189.635 90.7424 189.635 91.6591C189.635 92.5833 189.478 93.3845 189.163 94.0625C188.849 94.7367 188.413 95.2595 187.857 95.6307C187.3 95.9981 186.658 96.1818 185.93 96.1818C185.37 96.1818 184.921 96.089 184.584 95.9034C184.247 95.714 183.987 95.5 183.805 95.2614C183.624 95.0189 183.483 94.8182 183.385 94.6591H183.271V99.2727H181.93ZM183.249 91.6364C183.249 92.2955 183.345 92.8769 183.538 93.3807C183.732 93.8807 184.014 94.2727 184.385 94.5568C184.756 94.8371 185.211 94.9773 185.749 94.9773C186.309 94.9773 186.777 94.8295 187.152 94.5341C187.531 94.2348 187.815 93.8333 188.004 93.3295C188.197 92.822 188.294 92.2576 188.294 91.6364C188.294 91.0227 188.199 90.4697 188.01 89.9773C187.824 89.4811 187.542 89.089 187.163 88.8011C186.788 88.5095 186.317 88.3636 185.749 88.3636C185.203 88.3636 184.745 88.5019 184.374 88.7784C184.002 89.0511 183.722 89.4337 183.533 89.9261C183.343 90.4148 183.249 90.9848 183.249 91.6364ZM201.68 92.4318V87.2727H203.021V96H201.68V94.5227H201.589C201.385 94.9659 201.067 95.3428 200.635 95.6534C200.203 95.9602 199.658 96.1136 198.999 96.1136C198.453 96.1136 197.968 95.9943 197.544 95.7557C197.12 95.5133 196.786 95.1496 196.544 94.6648C196.302 94.1761 196.18 93.5606 196.18 92.8182V87.2727H197.521V92.7273C197.521 93.3636 197.699 93.8712 198.055 94.25C198.415 94.6288 198.874 94.8182 199.43 94.8182C199.764 94.8182 200.103 94.733 200.447 94.5625C200.796 94.392 201.088 94.1307 201.322 93.7784C201.561 93.4261 201.68 92.9773 201.68 92.4318ZM211.659 89.2273L210.455 89.5682C210.379 89.3674 210.267 89.1723 210.119 88.983C209.975 88.7898 209.778 88.6307 209.528 88.5057C209.278 88.3807 208.958 88.3182 208.568 88.3182C208.034 88.3182 207.589 88.4413 207.233 88.6875C206.881 88.9299 206.705 89.2386 206.705 89.6136C206.705 89.947 206.826 90.2102 207.068 90.4034C207.311 90.5966 207.689 90.7576 208.205 90.8864L209.5 91.2045C210.28 91.3939 210.862 91.6837 211.244 92.0739C211.627 92.4602 211.818 92.9583 211.818 93.5682C211.818 94.0682 211.674 94.5152 211.386 94.9091C211.102 95.303 210.705 95.6136 210.193 95.8409C209.682 96.0682 209.087 96.1818 208.409 96.1818C207.519 96.1818 206.782 95.9886 206.199 95.6023C205.616 95.2159 205.246 94.6515 205.091 93.9091L206.364 93.5909C206.485 94.0606 206.714 94.4129 207.051 94.6477C207.392 94.8826 207.837 95 208.386 95C209.011 95 209.508 94.8674 209.875 94.6023C210.246 94.3333 210.432 94.0114 210.432 93.6364C210.432 93.3333 210.326 93.0795 210.114 92.875C209.902 92.6667 209.576 92.5114 209.136 92.4091L207.682 92.0682C206.883 91.8788 206.295 91.5852 205.92 91.1875C205.549 90.786 205.364 90.2841 205.364 89.6818C205.364 89.1894 205.502 88.7538 205.778 88.375C206.059 87.9962 206.439 87.6989 206.92 87.483C207.405 87.267 207.955 87.1591 208.568 87.1591C209.432 87.1591 210.11 87.3485 210.602 87.7273C211.098 88.1061 211.451 88.6061 211.659 89.2273ZM220.314 96L217.655 87.2727H219.064L220.95 93.9545H221.041L222.905 87.2727H224.337L226.178 93.9318H226.268L228.155 87.2727H229.564L226.905 96H225.587L223.678 89.2955H223.541L221.632 96H220.314ZM231.337 96V87.2727H232.678V96H231.337ZM232.018 85.8182C231.757 85.8182 231.532 85.7292 231.342 85.5511C231.157 85.3731 231.064 85.1591 231.064 84.9091C231.064 84.6591 231.157 84.4451 231.342 84.267C231.532 84.089 231.757 84 232.018 84C232.28 84 232.503 84.089 232.689 84.267C232.878 84.4451 232.973 84.6591 232.973 84.9091C232.973 85.1591 232.878 85.3731 232.689 85.5511C232.503 85.7292 232.28 85.8182 232.018 85.8182ZM236.474 90.75V96H235.134V87.2727H236.429V88.6364H236.543C236.747 88.1932 237.058 87.8371 237.474 87.5682C237.891 87.2955 238.429 87.1591 239.088 87.1591C239.679 87.1591 240.196 87.2803 240.639 87.5227C241.082 87.7614 241.427 88.125 241.673 88.6136C241.92 89.0985 242.043 89.7121 242.043 90.4545V96H240.702V90.5455C240.702 89.8598 240.524 89.3258 240.168 88.9432C239.812 88.5568 239.323 88.3636 238.702 88.3636C238.274 88.3636 237.891 88.4564 237.554 88.642C237.221 88.8277 236.957 89.0985 236.764 89.4545C236.571 89.8106 236.474 90.2424 236.474 90.75ZM245.47 96.0909C245.19 96.0909 244.949 95.9905 244.749 95.7898C244.548 95.589 244.447 95.3485 244.447 95.0682C244.447 94.7879 244.548 94.5473 244.749 94.3466C244.949 94.1458 245.19 94.0455 245.47 94.0455C245.75 94.0455 245.991 94.1458 246.192 94.3466C246.393 94.5473 246.493 94.7879 246.493 95.0682C246.493 95.2538 246.446 95.4242 246.351 95.5795C246.26 95.7348 246.137 95.8598 245.982 95.9545C245.83 96.0455 245.66 96.0909 245.47 96.0909ZM257.172 96H253.581V84.3636H257.331C258.46 84.3636 259.426 84.5966 260.229 85.0625C261.032 85.5246 261.647 86.1894 262.075 87.0568C262.503 87.9205 262.717 88.9545 262.717 90.1591C262.717 91.3712 262.501 92.4148 262.07 93.2898C261.638 94.161 261.009 94.8314 260.183 95.3011C259.357 95.767 258.354 96 257.172 96ZM254.99 94.75H257.081C258.043 94.75 258.84 94.5644 259.473 94.1932C260.106 93.822 260.577 93.2936 260.888 92.608C261.198 91.9223 261.354 91.1061 261.354 90.1591C261.354 89.2197 261.2 88.411 260.893 87.733C260.587 87.0511 260.128 86.5284 259.518 86.1648C258.909 85.7973 258.149 85.6136 257.24 85.6136H254.99V94.75ZM268.445 96.1818C267.657 96.1818 266.965 95.9943 266.371 95.6193C265.78 95.2443 265.318 94.7197 264.984 94.0455C264.655 93.3712 264.49 92.5833 264.49 91.6818C264.49 90.7727 264.655 89.9792 264.984 89.3011C265.318 88.6231 265.78 88.0966 266.371 87.7216C266.965 87.3466 267.657 87.1591 268.445 87.1591C269.232 87.1591 269.922 87.3466 270.513 87.7216C271.107 88.0966 271.57 88.6231 271.899 89.3011C272.232 89.9792 272.399 90.7727 272.399 91.6818C272.399 92.5833 272.232 93.3712 271.899 94.0455C271.57 94.7197 271.107 95.2443 270.513 95.6193C269.922 95.9943 269.232 96.1818 268.445 96.1818ZM268.445 94.9773C269.043 94.9773 269.536 94.8239 269.922 94.517C270.308 94.2102 270.594 93.8068 270.78 93.3068C270.965 92.8068 271.058 92.2652 271.058 91.6818C271.058 91.0985 270.965 90.5549 270.78 90.0511C270.594 89.5473 270.308 89.1402 269.922 88.8295C269.536 88.5189 269.043 88.3636 268.445 88.3636C267.846 88.3636 267.354 88.5189 266.967 88.8295C266.581 89.1402 266.295 89.5473 266.109 90.0511C265.924 90.5549 265.831 91.0985 265.831 91.6818C265.831 92.2652 265.924 92.8068 266.109 93.3068C266.295 93.8068 266.581 94.2102 266.967 94.517C267.354 94.8239 267.846 94.9773 268.445 94.9773ZM275.787 90.75V96H274.446V87.2727H275.741V88.6364H275.855C276.06 88.1932 276.37 87.8371 276.787 87.5682C277.204 87.2955 277.741 87.1591 278.401 87.1591C278.991 87.1591 279.509 87.2803 279.952 87.5227C280.395 87.7614 280.74 88.125 280.986 88.6136C281.232 89.0985 281.355 89.7121 281.355 90.4545V96H280.014V90.5455C280.014 89.8598 279.836 89.3258 279.48 88.9432C279.124 88.5568 278.635 88.3636 278.014 88.3636C277.586 88.3636 277.204 88.4564 276.866 88.642C276.533 88.8277 276.27 89.0985 276.077 89.4545C275.884 89.8106 275.787 90.2424 275.787 90.75ZM286.374 96.2045C285.821 96.2045 285.319 96.1004 284.868 95.892C284.417 95.6799 284.059 95.375 283.794 94.9773C283.529 94.5758 283.396 94.0909 283.396 93.5227C283.396 93.0227 283.495 92.6174 283.692 92.3068C283.889 91.9924 284.152 91.7462 284.482 91.5682C284.811 91.3902 285.175 91.2576 285.572 91.1705C285.974 91.0795 286.377 91.0076 286.783 90.9545C287.313 90.8864 287.743 90.8352 288.072 90.8011C288.406 90.7633 288.648 90.7008 288.8 90.6136C288.955 90.5265 289.033 90.375 289.033 90.1591V90.1136C289.033 89.553 288.879 89.1174 288.572 88.8068C288.269 88.4962 287.809 88.3409 287.192 88.3409C286.552 88.3409 286.05 88.4811 285.686 88.7614C285.322 89.0417 285.067 89.3409 284.919 89.6591L283.646 89.2045C283.874 88.6742 284.177 88.2614 284.555 87.9659C284.938 87.6667 285.355 87.4583 285.805 87.3409C286.26 87.2197 286.707 87.1591 287.146 87.1591C287.427 87.1591 287.749 87.1932 288.112 87.2614C288.48 87.3258 288.834 87.4602 289.175 87.6648C289.519 87.8693 289.805 88.178 290.033 88.5909C290.26 89.0038 290.374 89.5568 290.374 90.25V96H289.033V94.8182H288.964C288.874 95.0076 288.722 95.2102 288.51 95.4261C288.298 95.642 288.016 95.8258 287.663 95.9773C287.311 96.1288 286.881 96.2045 286.374 96.2045ZM286.578 95C287.108 95 287.555 94.8958 287.919 94.6875C288.286 94.4792 288.563 94.2102 288.749 93.8807C288.938 93.5511 289.033 93.2045 289.033 92.8409V91.6136C288.976 91.6818 288.851 91.7443 288.658 91.8011C288.468 91.8542 288.249 91.9015 287.999 91.9432C287.752 91.9811 287.512 92.0152 287.277 92.0455C287.046 92.072 286.858 92.0947 286.714 92.1136C286.366 92.1591 286.04 92.233 285.737 92.3352C285.438 92.4337 285.196 92.5833 285.01 92.7841C284.828 92.9811 284.737 93.25 284.737 93.5909C284.737 94.0568 284.91 94.4091 285.254 94.6477C285.603 94.8826 286.044 95 286.578 95ZM296.616 87.2727V88.4091H292.094V87.2727H296.616ZM293.412 85.1818H294.753V93.5C294.753 93.8788 294.808 94.1629 294.918 94.3523C295.031 94.5379 295.175 94.6629 295.349 94.7273C295.527 94.7879 295.715 94.8182 295.912 94.8182C296.06 94.8182 296.181 94.8106 296.276 94.7955C296.37 94.7765 296.446 94.7614 296.503 94.75L296.776 95.9545C296.685 95.9886 296.558 96.0227 296.395 96.0568C296.232 96.0947 296.026 96.1136 295.776 96.1136C295.397 96.1136 295.026 96.0322 294.662 95.8693C294.302 95.7064 294.003 95.4583 293.764 95.125C293.529 94.7917 293.412 94.3712 293.412 93.8636V85.1818ZM302.199 96.1818C301.358 96.1818 300.633 95.9962 300.023 95.625C299.417 95.25 298.949 94.7273 298.619 94.0568C298.294 93.3826 298.131 92.5985 298.131 91.7045C298.131 90.8106 298.294 90.0227 298.619 89.3409C298.949 88.6553 299.407 88.1212 299.994 87.7386C300.585 87.3523 301.275 87.1591 302.062 87.1591C302.517 87.1591 302.966 87.2348 303.409 87.3864C303.852 87.5379 304.256 87.7841 304.619 88.125C304.983 88.4621 305.273 88.9091 305.489 89.4659C305.705 90.0227 305.812 90.7083 305.812 91.5227V92.0909H299.085V90.9318H304.449C304.449 90.4394 304.35 90 304.153 89.6136C303.96 89.2273 303.684 88.9223 303.324 88.6989C302.968 88.4754 302.547 88.3636 302.062 88.3636C301.528 88.3636 301.066 88.4962 300.676 88.7614C300.29 89.0227 299.992 89.3636 299.784 89.7841C299.576 90.2045 299.472 90.6553 299.472 91.1364V91.9091C299.472 92.5682 299.585 93.1269 299.812 93.5852C300.044 94.0398 300.364 94.3864 300.773 94.625C301.182 94.8598 301.657 94.9773 302.199 94.9773C302.551 94.9773 302.869 94.928 303.153 94.8295C303.441 94.7273 303.689 94.5758 303.898 94.375C304.106 94.1705 304.267 93.9167 304.381 93.6136L305.676 93.9773C305.54 94.4167 305.311 94.803 304.989 95.1364C304.667 95.4659 304.269 95.7235 303.795 95.9091C303.322 96.0909 302.79 96.1818 302.199 96.1818ZM308.83 96.0909C308.549 96.0909 308.309 95.9905 308.108 95.7898C307.907 95.589 307.807 95.3485 307.807 95.0682C307.807 94.7879 307.907 94.5473 308.108 94.3466C308.309 94.1458 308.549 94.0455 308.83 94.0455C309.11 94.0455 309.35 94.1458 309.551 94.3466C309.752 94.5473 309.852 94.7879 309.852 95.0682C309.852 95.2538 309.805 95.4242 309.71 95.5795C309.619 95.7348 309.496 95.8598 309.341 95.9545C309.189 96.0455 309.019 96.0909 308.83 96.0909Z" fill="#374151"/>
    <path fill-rule="evenodd" clip-rule="evenodd" d="M514.73 56.0666C514.73 56.0666 507.412 48.2843 511.142 45.7427C513.29 44.2791 514.691 46.1519 514.691 46.1519C514.691 46.1519 516.092 44.2712 518.24 45.7427C521.97 48.2922 514.722 56.0666 514.722 56.0666H514.73ZM514.659 47.5919C514.518 47.3873 514.117 46.9623 513.912 46.805C513.707 46.6476 512.873 45.9945 511.779 46.7341C511.449 46.9623 511.292 47.222 511.252 47.6155C511.244 47.6863 511.237 47.765 511.237 47.8358C511.237 49.5512 513.101 52.3446 514.715 54.2725C516.304 52.3525 518.137 49.5748 518.137 47.8594C518.137 47.7807 518.137 47.702 518.13 47.6233C518.082 47.222 517.925 46.9545 517.595 46.7263C516.501 45.9866 515.903 46.443 515.533 46.7263C515.045 47.1119 514.825 47.3716 514.659 47.5761" fill="black"/>
    <path d="M526.565 38.5039H502.958V62.1105H526.565V38.5039Z" stroke="black" stroke-width="0.882353" stroke-miterlimit="10"/>
    <path d="M616.577 38.4797H526.455V62.0705H616.577V38.4797Z" stroke="black" stroke-width="0.854118" stroke-miterlimit="10"/>
    <path d="M578.413 62.0945H526.494V85.5673H578.413V62.0945Z" stroke="black" stroke-width="0.790588" stroke-miterlimit="10"/>
    <path d="M539.612 52.1327H541.311V53.9111C541.311 55.6265 539.785 56.2403 538.479 56.2403C537.172 56.2403 535.63 55.6265 535.63 53.9111V46.955C535.63 45.2239 537.157 44.6101 538.479 44.6101C539.8 44.6101 541.311 45.2239 541.311 46.955V48.7334H539.612V46.955C539.612 46.3098 538.998 46.0737 538.479 46.0737C537.959 46.0737 537.33 46.294 537.33 46.955V53.9111C537.33 54.5563 537.959 54.7924 538.479 54.7924C538.998 54.7924 539.612 54.5563 539.612 53.9111V52.1327Z" fill="black"/>
    <path d="M543.869 46.955C543.869 45.2239 545.395 44.6101 546.717 44.6101C548.039 44.6101 549.55 45.2239 549.55 46.955V53.9111C549.55 55.6265 548.023 56.2403 546.717 56.2403C545.411 56.2403 543.869 55.6265 543.869 53.9111V46.955ZM547.85 46.955C547.85 46.3098 547.237 46.0737 546.717 46.0737C546.198 46.0737 545.568 46.294 545.568 46.955V53.9111C545.568 54.5563 546.198 54.7924 546.717 54.7924C547.237 54.7924 547.85 54.5563 547.85 53.9111V46.955Z" fill="black"/>
    <path d="M558.544 56.0671V48.3714L556.278 52.8724L554.027 48.3714V56.0671H552.328V44.799H553.886L556.278 49.6147L558.686 44.799H560.212V56.0671H558.544Z" fill="black"/>
    <path d="M568.12 56.0671H563.131V44.799H568.12V46.2626H564.831V49.5203H567.554V50.9839H564.831V54.5878H568.12V56.0671Z" fill="black"/>
    <path d="M574.856 56.0671V44.799H577.972C579.404 44.799 580.459 45.6803 580.459 47.0179V48.4029C580.459 49.0796 580.113 49.6776 579.499 50.1813C580.38 50.6219 580.789 51.2357 580.789 52.1327V53.5176C580.789 54.8868 579.892 56.0671 578.208 56.0671H574.856ZM578.759 47.1911C578.759 46.7189 578.523 46.2468 577.831 46.2468H576.556V49.5203H577.831C578.523 49.5203 578.759 49.0324 578.759 48.576V47.1911ZM579.09 52.1169C579.09 51.5189 578.728 50.9839 577.909 50.9839H576.556V54.6193H577.909C578.743 54.6193 579.09 54.0999 579.09 53.5019V52.1169Z" fill="black"/>
    <path d="M588.131 56.0671L587.596 53.6278H584.936L584.417 56.0671H582.796V55.7839L585.424 44.799H587.123L589.752 55.7839V56.0671H588.131ZM586.258 47.5216L585.267 52.1484H587.265L586.258 47.5216Z" fill="black"/>
    <path d="M595.905 52.1327H597.605V53.9111C597.605 55.6265 596.078 56.2403 594.773 56.2403C593.466 56.2403 591.924 55.6265 591.924 53.9111V46.955C591.924 45.2239 593.45 44.6101 594.773 44.6101C596.095 44.6101 597.605 45.2239 597.605 46.955V48.7334H595.905V46.955C595.905 46.3098 595.291 46.0737 594.773 46.0737C594.253 46.0737 593.623 46.294 593.623 46.955V53.9111C593.623 54.5563 594.253 54.7924 594.773 54.7924C595.291 54.7924 595.905 54.5563 595.905 53.9111V52.1327Z" fill="black"/>
    <path d="M604.774 56.0671L602.586 51.3144L601.988 52.3216V56.0671H600.288V44.799H601.988V49.2684L604.632 44.799H606.316V45.0822L603.499 49.7721L606.442 55.7839V56.0671H604.774Z" fill="black"/>
    <path d="M540.438 79.6577L539.903 77.2183H537.243L536.724 79.6577H535.103V79.3744L537.731 68.3895H539.43L542.059 79.3744V79.6577H540.438ZM538.565 71.1121L537.573 75.739H539.572L538.565 71.1121Z" fill="black"/>
    <path d="M544.506 79.6577V68.3895H546.206V78.1784H549.495V79.6577H544.506Z" fill="black"/>
    <path d="M553.618 68.3895H551.919V79.6577H553.618V68.3895Z" fill="black"/>
    <path d="M560.291 79.6577H558.733L556.042 68.6728V68.3895H557.6L559.504 76.7934L561.44 68.3895H562.998V68.6728L560.291 79.6577Z" fill="black"/>
    <path d="M570.434 79.6577H565.445V68.3895H570.434V69.8531H567.145V73.1108H569.867V74.5744H567.145V78.1784H570.434V79.6577Z" fill="black"/>
    <rect x="2" y="2" width="636" height="120" rx="6" stroke="#111827" stroke-width="4"/>
</svg>
